<svg id="Layer_1" data-name="Layer 1" xmlns="http://www.w3.org/2000/svg" viewBox="0 0 100 100"><title>ARABIC</title><path d="M37,46.2c-1.13-.37-2.2-.69-3.26-1.06a11.87,11.87,0,0,1-3.08-1.6,9.65,9.65,0,0,1-1.35-1.2,4.86,4.86,0,0,1-1.27-3.72,13.51,13.51,0,0,1,1-4.11,33.66,33.66,0,0,1,4.24-7.88,12.16,12.16,0,0,1,2.41-2.45,7.22,7.22,0,0,1,3.65-1.52,6,6,0,0,1,3.16.57,17.45,17.45,0,0,1,4,2.61,6.8,6.8,0,0,1,.92.87,4.55,4.55,0,0,1-.53,0,30.26,30.26,0,0,0-4.14.43,22.91,22.91,0,0,0-8.3,3.05,10.48,10.48,0,0,0-2.27,1.83,5.33,5.33,0,0,0-1.35,2.46,3.18,3.18,0,0,0,.86,3.1,7.83,7.83,0,0,0,2.13,1.48A17.68,17.68,0,0,0,39,40.77,9.12,9.12,0,0,0,44,40.22a49.34,49.34,0,0,0,6.13-3.06,72.51,72.51,0,0,1,7.25-3.68l.44-.19c-.08.14-.12.23-.17.31-1.44,2-2.87,4.09-4.32,6.13a1.44,1.44,0,0,1-.47.41c-3.11,1.8-6.19,3.66-9.17,5.68A53.2,53.2,0,0,0,35,53.13a30.48,30.48,0,0,0-5.16,7.12,19.92,19.92,0,0,0-2.11,6.81A15.73,15.73,0,0,0,32.41,80.6a25.76,25.76,0,0,0,12.06,6.82,48.36,48.36,0,0,0,6.43,1.14,89.12,89.12,0,0,0,13.37.36c2.83-.11,5.66-.34,8.47-.63.58-.06,1.14-.14,1.72-.21l.39,0,.29,1.15-.38.15L59.6,95a7.55,7.55,0,0,1-1.77.31,41.9,41.9,0,0,1-8.6.1,37.16,37.16,0,0,1-8.67-1.68,26.05,26.05,0,0,1-9.62-5.54,18.36,18.36,0,0,1-5.73-10.29,24.84,24.84,0,0,1-.35-5,34.47,34.47,0,0,1,2.65-12.83A38.91,38.91,0,0,1,30.9,54a66.31,66.31,0,0,1,5.66-7.28Z"/><path d="M36.85,4.38l5.23,3.38L38.7,13.19l-5-3.23Z"/></svg>