<svg width="12" height="12" viewBox="0 0 12 12" fill="none" xmlns="http://www.w3.org/2000/svg">
<g clip-path="url(#clip0_19670_1308)">
<path d="M10.5 0H2.75C2.28587 0 1.84075 0.184374 1.51256 0.512563C1.18437 0.840752 1 1.28587 1 1.75V10.25C1 10.7141 1.18437 11.1592 1.51256 11.4874C1.84075 11.8156 2.28587 12 2.75 12H10.5C10.6326 12 10.7598 11.9473 10.8536 11.8536C10.9473 11.7598 11 11.6326 11 11.5V0.5C11 0.367392 10.9473 0.240215 10.8536 0.146447C10.7598 0.0526784 10.6326 0 10.5 0V0ZM2.75 1H10V8.5H2.75C2.49001 8.50107 2.23362 8.56089 2 8.675V1.75C2 1.55109 2.07902 1.36032 2.21967 1.21967C2.36032 1.07902 2.55109 1 2.75 1ZM10 11H2.75C2.55109 11 2.36032 10.921 2.21967 10.7803C2.07902 10.6397 2 10.4489 2 10.25C2 10.0511 2.07902 9.86032 2.21967 9.71967C2.36032 9.57902 2.55109 9.5 2.75 9.5H10V11Z" fill="#75C091"/>
<path d="M4.5 3H7.5C7.63261 3 7.75979 2.94732 7.85355 2.85355C7.94732 2.75979 8 2.63261 8 2.5C8 2.36739 7.94732 2.24021 7.85355 2.14645C7.75979 2.05268 7.63261 2 7.5 2H4.5C4.36739 2 4.24021 2.05268 4.14645 2.14645C4.05268 2.24021 4 2.36739 4 2.5C4 2.63261 4.05268 2.75979 4.14645 2.85355C4.24021 2.94732 4.36739 3 4.5 3Z" fill="#75C091"/>
</g>
<defs>
<clipPath id="clip0_19670_1308">
<rect width="12" height="12" fill="white"/>
</clipPath>
</defs>
</svg>
