<svg width="24" height="24" viewBox="0 0 24 24" fill="none" xmlns="http://www.w3.org/2000/svg">
<g opacity="0.8">
<path d="M5.40976 11H20.9998C21.265 11 21.5193 11.1053 21.7069 11.2929C21.8944 11.4804 21.9998 11.7348 21.9998 12C21.9998 12.2652 21.8944 12.5196 21.7069 12.7071C21.5193 12.8946 21.265 13 20.9998 13H5.40976L10.7098 18.3C10.8723 18.4924 10.9563 18.7392 10.9448 18.9908C10.9333 19.2425 10.8273 19.4805 10.6479 19.6574C10.4685 19.8343 10.229 19.9369 9.97718 19.9448C9.72539 19.9527 9.47989 19.8653 9.28976 19.7L2.28976 12.7C2.10654 12.5131 2.00391 12.2617 2.00391 12C2.00391 11.7382 2.10654 11.4869 2.28976 11.3L9.28976 4.29999C9.47989 4.13471 9.72539 4.04728 9.97718 4.05518C10.229 4.06308 10.4685 4.16572 10.6479 4.34258C10.8273 4.51945 10.9333 4.75751 10.9448 5.00917C10.9563 5.26083 10.8723 5.50754 10.7098 5.69999L5.39976 11H5.40976Z" fill="white"/>
</g>
</svg>
