<svg id="Layer_1" data-name="Layer 1" xmlns="http://www.w3.org/2000/svg" viewBox="0 0 100 100"><title>CHEMISTRY</title><path d="M56.33,83.05,35.77,51.26V25.7a2,2,0,0,0-2-2H23.69a2,2,0,0,0-2,2V51.32L2.93,83.2a9.92,9.92,0,0,0,8.55,15H48.12a9.79,9.79,0,0,0,8.21-15.1ZM48.12,94.12H11.48a6,6,0,0,1-3-.81,5.88,5.88,0,0,1-2.09-8.07l19-32.36a2,2,0,0,0,.27-1V27.72h6V51.86a2,2,0,0,0,.32,1.1L53,85.24a5.76,5.76,0,0,1-4.83,8.88Z"/><path d="M30.54,60.06l-3.47-2L10,87.06a2.07,2.07,0,0,0-.28,1,2,2,0,0,0,2,2h14v-4H15.24Z"/><path d="M93.29,47.84H61.93a8,8,0,0,0-8,8V88.08A10.07,10.07,0,0,0,63.94,98.15H82.05A10.08,10.08,0,0,0,92.11,88.08V60.75l4.62-4.62a4.93,4.93,0,0,0,1.42-3.43A4.87,4.87,0,0,0,93.29,47.84Zm.59,5.45-5.21,5.2a2,2,0,0,0-.58,1.42V88.08a6,6,0,0,1-6,6H63.94a6,6,0,0,1-6-6V55.89a4,4,0,0,1,4-4H93.29a.83.83,0,0,1,.59.25A.85.85,0,0,1,93.88,53.29Z"/><path d="M80,59.91V86.07H74v4h8a2,2,0,0,0,2-2V59.91Z"/><path d="M57.9,30.7V3.57a2,2,0,0,0-2-2H41.8a2,2,0,0,0-2,2v27.7a33.94,33.94,0,0,0-7,3.08l2,3.48a30.12,30.12,0,0,1,7.55-3.08,2,2,0,0,0,1.5-2V5.58H53.88V32.33a2,2,0,0,0,1.63,2,30.25,30.25,0,0,1,17.9,10.77l3.13-2.51A34.24,34.24,0,0,0,57.9,30.7Z"/><path d="M87.08,29.73a7,7,0,1,0,7,7A7,7,0,0,0,87.08,29.73Zm0,10.06a3,3,0,1,1,3-3A3,3,0,0,1,87.08,39.79Z"/><path d="M80,15.64a6,6,0,1,0,6,6A6,6,0,0,0,80,15.64Zm0,8.05a2,2,0,1,1,2-2A2,2,0,0,1,80,23.69Z"/><path d="M8.6,17.65a7,7,0,1,0,7,7.05A7,7,0,0,0,8.6,17.65Zm0,10.07a3,3,0,1,1,3-3A3,3,0,0,1,8.6,27.72Z"/><path d="M17.66,3.57a6,6,0,1,0,6,6A6,6,0,0,0,17.66,3.57Zm0,8a2,2,0,1,1,2-2A2,2,0,0,1,17.66,11.62Z"/><rect x="61.93" y="59.91" width="6.04" height="4.02"/><rect x="61.93" y="67.96" width="4.02" height="4.02"/><rect x="61.93" y="76.01" width="6.04" height="4.02"/><rect x="61.93" y="84.06" width="4.02" height="4.02"/><rect x="5.58" y="37.78" width="4.02" height="4.02"/><rect x="11.62" y="47.84" width="4.02" height="4.02"/><rect x="45.83" y="55.89" width="4.02" height="4.02"/><rect x="41.8" y="47.84" width="4.02" height="4.02"/><rect x="39.79" y="39.79" width="4.02" height="4.02"/><rect x="41.8" y="84.06" width="4.02" height="4.02"/><rect x="35.77" y="76.01" width="4.02" height="4.02"/></svg>