<svg width="14" height="14" viewBox="0 0 14 14" fill="none" xmlns="http://www.w3.org/2000/svg">
<g id="contact_support_24px">
<path id="icon/action/contact_support_24px" fill-rule="evenodd" clip-rule="evenodd" d="M6.7085 11.4886V13.5886L7.54266 13.1861C10.5352 11.7453 12.5418 8.8403 12.5418 5.9528C12.5418 2.89613 10.0568 0.411133 7.00016 0.411133C3.9435 0.411133 1.4585 2.89613 1.4585 5.9528C1.4585 8.9103 3.786 11.337 6.7085 11.4886ZM2.62515 5.95282C2.62515 3.53782 4.58515 1.57782 7.00015 1.57782C9.41515 1.57782 11.3752 3.53782 11.3752 5.95282C11.3752 8.12282 9.99849 10.3278 7.87515 11.6695V10.3278H7.00015C4.58515 10.3278 2.62515 8.36782 2.62515 5.95282ZM6.41684 9.4528V8.28613H7.58351V9.4528H6.41684ZM7.4496 5.55711C6.96641 5.92748 6.41684 6.34872 6.41684 7.41113H7.58351C7.58351 6.77216 7.99827 6.4097 8.42395 6.0377C8.87266 5.64557 9.33351 5.24283 9.33351 4.49447C9.33351 3.2053 8.28934 2.16113 7.00017 2.16113C5.71101 2.16113 4.66684 3.2053 4.66684 4.49447H5.83351C5.83351 3.8528 6.35851 3.3278 7.00017 3.3278C7.64184 3.3278 8.16684 3.8528 8.16684 4.49447C8.16684 5.00734 7.82864 5.26657 7.4496 5.55711Z" fill="white"/>
</g>
</svg>
