<svg id="Layer_1" data-name="Layer 1" xmlns="http://www.w3.org/2000/svg" viewBox="0 0 100 100"><title>ENGLISH</title><path d="M41.44,76H38.62a4.87,4.87,0,0,0-4.87,4.87v4.93a4.87,4.87,0,0,0,4.87,4.87h2.82a3.46,3.46,0,0,0,3.46-3.46v-.71a2.06,2.06,0,0,0-4.11,0v.06H38.62a.76.76,0,0,1-.76-.76V80.89a.77.77,0,0,1,.76-.77h2.17v.06a2.06,2.06,0,1,0,4.11,0v-.7A3.46,3.46,0,0,0,41.44,76Z"/><path d="M39.32,70A13.37,13.37,0,1,0,52.69,83.35,13.38,13.38,0,0,0,39.32,70Zm9.54,13.36a9.54,9.54,0,1,1-9.54-9.53A9.55,9.55,0,0,1,48.86,83.35Z"/><path d="M73.9,46.61H69.21a2.05,2.05,0,0,0-2.06,2V66.27a2.05,2.05,0,0,0,2.06,2h7.63A7.33,7.33,0,0,0,79.16,54a5.56,5.56,0,0,0-5.26-7.42ZM80.07,61a3.23,3.23,0,0,1-3.23,3.23H71.26V57.76h5.58A3.23,3.23,0,0,1,80.07,61ZM73.9,53.65H71.26V50.71H73.9a1.47,1.47,0,0,1,0,2.94Z"/><path d="M23.35,49.73a2.07,2.07,0,0,0,2.6-1.3L29,39.27H40.13l3.06,9.16a2,2,0,0,0,2,1.4,2.1,2.1,0,0,0,.65-.1,2,2,0,0,0,1.18-1,2,2,0,0,0,.11-1.57l-3.5-10.52,0-.08L38.84,22.38a4.5,4.5,0,0,0-8.54,0L25.59,36.51s0,.07,0,.08L22.05,47.13a2.07,2.07,0,0,0,1.3,2.6Zm7-14.57L34.2,23.68h0a.39.39,0,0,1,.74,0l3.82,11.48Z"/><path d="M87.26,38.85h0A1.91,1.91,0,0,0,85,41.94,19.22,19.22,0,1,1,54.54,59.37,31.8,31.8,0,0,0,66,39.84,19.34,19.34,0,0,1,81.62,40a1.91,1.91,0,0,0,1.58-3.48,22.79,22.79,0,0,0-9.53-2.06,23,23,0,0,0-7.26,1.16c0-.34,0-.67,0-1a31.85,31.85,0,1,0-54.88,22,1.91,1.91,0,1,0,2.77-2.64,27.92,27.92,0,1,1,3.4,3,1.9,1.9,0,0,0-1.42-.37,1.94,1.94,0,0,0-1.26.74A1.92,1.92,0,0,0,15.41,60,31.85,31.85,0,0,0,51,61.83a23.05,23.05,0,1,0,36.23-23Z"/></svg>