<svg width="183" height="183" viewBox="0 0 183 183" fill="none" xmlns="http://www.w3.org/2000/svg">
<g id="sentiment_dissatisfied_24px">
<path id="icon/social/sentiment_dissatisfied_24px" fill-rule="evenodd" clip-rule="evenodd" d="M91.4238 15.25C49.3337 15.25 15.25 49.41 15.25 91.5C15.25 133.59 49.3337 167.75 91.4238 167.75C133.59 167.75 167.75 133.59 167.75 91.5C167.75 49.41 133.59 15.25 91.4238 15.25ZM64.8125 61C58.4957 61 53.375 66.1207 53.375 72.4375C53.375 78.7543 58.4957 83.875 64.8125 83.875C71.1293 83.875 76.25 78.7543 76.25 72.4375C76.25 66.1207 71.1293 61 64.8125 61ZM118.188 61C111.871 61 106.75 66.1207 106.75 72.4375C106.75 78.7543 111.871 83.875 118.188 83.875C124.504 83.875 129.625 78.7543 129.625 72.4375C129.625 66.1207 124.504 61 118.188 61ZM52.4592 133.438C58.5592 117.806 73.733 106.75 91.4992 106.75C109.265 106.75 124.439 117.806 130.539 133.438H117.805C112.468 124.364 102.784 118.188 91.4992 118.188C80.2142 118.188 70.4542 124.364 65.193 133.438H52.4592ZM30.5 91.5C30.5 125.202 57.7975 152.5 91.5 152.5C125.202 152.5 152.5 125.202 152.5 91.5C152.5 57.7975 125.202 30.5 91.5 30.5C57.7975 30.5 30.5 57.7975 30.5 91.5Z" fill="#FF3B30"/>
</g>
</svg>
