<svg width="19" height="20" viewBox="0 0 19 20" fill="none" xmlns="http://www.w3.org/2000/svg">
<g clip-path="url(#clip0)">
<path d="M10.7429 3.26958C10.731 3.48845 10.731 3.7078 10.7429 3.92667C10.7904 4.25917 10.6321 4.38583 10.3233 4.39375H8.15417H3.8475C3.2775 4.39375 3.25375 4.39375 3.25375 3.80792V3.28542C2.46208 3.28542 1.67042 3.28542 0.942083 3.28542C0.815417 3.28542 0.672917 3.52292 0.59375 3.68125C0.565583 3.81703 0.565583 3.95714 0.59375 4.09292V17.5513C0.59375 18.3904 0.64125 18.43 1.50417 18.43H10.8062C10.9135 18.4097 11.0236 18.4097 11.1308 18.43C11.2417 18.4775 11.4158 18.6042 11.4 18.6754C11.3537 18.8045 11.2642 18.9136 11.1467 18.9842C11.0754 19.0317 10.9567 18.9842 10.8617 18.9842H1.29042C0.35625 19 0 18.6754 0 17.7492V3.95833C0 3.05583 0.387917 2.68375 1.25083 2.68375C1.90792 2.68375 2.55708 2.68375 3.135 2.68375C3.25375 2.31958 3.26958 1.89208 3.47542 1.76542C3.68125 1.63875 4.10875 1.69417 4.45708 1.67042C4.45708 1.55431 4.47292 1.44347 4.50458 1.33792C4.53411 0.976587 4.69731 0.639251 4.96229 0.391836C5.22728 0.14442 5.575 0.0047067 5.9375 0C6.64208 0 7.35458 0 8.06708 0C8.90625 0 9.37333 0.554167 9.5475 1.68625C9.77708 1.68625 10.0225 1.68625 10.26 1.68625C10.6242 1.68625 10.7746 1.82875 10.7429 2.185C10.7429 2.33542 10.7429 2.48583 10.7429 2.66792H12.7458C13.6167 2.66792 13.9967 3.04792 13.9967 3.91083C13.9967 6.11958 13.9967 8.33625 13.9967 10.5529C14.017 10.6602 14.017 10.7703 13.9967 10.8775C13.9492 10.9725 13.8225 11.1071 13.7513 11.0992C13.6905 11.0852 13.6334 11.0582 13.5842 11.0199C13.535 10.9816 13.4947 10.933 13.4663 10.8775C13.4367 10.7552 13.4367 10.6277 13.4663 10.5054V4.04542C13.4663 3.36458 13.3633 3.25375 12.6746 3.25375L10.7429 3.26958ZM3.85542 3.8H10.1333V2.31167H3.85542V3.8ZM8.89833 1.67833C8.89833 1.02125 8.62125 0.625417 8.10667 0.601667C7.38625 0.601667 6.65792 0.601667 5.94542 0.601667C5.81245 0.592612 5.67935 0.617272 5.55845 0.673362C5.43755 0.729451 5.33277 0.815155 5.25382 0.922528C5.17487 1.0299 5.12431 1.15547 5.10681 1.28759C5.08932 1.41971 5.10546 1.55411 5.15375 1.67833H8.89833Z" fill="#75C091"/>
<path d="M2.75485 4.54383C2.989 4.63227 3.21005 4.75212 3.41193 4.90008C4.93193 6.333 6.45193 7.71841 7.91651 9.15925C8.22197 9.47695 8.4878 9.8305 8.70818 10.2122C9.11193 10.8297 9.49985 11.4472 9.89568 12.0805C9.92457 12.2322 9.92457 12.388 9.89568 12.5397C9.74526 12.5397 9.56318 12.5872 9.44443 12.5397C8.49443 12.0409 7.56026 11.5184 6.6261 10.9563C6.56462 10.926 6.50847 10.8859 6.45985 10.8376C4.87651 9.38091 3.3486 7.93216 1.80485 6.46758C1.63852 6.3122 1.52702 6.10711 1.48706 5.88303C1.4471 5.65895 1.48082 5.42796 1.58318 5.22466C1.68389 5.00379 1.85071 4.81964 2.0606 4.69768C2.27049 4.57571 2.51308 4.52196 2.75485 4.54383ZM3.0636 6.87925L6.68151 10.2913L7.47318 9.49966L3.81568 6.07175L3.0636 6.87925ZM3.38818 5.67591C3.07943 5.40675 2.8736 5.01091 2.42235 5.18508C2.33321 5.22709 2.25481 5.28885 2.19309 5.36566C2.13136 5.44247 2.08794 5.53233 2.0661 5.62841C2.00276 6.048 2.37485 6.22216 2.65193 6.42008L3.38818 5.67591ZM7.16443 10.6159L8.70818 11.4551C8.59927 11.1774 8.46128 10.912 8.29651 10.6634L7.8136 9.91925L7.16443 10.6159Z" fill="#75C091"/>
<path d="M15.5484 18.9994C14.5747 18.9994 13.6009 18.9994 12.6272 18.9994C12.2551 18.9994 12.0888 18.8807 12.1126 18.4927C12.1363 18.1048 12.1126 17.7723 12.1126 17.4082C12.1244 16.8658 12.3435 16.3487 12.7249 15.9629C13.1062 15.5771 13.6208 15.3521 14.163 15.334C15.0892 15.334 16.0234 15.334 16.9576 15.334C17.499 15.356 18.0117 15.5836 18.3912 15.9705C18.7707 16.3573 18.9884 16.8743 19.0001 17.4161C19.0001 17.804 19.0001 18.2077 19.0001 18.5877C19.0001 18.9677 18.8734 19.0311 18.5567 19.0311L15.5484 18.9994ZM18.4063 18.3977C18.4063 17.994 18.4063 17.6061 18.4063 17.2736C18.365 16.9112 18.1955 16.5756 17.9284 16.3273C17.6612 16.079 17.3141 15.9345 16.9497 15.9198C16.0313 15.9198 15.113 15.9198 14.1947 15.9198C13.8493 15.9281 13.5173 16.0544 13.2537 16.2776C12.9901 16.5009 12.8109 16.8077 12.7459 17.1469C12.7141 17.5659 12.7141 17.9867 12.7459 18.4057L18.4063 18.3977Z" fill="#75C091"/>
<path d="M9.11189 5.54092V8.26425H11.8194C11.7995 7.9611 11.7995 7.65698 11.8194 7.35383C11.8194 7.21925 12.0173 7.10842 12.1202 6.98967C12.2073 7.10842 12.3656 7.21925 12.3736 7.34592C12.3934 7.73622 12.3934 8.12728 12.3736 8.51758C12.3804 8.56666 12.3756 8.61666 12.3596 8.66356C12.3436 8.71045 12.3168 8.75293 12.2814 8.78759C12.2459 8.82224 12.2029 8.84809 12.1556 8.86307C12.1084 8.87805 12.0583 8.88174 12.0094 8.87383H8.84273C8.79365 8.88066 8.74365 8.87588 8.69675 8.85986C8.64986 8.84385 8.60738 8.81705 8.57272 8.78163C8.53807 8.74621 8.51222 8.70315 8.49724 8.65591C8.48226 8.60868 8.47857 8.55858 8.48648 8.50967V5.343C8.47836 5.29125 8.48259 5.23831 8.49881 5.1885C8.51504 5.13869 8.54281 5.09341 8.57985 5.05637C8.61689 5.01933 8.66216 4.99156 8.71197 4.97534C8.76178 4.95911 8.81472 4.95488 8.86648 4.963C9.91148 4.963 10.9565 4.963 12.0331 4.963C12.1598 4.963 12.2786 5.14508 12.4052 5.248C12.2786 5.343 12.1519 5.51717 12.0173 5.51717C11.2256 5.51717 10.434 5.51717 9.59481 5.51717L9.11189 5.54092Z" fill="#75C091"/>
<path d="M13.5219 13.22C13.5324 12.6804 13.7568 12.1671 14.1458 11.7929C14.5348 11.4188 15.0564 11.2145 15.596 11.225C16.1356 11.2355 16.649 11.4599 17.0231 11.8489C17.3972 12.2379 17.6015 12.7596 17.591 13.2992C17.5858 13.5663 17.5281 13.8299 17.421 14.0747C17.314 14.3196 17.1597 14.541 16.9671 14.7262C16.7745 14.9115 16.5473 15.057 16.2985 15.1544C16.0496 15.2519 15.7841 15.2994 15.5169 15.2942C15.2497 15.289 14.9861 15.2312 14.7413 15.1241C14.4964 15.0171 14.275 14.8629 14.0898 14.6703C13.9045 14.4777 13.759 14.2504 13.6616 14.0016C13.5641 13.7528 13.5167 13.4872 13.5219 13.22ZM17.0131 13.2675C17.0147 12.9794 16.9308 12.6973 16.772 12.4569C16.6133 12.2165 16.3868 12.0286 16.1212 11.9169C15.8556 11.8052 15.5629 11.7747 15.2801 11.8294C14.9972 11.8841 14.7369 12.0214 14.5321 12.224C14.3272 12.4266 14.1871 12.6854 14.1294 12.9677C14.0716 13.2499 14.0989 13.5429 14.2077 13.8097C14.3165 14.0765 14.5019 14.305 14.7406 14.4663C14.9793 14.6277 15.2604 14.7147 15.5485 14.7162C15.7404 14.7194 15.931 14.6842 16.1091 14.6127C16.2871 14.5412 16.4492 14.4349 16.5856 14.3C16.722 14.165 16.8301 14.0042 16.9035 13.8269C16.9769 13.6496 17.0142 13.4594 17.0131 13.2675Z" fill="#75C091"/>
<path d="M6.66604 14.8918H2.37521C2.28127 14.9119 2.18414 14.9119 2.09021 14.8918C1.97158 14.8185 1.86255 14.7308 1.76562 14.6305C1.8659 14.522 1.97442 14.4215 2.09021 14.3297C2.16146 14.2822 2.28021 14.3297 2.38313 14.3297H11.1785C11.4002 14.3297 11.6456 14.3693 11.5981 14.6464C11.5981 14.7572 11.321 14.9076 11.1706 14.9076C9.67438 14.8997 8.17021 14.8918 6.66604 14.8918Z" fill="#75C091"/>
<path d="M6.70521 16.3724H11.0831C11.1927 16.3488 11.306 16.3488 11.4156 16.3724C11.5106 16.4199 11.6452 16.5386 11.6373 16.6178C11.6068 16.7395 11.5301 16.8445 11.4235 16.9107C11.3365 16.9661 11.2019 16.9107 11.091 16.9107H2.37479C2.29562 16.9107 2.19271 16.9107 2.12938 16.9107C2.01143 16.8243 1.90028 16.729 1.79688 16.6257C1.89979 16.5307 1.99479 16.3961 2.11354 16.3645C2.32154 16.3447 2.53096 16.3447 2.73896 16.3645L6.70521 16.3724Z" fill="#75C091"/>
<path d="M4.26687 12.7767C3.58604 12.7767 2.90521 12.7767 2.22437 12.7767C2.08187 12.7767 1.93937 12.6026 1.79688 12.5076C1.93937 12.4126 2.07396 12.2305 2.21646 12.2305C3.56229 12.2305 4.90812 12.2305 6.25396 12.2305C6.39646 12.2305 6.53896 12.4046 6.68146 12.4996C6.54687 12.6026 6.40437 12.7767 6.26187 12.7767C5.59687 12.7926 4.93187 12.7767 4.26687 12.7767Z" fill="#75C091"/>
<path d="M10.5211 7.12445L12.1044 5.8182C12.2628 5.6757 12.4448 5.51736 12.6348 5.73903C12.8248 5.9607 12.6348 6.11111 12.4844 6.25361C11.9223 6.72861 11.3523 7.1957 10.7982 7.67861C10.5211 7.9082 10.3153 7.90028 10.1253 7.5757C9.93525 7.25111 9.72942 7.02945 9.58692 6.73653C9.5315 6.61778 9.58692 6.42778 9.64234 6.26945C9.78484 6.31695 9.96692 6.33278 10.054 6.42778C10.2278 6.64731 10.384 6.88026 10.5211 7.12445Z" fill="#75C091"/>
</g>
<defs>
<clipPath id="clip0">
<rect width="19" height="19.0396" fill="white"/>
</clipPath>
</defs>
</svg>
