<svg id="Layer_1" data-name="Layer 1" xmlns="http://www.w3.org/2000/svg" viewBox="0 0 100 100"><title>geology</title><path d="M25.73,24.82H74.27A1.74,1.74,0,0,0,76,23.07,11.79,11.79,0,0,0,64.23,11.3c-.4,0-.81,0-1.21.06a14,14,0,0,0-26,0c-.4,0-.81-.06-1.21-.06A11.79,11.79,0,0,0,24,23.07,1.74,1.74,0,0,0,25.73,24.82Zm10-10a8.34,8.34,0,0,1,2,.24,1.74,1.74,0,0,0,2.11-1.26,10.46,10.46,0,0,1,20.26,0A1.74,1.74,0,0,0,62.24,15a8.31,8.31,0,0,1,10.1,6.31H27.66A8.3,8.3,0,0,1,35.77,14.78Z"/><circle cx="30.49" cy="80.72" r="1.74"/><circle cx="26.31" cy="73.75" r="1.74"/><circle cx="76.73" cy="65.51" r="1.74"/><path d="M93.64,67.2,72.24,30.14a1.74,1.74,0,0,0-3,0l-16.72,29a1.74,1.74,0,0,0,3,1.74l3.74-6.48,4.43,3.28a1.76,1.76,0,0,0,2.07,0l5-3.67,5,3.67a1.82,1.82,0,0,0,1,.34,1.76,1.76,0,0,0,1-.34l4.44-3.28,8,13.82a44.21,44.21,0,0,1-6.73,10.54,1.74,1.74,0,0,0,1.32,2.88A1.73,1.73,0,0,0,86.09,81a47.77,47.77,0,0,0,7.64-12.22A1.75,1.75,0,0,0,93.64,67.2ZM76.73,54.06l-5-3.67a1.76,1.76,0,0,0-2.07,0l-5,3.67L61,51.31l9.71-16.82,9.72,16.82Z"/><path d="M78.71,83.45A44.07,44.07,0,0,1,9.82,68.17l8-13.82,4.43,3.28a1.77,1.77,0,0,0,2.08,0l5-3.67,5,3.67a1.76,1.76,0,0,0,1,.34,1.79,1.79,0,0,0,1-.34l4.43-3.28L60.14,88a1.74,1.74,0,0,0,3-1.74L30.77,30.14a1.74,1.74,0,0,0-3,0L6.36,67.2a1.75,1.75,0,0,0-.09,1.56A47.56,47.56,0,0,0,81,86.09a1.74,1.74,0,0,0-2.27-2.64Zm-49.44-49L39,51.31l-3.72,2.75-5-3.67a1.76,1.76,0,0,0-2.07,0l-5,3.67-3.72-2.75Z"/></svg>