<?xml version="1.0" encoding="UTF-8"?>
<svg id="Layer_1" data-name="Layer 1" xmlns="http://www.w3.org/2000/svg" viewBox="0 0 24 24">
  <path d="m22,20.33c-.49.16-.99.47-1.48.47-5.72.03-11.43.02-17.15.02-1.45,0-1.63-.51-1.08-1.86.79-1.95,2.04-2.52,4.12-2.43,4.33.19,8.66.07,13,.04.6,0,.95.17,1.24.71.4.78.9,1.51,1.36,2.27v.78Zm-.47-.21c-.52-.9-.95-1.61-1.33-2.34-.22-.42-.49-.58-.97-.58-4.85.02-9.71.01-14.56.01-.2,0-.52-.03-.59.08-.56.88-1.07,1.79-1.68,2.83h19.13Z"/>
  <path d="m11.96,15.17c-2.17,0-4.33,0-6.5,0-.78,0-.86-.13-.48-.8.5-.89,1.03-1.75,1.51-2.65.23-.43.53-.56,1-.56,2.98.02,5.95.02,8.93,0,.47,0,.77.13,1,.56.49.92,1.03,1.82,1.56,2.71.33.55.16.75-.45.75-2.19,0-4.38,0-6.58,0Zm-6.33-.68h12.66c-.5-.87-.93-1.67-1.42-2.42-.11-.17-.43-.27-.65-.27-2.84-.02-5.68-.02-8.53,0-.22,0-.54.11-.65.28-.49.76-.92,1.56-1.41,2.41Z"/>
  <path d="m16.13,9.64c-.38.05-.63.1-.88.1-2.19,0-4.39,0-6.58,0-.87,0-.95-.13-.52-.88.93-1.63,1.87-3.26,2.82-4.88.63-1.08,1.35-1.08,1.97,0,.96,1.64,1.91,3.3,2.85,4.95.1.17.17.37.33.71Zm-7.36-.58h6.39c-.98-1.69-1.9-3.29-2.83-4.89-.25-.43-.5-.42-.74,0-.92,1.6-1.85,3.2-2.82,4.89Z"/>
</svg>