<svg width="18" height="19" viewBox="0 0 18 19" fill="none" xmlns="http://www.w3.org/2000/svg">
<g clip-path="url(#clip0)">
<path d="M15.1971 19H1.79602C0.43628 18.5492 0 17.5748 0 16.1933C0.0387805 11.6996 0.0387805 7.22286 0 2.76311C0 1.3961 0.465365 0.443551 1.79602 0H15.1971C15.8661 0.312667 15.9242 0.930731 15.8661 1.57061H16.1496C17.1967 1.62151 17.4512 1.876 17.4512 2.90853C17.4512 3.94106 17.4512 4.98814 17.4512 6.03521C17.4625 7.67433 16.9784 9.27863 16.0624 10.638C15.9398 10.832 15.8719 11.0556 15.8661 11.2851C15.8661 13.4156 15.8661 15.5534 15.8661 17.6839C15.9041 17.9455 15.8603 18.2125 15.7405 18.4481C15.6207 18.6838 15.4309 18.8766 15.1971 19ZM15.1971 11.8014C14.8077 12.1661 14.4 12.5107 13.9755 12.8339C12.5212 13.8519 12.8557 13.8955 11.4378 12.8339C10.3232 12.0665 9.41991 11.0308 8.81119 9.82221C8.20247 8.61366 7.90796 7.27125 7.95484 5.91887C7.95484 4.85725 7.95484 3.79564 7.95484 2.74129C7.95484 1.91236 8.27478 1.59242 9.10371 1.59242H15.1607C15.3134 0.727134 15.2698 0.639878 14.4627 0.639878H2.55951V13.1684C2.58542 13.2906 2.58542 13.417 2.55951 13.5392C2.46944 13.6806 2.36195 13.8101 2.23957 13.9246C2.12236 13.8192 2.02183 13.6966 1.94145 13.561C1.91575 13.4216 1.91575 13.2787 1.94145 13.1393V0.727134C1.56127 0.789669 1.2183 0.992302 0.980083 1.29512C0.741869 1.59793 0.625685 1.97897 0.65442 2.36318V15.2698C0.962356 14.9924 1.32602 14.784 1.72105 14.6586C2.11607 14.5332 2.53334 14.4937 2.94489 14.5427C6.84233 14.5427 10.7325 14.5427 14.6299 14.5427H15.1898L15.1971 11.8014ZM12.703 2.1814H9.1837C8.63108 2.1814 8.56563 2.24684 8.56563 2.81401C8.56563 3.84654 8.56563 4.87179 8.56563 5.90432C8.56563 8.93647 10.0199 11.1397 12.4631 12.7467C12.5333 12.7807 12.6104 12.7985 12.6885 12.7985C12.7666 12.7985 12.8436 12.7807 12.9139 12.7467C14.9499 11.4378 16.4041 9.68542 16.7023 7.22771C16.8768 5.77344 16.7677 4.261 16.8186 2.77038C16.8186 2.31956 16.6659 2.15232 16.2151 2.15959C15.0444 2.22503 13.8737 2.1814 12.703 2.1814ZM15.1971 16.4332H2.83582C2.60314 16.4332 2.30501 16.4841 2.30501 16.1278C2.30501 15.7715 2.59587 15.8224 2.82128 15.8152H15.1898V15.2698C15.1374 15.2538 15.084 15.2417 15.0299 15.2334C10.7543 15.2334 6.47876 15.2334 2.20321 15.2334C1.78666 15.2383 1.38909 15.4084 1.09795 15.7063C0.806814 16.0043 0.645963 16.4057 0.650785 16.8222C0.655606 17.2388 0.825704 17.6364 1.12366 17.9275C1.42161 18.2186 1.82302 18.3795 2.23957 18.3747C6.39878 18.3747 10.5653 18.3747 14.7317 18.3747C15.1898 18.3747 15.248 18.2874 15.1389 17.7566H2.99579C2.85763 17.7566 2.69039 17.8002 2.58132 17.7566C2.47225 17.713 2.36318 17.5385 2.26139 17.4221C2.35178 17.3127 2.45994 17.2193 2.58132 17.1458C2.70603 17.1199 2.83472 17.1199 2.95943 17.1458H15.1971V16.4332Z" fill="#75C091"/>
<path d="M5.40964 4.44369C4.92246 4.44369 4.42801 4.44369 3.95538 4.44369C3.80995 4.44369 3.67179 4.2401 3.52637 4.13103C3.67907 4.02923 3.82449 3.84017 3.97719 3.84017C4.9467 3.81109 5.91621 3.81109 6.88573 3.84017C7.04569 3.84017 7.19112 4.02196 7.34382 4.12376C7.18385 4.2401 7.03842 4.42915 6.87118 4.45097C6.35492 4.47278 5.88228 4.44369 5.40964 4.44369Z" fill="#75C091"/>
<path d="M6.33334 5.69369C6.13033 5.71556 5.92556 5.71556 5.72255 5.69369C5.60621 5.65733 5.43896 5.50463 5.43896 5.40283C5.45195 5.33257 5.48287 5.26686 5.52874 5.21208C5.5746 5.1573 5.63385 5.1153 5.70073 5.09017C6.13896 5.06109 6.57862 5.06109 7.01684 5.09017C7.08264 5.11702 7.14088 5.15954 7.18651 5.21403C7.23213 5.26853 7.26375 5.33334 7.27861 5.40283C7.25566 5.47036 7.2175 5.53171 7.16707 5.58214C7.11663 5.63257 7.05529 5.67074 6.98776 5.69369C6.77017 5.71556 6.55093 5.71556 6.33334 5.69369Z" fill="#75C091"/>
<path d="M4.44979 3.14835C4.22977 3.17012 4.00813 3.17012 3.7881 3.14835C3.6863 3.14835 3.51906 2.95929 3.5336 2.88658C3.54815 2.81386 3.69357 2.58845 3.79537 2.58118C4.23832 2.54846 4.68308 2.54846 5.12603 2.58118C5.22055 2.58118 5.39507 2.76297 5.38052 2.84295C5.3597 2.91161 5.32226 2.97407 5.27153 3.02481C5.22079 3.07554 5.15833 3.11298 5.08967 3.1338C4.86985 3.15943 4.6478 3.15943 4.42798 3.1338L4.44979 3.14835Z" fill="#75C091"/>
<path d="M4.13027 5.69354C4.03574 5.69354 3.9194 5.69354 3.85396 5.69354C3.7298 5.5984 3.61532 5.49123 3.51221 5.37361C3.63582 5.27181 3.70126 5.09002 3.8176 5.09002C4.03291 5.0403 4.25672 5.0403 4.47202 5.09002C4.53696 5.11619 4.59464 5.1576 4.6402 5.21075C4.68576 5.26391 4.71786 5.32725 4.73379 5.39542C4.73379 5.49722 4.57382 5.6281 4.45748 5.69354C4.34114 5.75899 4.23934 5.69354 4.13027 5.69354Z" fill="#75C091"/>
<path d="M6.68968 2.55158C6.79875 2.55158 6.92964 2.50795 7.00962 2.55158C7.14037 2.63127 7.23443 2.75929 7.27139 2.90788C7.27139 2.98786 7.11869 3.14783 7.00962 3.16965C6.82596 3.21674 6.63339 3.21674 6.44973 3.16965C6.30077 3.0932 6.1656 2.99245 6.0498 2.87152C6.18069 2.76972 6.3043 2.65338 6.44246 2.56612C6.58061 2.47887 6.60243 2.56612 6.68241 2.56612L6.68968 2.55158Z" fill="#75C091"/>
<path d="M9.87453 3.48986C9.87453 4.68963 9.82363 5.81668 9.87453 6.93647C9.9646 7.90453 10.3221 8.82847 10.9071 9.60505C11.0379 9.80138 11.2488 10.0195 10.9652 10.2158C10.6816 10.4122 10.5071 10.1577 10.369 9.9468C9.61739 8.8611 9.21182 7.57342 9.20557 6.25296C9.20557 5.40949 9.20557 4.57329 9.20557 3.72981C9.20557 3.04631 9.40189 2.84998 10.0709 2.84998C11.0089 2.84998 11.9396 2.84998 12.8703 2.84998C13.1539 2.84998 13.5975 2.68274 13.5975 3.16992C13.5975 3.6571 13.1539 3.47531 12.8703 3.47531C12.0341 3.47531 11.1906 3.47531 10.3544 3.47531L9.87453 3.48986Z" fill="#75C091"/>
<path d="M16.1643 5.46026C16.2622 6.33177 16.1839 7.21407 15.9341 8.05472C15.6842 8.89538 15.268 9.67724 14.7101 10.3539C14.2083 10.9092 13.6663 11.4268 13.0886 11.9027C12.914 12.0626 12.6741 12.288 12.4414 11.9972C12.2087 11.7063 12.5069 11.5536 12.7032 11.4082C13.3994 10.9505 13.9965 10.3573 14.4587 9.66395C14.9209 8.97064 15.2388 8.19139 15.3936 7.37262C15.5235 6.14834 15.5696 4.91662 15.5317 3.68606C15.5317 3.5988 15.4081 3.51881 15.379 3.42429C15.3499 3.32976 15.27 3.07526 15.27 3.03164C15.27 2.98801 15.6408 2.84258 15.699 2.89348C15.904 3.06399 16.0534 3.29188 16.128 3.5479C16.208 4.09325 16.1643 4.65314 16.1643 5.46026Z" fill="#75C091"/>
<path d="M12.0415 7.46119L14.092 5.39613C14.1866 5.30887 14.2593 5.18526 14.3683 5.14163C14.508 5.11946 14.6504 5.11946 14.7901 5.14163C14.7901 5.3016 14.8628 5.5052 14.7901 5.59245C14.4919 5.94148 14.1575 6.25414 13.8303 6.58135L12.376 8.03562C12.3413 8.09441 12.2918 8.14314 12.2325 8.17699C12.1732 8.21084 12.1061 8.22864 12.0379 8.22864C11.9696 8.22864 11.9025 8.21084 11.8432 8.17699C11.7839 8.14314 11.7345 8.09441 11.6998 8.03562C11.5445 7.90241 11.4032 7.7538 11.278 7.59207C11.2284 7.44475 11.2086 7.28902 11.2198 7.13398C11.3839 7.11181 11.5502 7.11181 11.7143 7.13398C11.8161 7.20669 11.9034 7.33757 12.0415 7.46119Z" fill="#75C091"/>
</g>
<defs>
<clipPath id="clip0">
<rect width="17.4512" height="19" fill="white"/>
</clipPath>
</defs>
</svg>
