<svg xmlns="http://www.w3.org/2000/svg" viewBox="0 0 18.03 24"><defs><style>.cls-1{fill:#fff;}</style></defs><title>hand</title><g id="Layer_2" data-name="Layer 2"><g id="Layer_1-2" data-name="Layer 1"><path d="M4.8,13.19v-.54c0-3.6,0-7.2,0-10.81a1.67,1.67,0,0,1,1-1.67A1.76,1.76,0,0,1,7.67.38a1.34,1.34,0,0,1,.64,1.13c0,1.2,0,2.4.08,3.6v.72a2.11,2.11,0,0,1,1.8-.53,1.94,1.94,0,0,1,1.36,1.18,2.1,2.1,0,0,1,2-.33,1.91,1.91,0,0,1,1.18,1.5,7.34,7.34,0,0,1,1.51-.22A1.61,1.61,0,0,1,17.72,8.9a19.58,19.58,0,0,1,.13,2c.07,1.74.14,3.48.18,5.22a11.1,11.1,0,0,1-1.22,5.12,4.86,4.86,0,0,0-.56,2,.64.64,0,0,1-.72.7H7.18a.63.63,0,0,1-.65-.77,1.56,1.56,0,0,0-.66-1.44c-.38-.32-.7-.73-1.09-1.05a8,8,0,0,1-2.67-4.06,13.44,13.44,0,0,0-.73-1.95A12.12,12.12,0,0,0,.42,13a2,2,0,0,1,.09-2.53A1.86,1.86,0,0,1,3,10.33c.23.17.43.36.66.52a2.3,2.3,0,0,1,1,1.91c0,.15,0,.29,0,.43ZM15.12,23c.33-.87.64-1.65.91-2.45a18.35,18.35,0,0,0,.84-2.67c.49-3,0-5.93-.14-8.9A.7.7,0,0,0,16,8.37a.79.79,0,0,0-.84.65,3,3,0,0,0,0,.67c0,.45-.21.76-.65.8s-.67-.29-.69-.72c0-.6,0-1.21-.05-1.82A.88.88,0,0,0,12.85,7a.85.85,0,0,0-.88.89c0,.4,0,.8,0,1.2s-.13.79-.64.79-.64-.32-.65-.76c0-.71,0-1.43-.06-2.14a.76.76,0,0,0-.78-.75A.73.73,0,0,0,9,6.94c-.05.4-.05.8-.07,1.2,0,.61,0,1.22-.06,1.83a.62.62,0,0,1-.65.62A.73.73,0,0,1,7.45,10a1.85,1.85,0,0,1,0-.41L7.37,2c0-.62-.27-.95-.77-1s-.8.32-.81.93,0,1.39,0,2.09c0,3.38,0,6.75,0,10.13,0,.35-.12.56-.47.63a.56.56,0,0,1-.7-.38c-.21-.5-.47-1-.65-1.48A3.81,3.81,0,0,0,2.51,11.2c-.49-.38-.95-.41-1.31-.06s-.3.73,0,1.27A18.39,18.39,0,0,1,2.3,14.36a20.31,20.31,0,0,1,.86,2.29,6.36,6.36,0,0,0,2.07,3.16,16.62,16.62,0,0,1,1.28,1.24c.54.54,1.14,1.05,1,2Z"/><path class="cls-1" d="M15.12,23H7.47c.18-.92-.42-1.43-1-2a16.62,16.62,0,0,0-1.28-1.24,6.36,6.36,0,0,1-2.07-3.16,20.31,20.31,0,0,0-.86-2.29,18.39,18.39,0,0,0-1.06-1.95c-.34-.54-.38-.93,0-1.27s.82-.32,1.31.06a3.81,3.81,0,0,1,1.38,1.72c.18.51.44,1,.65,1.48a.56.56,0,0,0,.7.38c.35-.07.47-.28.47-.63,0-3.38,0-6.75,0-10.13,0-.7,0-1.39,0-2.09S6.11,1,6.6,1s.76.35.77,1l.06,7.57a1.85,1.85,0,0,0,0,.41.73.73,0,0,0,.77.64A.62.62,0,0,0,8.87,10c0-.61,0-1.22.06-1.83,0-.4,0-.8.07-1.2a.73.73,0,0,1,.82-.69A.76.76,0,0,1,10.6,7c0,.71.05,1.43.06,2.14,0,.44.16.76.65.76s.62-.37.64-.79,0-.8,0-1.2A.85.85,0,0,1,12.85,7,.88.88,0,0,1,13.7,8c0,.61,0,1.22.05,1.82,0,.43.19.78.69.72s.64-.35.65-.8a3,3,0,0,1,0-.67A.79.79,0,0,1,16,8.37a.7.7,0,0,1,.77.63c.17,3,.63,5.94.14,8.9A18.35,18.35,0,0,1,16,20.57C15.76,21.37,15.45,22.15,15.12,23Z"/></g></g></svg>