<svg id="Layer_1" data-name="Layer 1" xmlns="http://www.w3.org/2000/svg" viewBox="0 0 100 100"><title>history</title><path d="M32.84,36.19a2.42,2.42,0,0,0-.1-.36,2.68,2.68,0,0,0-.18-.33,1.61,1.61,0,0,0-.24-.28A1.37,1.37,0,0,0,32,35a1.41,1.41,0,0,0-.32-.17,1.65,1.65,0,0,0-.36-.11,1.84,1.84,0,0,0-.74,0,1.65,1.65,0,0,0-.36.11,1.73,1.73,0,0,0-.33.17,2.4,2.4,0,0,0-.52.52,2.68,2.68,0,0,0-.18.33,2.42,2.42,0,0,0-.1.36,1.73,1.73,0,0,0,0,.74,2.42,2.42,0,0,0,.1.36,2,2,0,0,0,.18.32,1.37,1.37,0,0,0,.24.29,1.61,1.61,0,0,0,.28.24,2.68,2.68,0,0,0,.33.18,2.42,2.42,0,0,0,.36.1,1.73,1.73,0,0,0,.74,0,2.42,2.42,0,0,0,.36-.1,2,2,0,0,0,.32-.18,2,2,0,0,0,.53-.53,2,2,0,0,0,.18-.32,2.42,2.42,0,0,0,.1-.36,1.73,1.73,0,0,0,0-.74Z"/><path d="M57.73,34.66H38.58a1.9,1.9,0,0,0,0,3.8H57.72a1.9,1.9,0,1,0,0-3.8Z"/><path d="M70.71,78.93H42.4a1.91,1.91,0,1,0,0,3.81H70.71a1.91,1.91,0,0,0,0-3.81Z"/><path d="M31,53.35a5.76,5.76,0,1,0,5.76,5.76A5.77,5.77,0,0,0,31,53.35Zm0,7.72a2,2,0,1,1,2-2A2,2,0,0,1,31,61.07Z"/><path d="M54.75,46.19h-28a1.9,1.9,0,0,0,0,3.8h28a1.9,1.9,0,0,0,0-3.8Z"/><path d="M70,53.36a7.92,7.92,0,0,0,1.53.14,8.19,8.19,0,0,0,5.79-2.4l19-19a8.17,8.17,0,0,0,1.76-9l-1.49-3.56a1.87,1.87,0,0,0-1-1L92,17.11a8.15,8.15,0,0,0-9,1.77l-13,13V19.16a9.53,9.53,0,0,0-9.53-9.53H10.76a9.51,9.51,0,0,0-9.42,9.48V31.38a1.91,1.91,0,0,0,1.91,1.9H17.63V80.57A9.84,9.84,0,0,0,27,90.36H73.35a9.54,9.54,0,0,0,9.36-7.71,9.2,9.2,0,0,0,.17-1.82,9.54,9.54,0,0,0-9.53-9.54H70V53.36Zm15.7-31.8a4.4,4.4,0,0,1,4.81-.94l2.84,1.19,1.19,2.84a4.37,4.37,0,0,1-1,4.8l-7.28,7.29h-5.2l5-5A1.9,1.9,0,1,0,83.43,29L65.9,46.54l-.4-2.09a4.37,4.37,0,0,1,1.21-3.92Zm-68,7.91H5.15V19.11a5.69,5.69,0,0,1,5.63-5.68h1.11a5.75,5.75,0,0,1,5.05,3,5.68,5.68,0,0,1,.69,2.73V29.47Zm2.65-14.85a9.7,9.7,0,0,0-.77-1.19H60.44a5.72,5.72,0,0,1,5.73,5.74v2.66H21.43V19.16A9.6,9.6,0,0,0,20.28,14.62Zm7,71.95a6,6,0,0,1-5.89-6V25.63H66.17V35.69L64,37.84a8.18,8.18,0,0,0-2.25,7.31l.87,4.65-7.41,7.41H42.4a1.9,1.9,0,1,0,0,3.8H56a1.9,1.9,0,0,0,1.35-.55l8-8,.84.16V71.3h-39a1.9,1.9,0,0,0,0,3.8,5.74,5.74,0,0,1,.11,11.47Zm46-11.47a5.74,5.74,0,1,1,0,11.47H34.82a9.53,9.53,0,0,0,0-11.47ZM68.59,49.23l8.68-8.69h5.21L74.6,48.42a4.41,4.41,0,0,1-3.92,1.21Z"/></svg>