<svg width="20" height="20" viewBox="0 0 20 20" fill="none" xmlns="http://www.w3.org/2000/svg">
<path d="M10 10.0003C8.89493 10.0003 7.83512 9.56134 7.05372 8.77994C6.27232 7.99854 5.83333 6.93873 5.83333 5.83366C5.83333 4.72859 6.27232 3.66878 7.05372 2.88738C7.83512 2.10598 8.89493 1.66699 10 1.66699C11.1051 1.66699 12.1649 2.10598 12.9463 2.88738C13.7277 3.66878 14.1667 4.72859 14.1667 5.83366C14.1667 6.93873 13.7277 7.99854 12.9463 8.77994C12.1649 9.56134 11.1051 10.0003 10 10.0003ZM10 8.33366C10.3283 8.33366 10.6534 8.26899 10.9567 8.14336C11.26 8.01772 11.5356 7.83357 11.7678 7.60143C11.9999 7.36928 12.1841 7.09368 12.3097 6.79037C12.4353 6.48705 12.5 6.16196 12.5 5.83366C12.5 5.50535 12.4353 5.18026 12.3097 4.87695C12.1841 4.57364 11.9999 4.29804 11.7678 4.06589C11.5356 3.83375 11.26 3.6496 10.9567 3.52396C10.6534 3.39832 10.3283 3.33366 10 3.33366C9.33696 3.33366 8.70107 3.59705 8.23223 4.06589C7.76339 4.53473 7.5 5.17062 7.5 5.83366C7.5 6.4967 7.76339 7.13259 8.23223 7.60143C8.70107 8.07027 9.33696 8.33366 10 8.33366ZM17.5 17.5003C17.5 17.7213 17.4122 17.9333 17.2559 18.0896C17.0996 18.2459 16.8877 18.3337 16.6667 18.3337C16.4457 18.3337 16.2337 18.2459 16.0774 18.0896C15.9211 17.9333 15.8333 17.7213 15.8333 17.5003V15.8337C15.8333 15.1706 15.5699 14.5347 15.1011 14.0659C14.6323 13.5971 13.9964 13.3337 13.3333 13.3337H6.66667C6.00363 13.3337 5.36774 13.5971 4.8989 14.0659C4.43006 14.5347 4.16667 15.1706 4.16667 15.8337V17.5003C4.16667 17.7213 4.07887 17.9333 3.92259 18.0896C3.76631 18.2459 3.55435 18.3337 3.33333 18.3337C3.11232 18.3337 2.90036 18.2459 2.74408 18.0896C2.5878 17.9333 2.5 17.7213 2.5 17.5003V15.8337C2.5 14.7286 2.93899 13.6688 3.72039 12.8874C4.50179 12.106 5.5616 11.667 6.66667 11.667H13.3333C14.4384 11.667 15.4982 12.106 16.2796 12.8874C17.061 13.6688 17.5 14.7286 17.5 15.8337V17.5003Z" fill="#6ABB88"/>
</svg>
