<svg width="20" height="20" viewBox="0 0 20 20" fill="none" xmlns="http://www.w3.org/2000/svg">
<path d="M10.867 12.242L11.7587 10.4587C11.8483 10.2814 11.9984 10.1421 12.1817 10.0657C12.3651 9.98927 12.5697 9.98087 12.7587 10.042L17.7587 11.7087C17.9257 11.7631 18.0713 11.869 18.1746 12.0112C18.2779 12.1534 18.3335 12.3246 18.3337 12.5003V16.667C18.3337 17.109 18.1581 17.5329 17.8455 17.8455C17.5329 18.1581 17.109 18.3337 16.667 18.3337H15.0003C11.4641 18.3337 8.07272 16.9289 5.57224 14.4284C3.07175 11.9279 1.66699 8.53655 1.66699 5.00033V3.33366C1.66699 2.41699 2.41699 1.66699 3.33366 1.66699H7.50033C7.67503 1.66654 7.84546 1.72101 7.98752 1.8227C8.12958 1.92438 8.23609 2.06814 8.29199 2.23366L9.95866 7.23366C10.022 7.42375 10.0148 7.63031 9.93828 7.81549C9.86175 8.00068 9.72107 8.15209 9.54199 8.24199L7.75033 9.13366C8.49119 10.4281 9.56426 11.5011 10.8587 12.242H10.867ZM6.90033 3.33366H3.33366V5.00033C3.33366 8.09452 4.56282 11.062 6.75075 13.2499C8.93867 15.4378 11.9061 16.667 15.0003 16.667H16.667V13.1003L12.917 11.8503L11.9837 13.7337C11.8868 13.9244 11.7203 14.0706 11.5186 14.1419C11.317 14.2133 11.0956 14.2044 10.9003 14.117C8.67441 13.1136 6.89078 11.3329 5.88366 9.10866C5.7963 8.9134 5.78737 8.69202 5.85873 8.49035C5.93009 8.28869 6.07626 8.12219 6.26699 8.02533L8.15033 7.07533L6.90033 3.33366Z" fill="#6ABB88"/>
</svg>
