<svg width="20" height="20" viewBox="0 0 20 20" fill="none" xmlns="http://www.w3.org/2000/svg">
<path d="M14.1667 3.33366H15.8333C16.2754 3.33366 16.6993 3.50925 17.0118 3.82181C17.3244 4.13437 17.5 4.5583 17.5 5.00033V16.667C17.5 17.109 17.3244 17.5329 17.0118 17.8455C16.6993 18.1581 16.2754 18.3337 15.8333 18.3337H4.16667C3.72464 18.3337 3.30072 18.1581 2.98816 17.8455C2.67559 17.5329 2.5 17.109 2.5 16.667V5.00033C2.5 4.08366 3.25 3.33366 4.16667 3.33366H5.83333V2.50033C5.83333 2.27931 5.92113 2.06735 6.07741 1.91107C6.23369 1.75479 6.44565 1.66699 6.66667 1.66699C6.88768 1.66699 7.09964 1.75479 7.25592 1.91107C7.4122 2.06735 7.5 2.27931 7.5 2.50033V3.33366H12.5V2.50033C12.5 2.27931 12.5878 2.06735 12.7441 1.91107C12.9004 1.75479 13.1123 1.66699 13.3333 1.66699C13.5543 1.66699 13.7663 1.75479 13.9226 1.91107C14.0789 2.06735 14.1667 2.27931 14.1667 2.50033V3.33366ZM12.5 5.00033H7.5V5.83366C7.5 6.05467 7.4122 6.26663 7.25592 6.42291C7.09964 6.5792 6.88768 6.66699 6.66667 6.66699C6.44565 6.66699 6.23369 6.5792 6.07741 6.42291C5.92113 6.26663 5.83333 6.05467 5.83333 5.83366V5.00033H4.16667V8.33366H15.8333V5.00033H14.1667V5.83366C14.1667 6.05467 14.0789 6.26663 13.9226 6.42291C13.7663 6.5792 13.5543 6.66699 13.3333 6.66699C13.1123 6.66699 12.9004 6.5792 12.7441 6.42291C12.5878 6.26663 12.5 6.05467 12.5 5.83366V5.00033ZM15.8333 10.0003H4.16667V16.667H15.8333V10.0003Z" fill="#6ABB88"/>
</svg>
