<svg width="18" height="18" viewBox="0 0 18 18" fill="none" xmlns="http://www.w3.org/2000/svg">
<g opacity="0.8">
<path d="M4.725 9.225L12.225 1.725C12.3652 1.58758 12.5537 1.51061 12.75 1.51061C12.9463 1.51061 13.1348 1.58758 13.275 1.725L16.275 4.725C16.4124 4.8652 16.4894 5.05368 16.4894 5.25C16.4894 5.44631 16.4124 5.6348 16.275 5.775L8.775 13.275C8.63653 13.4163 8.44783 13.4972 8.25 13.5H5.25C5.05109 13.5 4.86032 13.421 4.71967 13.2803C4.57902 13.1397 4.5 12.9489 4.5 12.75V9.75C4.50282 9.55217 4.58369 9.36347 4.725 9.225ZM6 12H7.9425L14.6925 5.25L12.75 3.3075L6 10.0575V12ZM13.5 10.5C13.5 10.3011 13.579 10.1103 13.7197 9.96967C13.8603 9.82902 14.0511 9.75 14.25 9.75C14.4489 9.75 14.6397 9.82902 14.7803 9.96967C14.921 10.1103 15 10.3011 15 10.5V15C15 15.3978 14.842 15.7794 14.5607 16.0607C14.2794 16.342 13.8978 16.5 13.5 16.5H3C2.60218 16.5 2.22064 16.342 1.93934 16.0607C1.65804 15.7794 1.5 15.3978 1.5 15V4.5C1.5 3.675 2.175 3 3 3H7.5C7.69891 3 7.88968 3.07902 8.03033 3.21967C8.17098 3.36032 8.25 3.55109 8.25 3.75C8.25 3.94891 8.17098 4.13968 8.03033 4.28033C7.88968 4.42098 7.69891 4.5 7.5 4.5H3V15H13.5V10.5Z" fill="#7AC08B"/>
</g>
</svg>
