<svg width="24" height="24" viewBox="0 0 24 24" fill="none" xmlns="http://www.w3.org/2000/svg">
<path d="M13 19.9998V14.9998H11V19.9998C11 20.5302 10.7893 21.0389 10.4142 21.414C10.0392 21.789 9.53044 21.9998 9.00001 21.9998H6.00001C5.46958 21.9998 4.96087 21.789 4.5858 21.414C4.21072 21.0389 4.00001 20.5302 4.00001 19.9998V12.4098L3.70001 12.7098C3.60961 12.8138 3.49869 12.8979 3.37421 12.957C3.24973 13.0161 3.11439 13.0489 2.97666 13.0532C2.83893 13.0575 2.7018 13.0333 2.57386 12.9821C2.44593 12.931 2.32995 12.8539 2.23321 12.7558C2.13647 12.6576 2.06105 12.5406 2.01168 12.4119C1.96232 12.2833 1.94008 12.1458 1.94635 12.0082C1.95262 11.8705 1.98727 11.7356 2.04813 11.612C2.10899 11.4884 2.19475 11.3787 2.30001 11.2898L11.3 2.28976C11.4869 2.10654 11.7383 2.00391 12 2.00391C12.2618 2.00391 12.5131 2.10654 12.7 2.28976L21.7 11.2898C21.8653 11.4799 21.9527 11.7254 21.9448 11.9772C21.9369 12.229 21.8343 12.4685 21.6574 12.6479C21.4805 12.8273 21.2425 12.9333 20.9908 12.9448C20.7392 12.9563 20.4925 12.8723 20.3 12.7098L20 12.4098V19.9998C20 20.5302 19.7893 21.0389 19.4142 21.414C19.0392 21.789 18.5304 21.9998 18 21.9998H15C14.4696 21.9998 13.9609 21.789 13.5858 21.414C13.2107 21.0389 13 20.5302 13 19.9998ZM18 19.9998V10.4098L12 4.40976L6.00001 10.4098V19.9998H9.00001V14.9998C9.00001 13.8998 9.90001 12.9998 11 12.9998H13C13.5304 12.9998 14.0392 13.2105 14.4142 13.5856C14.7893 13.9606 15 14.4693 15 14.9998V19.9998H18Z" fill="white"/>
</svg>
