<svg width="114" height="114" viewBox="0 0 114 114" fill="none" xmlns="http://www.w3.org/2000/svg">
<path fill-rule="evenodd" clip-rule="evenodd" d="M56.943 0.333008C25.663 0.333008 0.333008 25.7197 0.333008 56.9997C0.333008 88.2797 25.663 113.666 56.943 113.666C88.2797 113.666 113.666 88.2797 113.666 56.9997C113.666 25.7197 88.2797 0.333008 56.943 0.333008ZM28.6663 42.833C28.6663 38.1386 32.4719 34.333 37.1663 34.333C41.8608 34.333 45.6663 38.1386 45.6663 42.833C45.6663 47.5274 41.8608 51.333 37.1663 51.333C32.4719 51.333 28.6663 47.5274 28.6663 42.833ZM76.833 34.333C72.1386 34.333 68.333 38.1386 68.333 42.833C68.333 47.5274 72.1386 51.333 76.833 51.333C81.5274 51.333 85.333 47.5274 85.333 42.833C85.333 38.1386 81.5274 34.333 76.833 34.333ZM39.9997 76.833V68.333H73.9997V76.833H39.9997ZM11.6663 56.9997C11.6663 82.0463 31.953 102.333 56.9997 102.333C82.0463 102.333 102.333 82.0463 102.333 56.9997C102.333 31.953 82.0463 11.6663 56.9997 11.6663C31.953 11.6663 11.6663 31.953 11.6663 56.9997Z" fill="#FFCC00"/>
</svg>
