<svg width="26" height="25" viewBox="0 0 26 25" fill="none" xmlns="http://www.w3.org/2000/svg">
<g id="textsms_24px">
<g id="liveclass 1" clip-path="url(#clip0_18083_950)">
<g id="Layer 2">
<g id="Layer 1">
<path id="Vector" d="M25.0666 13.6101H25.3152C25.3877 13.6042 25.4606 13.6141 25.5289 13.639C25.5973 13.6639 25.6595 13.7033 25.7114 13.7545C25.7633 13.8058 25.8036 13.8676 25.8296 13.9358C25.8557 14.0041 25.8668 14.0772 25.8623 14.1501V14.6001C25.8623 15.0001 25.6733 15.1901 25.2754 15.1901H8.36562V13.6201H17.109V12.8701C17.1 12.7549 17.116 12.6391 17.1558 12.5306C17.1956 12.4222 17.2583 12.3237 17.3396 12.242C17.4209 12.1603 17.5189 12.0972 17.6267 12.0572C17.7346 12.0172 17.8498 12.0011 17.9644 12.0101H20.2323C20.3449 12.0026 20.4577 12.0195 20.5631 12.0597C20.6685 12.0999 20.7641 12.1624 20.8434 12.2431C20.9227 12.3237 20.9837 12.4206 21.0225 12.527C21.0612 12.6335 21.0767 12.7471 21.0679 12.8601C21.0679 13.1001 21.0679 13.3401 21.0679 13.5901H23.475V2.15012C23.475 1.70012 23.3557 1.58012 22.8981 1.58012H6.51549C6.07782 1.58012 5.95846 1.70012 5.95846 2.14012V4.00012H4.38684V3.63012C4.38684 2.97012 4.38684 2.31012 4.38684 1.63012C4.37967 1.41155 4.41771 1.19387 4.49855 0.990852C4.57939 0.787832 4.70127 0.603894 4.85648 0.450678C5.01169 0.297462 5.19684 0.178305 5.40023 0.100749C5.60361 0.0231927 5.8208 -0.011074 6.03803 0.000117339H23.4054C23.6279 -0.0100483 23.8501 0.0268654 24.0576 0.10847C24.265 0.190075 24.4531 0.314553 24.6097 0.473852C24.7663 0.63315 24.8878 0.82372 24.9665 1.03323C25.0452 1.24274 25.0793 1.46653 25.0666 1.69012V13.6101Z" fill="#0DB2B2"/>
<path id="Vector_2" d="M3.57107 16.81C3.40197 16.81 3.25277 16.81 3.11351 16.75C2.79906 16.6958 2.51381 16.5315 2.30813 16.2863C2.10246 16.0411 1.9896 15.7307 1.98951 15.41C1.98951 14 1.98951 12.62 1.98951 11.23C1.97597 11.0111 2.00939 10.7919 2.0875 10.5872C2.16561 10.3824 2.28659 10.1969 2.44224 10.0433C2.59789 9.88967 2.78456 9.77147 2.98962 9.69671C3.19468 9.62195 3.41333 9.59238 3.63075 9.61C4.72492 9.61 5.82903 9.61 6.93314 9.61C7.27328 9.59033 7.60856 9.51954 7.92784 9.4C8.06338 9.38911 8.19526 9.35039 8.31533 9.28625C8.43541 9.2221 8.54112 9.13388 8.62595 9.02704C8.71078 8.92021 8.77292 8.79702 8.80854 8.66509C8.84415 8.53316 8.85248 8.3953 8.83301 8.26001C8.86328 7.64611 8.93305 7.03483 9.04189 6.43001C9.04748 6.3082 9.07848 6.18893 9.13287 6.07994C9.18727 5.97095 9.26385 5.87467 9.35764 5.79735C9.45143 5.72004 9.56034 5.6634 9.6773 5.63113C9.79427 5.59885 9.91668 5.59166 10.0366 5.61001C10.271 5.63999 10.4841 5.76195 10.6295 5.94928C10.7748 6.13661 10.8406 6.37412 10.8125 6.61001C10.6732 7.61001 10.5439 8.61 10.4245 9.61C10.417 9.79855 10.3532 9.98046 10.2414 10.1321C10.1297 10.2837 9.97511 10.3979 9.79786 10.46L7.95768 11.2C7.88935 11.2164 7.82895 11.2564 7.78711 11.3131C7.74526 11.3698 7.72465 11.4395 7.7289 11.51C7.62943 13.6 7.51006 15.7 7.40065 17.8C7.40065 18.91 7.29123 20.03 7.2415 21.14C7.25943 21.3112 7.23857 21.4843 7.18047 21.6462C7.12238 21.8081 7.02855 21.9548 6.90604 22.075C6.78354 22.1953 6.63552 22.2861 6.47311 22.3407C6.3107 22.3952 6.13811 22.4121 5.96829 22.39H5.16258C5.00954 22.3968 4.85672 22.3723 4.71335 22.318C4.56998 22.2638 4.43903 22.1809 4.32841 22.0743C4.21779 21.9678 4.12979 21.8398 4.06971 21.6981C4.00964 21.5565 3.97875 21.404 3.9789 21.25C3.86948 19.85 3.74017 18.44 3.61086 17.04C3.60567 16.9621 3.59234 16.8851 3.57107 16.81Z" fill="#0DB2B2"/>
<path id="Vector_3" d="M20.8289 23.08H13.7169C13.5926 22.6174 13.6478 22.1246 13.8712 21.7013C14.0947 21.278 14.4697 20.9559 14.9205 20.8C15.1051 20.7483 15.2957 20.7214 15.4874 20.72H18.9888C19.23 20.7117 19.4705 20.7533 19.6951 20.8423C19.9197 20.9313 20.1237 21.0658 20.2944 21.2374C20.4651 21.409 20.5989 21.6141 20.6875 21.84C20.776 22.0658 20.8174 22.3075 20.809 22.55C20.8886 22.72 20.8289 22.89 20.8289 23.08Z" fill="#0DB2B2"/>
<path id="Vector_4" d="M19.2376 17.9001C19.2376 18.2957 19.1209 18.6824 18.9023 19.0113C18.6837 19.3402 18.373 19.5965 18.0095 19.7479C17.646 19.8993 17.246 19.9389 16.8601 19.8617C16.4742 19.7845 16.1197 19.5941 15.8415 19.3144C15.5632 19.0347 15.3738 18.6783 15.297 18.2903C15.2203 17.9024 15.2597 17.5002 15.4102 17.1348C15.5608 16.7693 15.8158 16.457 16.1429 16.2372C16.4701 16.0174 16.8547 15.9001 17.2482 15.9001C17.7758 15.9001 18.2818 16.1109 18.6549 16.4859C19.028 16.861 19.2376 17.3697 19.2376 17.9001Z" fill="#0DB2B2"/>
<path id="Vector_5" d="M7.54983 6.80005C7.54983 7.06269 7.49837 7.32276 7.39839 7.56542C7.29842 7.80807 7.15188 8.02854 6.96715 8.21426C6.78241 8.39998 6.56311 8.5473 6.32174 8.64781C6.08038 8.74832 5.82169 8.80005 5.56044 8.80005C5.03282 8.80005 4.52681 8.58933 4.15372 8.21426C3.78064 7.83919 3.57104 7.33048 3.57104 6.80005C3.57104 6.26962 3.78064 5.76091 4.15372 5.38584C4.52681 5.01076 5.03282 4.80005 5.56044 4.80005C6.08805 4.80005 6.59406 5.01076 6.96715 5.38584C7.34023 5.76091 7.54983 6.26962 7.54983 6.80005Z" fill="#0DB2B2"/>
<path id="Vector_6" d="M15.5473 3.20019H21.5155C21.6448 3.20019 21.8537 3.20019 21.8736 3.32019C21.923 3.50354 21.923 3.69683 21.8736 3.88019C21.8736 3.88019 21.6746 3.97019 21.5752 3.97019H9.50952C9.18127 3.97019 9.16138 3.97019 9.16138 3.59019C9.16138 3.21019 9.16138 3.19019 9.49957 3.19019L15.5473 3.20019Z" fill="#0DB2B2"/>
<path id="Vector_7" d="M17.0889 5.58006H12.7123C12.5929 5.58006 12.394 5.52006 12.3741 5.46006C12.3444 5.26788 12.3444 5.07224 12.3741 4.88006C12.3741 4.88006 12.5133 4.81006 12.5929 4.81006H21.5452C21.7739 4.81006 21.8734 4.90006 21.8535 5.12006C21.8436 5.16956 21.8436 5.22056 21.8535 5.27006C21.8535 5.51006 21.7739 5.60006 21.5352 5.60006H17.0591L17.0889 5.58006Z" fill="#0DB2B2"/>
<path id="Vector_8" d="M17.1388 6.41014H21.5155C21.6348 6.41014 21.8338 6.47014 21.8437 6.53014C21.8834 6.72141 21.8834 6.91886 21.8437 7.11014C21.8437 7.11014 21.6547 7.18014 21.5552 7.18014H12.603C12.4041 7.18014 12.3145 7.09014 12.3245 6.89014C12.3294 6.82356 12.3294 6.75671 12.3245 6.69014C12.3245 6.48014 12.4041 6.39014 12.6129 6.39014H17.1189L17.1388 6.41014Z" fill="#0DB2B2"/>
</g>
</g>
</g>
</g>
<defs>
<clipPath id="clip0_18083_950">
<rect width="23.8727" height="23.08" fill="white" transform="translate(1.9895)"/>
</clipPath>
</defs>
</svg>
