<svg width="26" height="25" viewBox="0 0 26 25" fill="none" xmlns="http://www.w3.org/2000/svg">
<g id="textsms_24px">
<g id="liveclass 1" clip-path="url(#clip0)">
<g id="Layer 2">
<g id="Layer 1">
<path id="Vector" d="M25.2 13.61H25.45C25.5229 13.6041 25.5962 13.614 25.6649 13.6389C25.7336 13.6638 25.7962 13.7032 25.8483 13.7544C25.9005 13.8056 25.941 13.8675 25.9672 13.9357C25.9934 14.004 26.0046 14.077 26 14.15V14.6C26 15 25.81 15.19 25.41 15.19H8.41004V13.62H17.2V12.87C17.191 12.7548 17.2071 12.6389 17.2471 12.5305C17.2871 12.4221 17.3502 12.3236 17.4319 12.2419C17.5136 12.1601 17.6121 12.0971 17.7206 12.0571C17.829 12.017 17.9448 12.001 18.06 12.01H20.34C20.4532 12.0025 20.5666 12.0194 20.6726 12.0596C20.7786 12.0998 20.8747 12.1623 20.9544 12.243C21.0341 12.3236 21.0954 12.4204 21.1344 12.5269C21.1733 12.6334 21.1889 12.747 21.18 12.86C21.18 13.1 21.18 13.34 21.18 13.59H23.6V2.15C23.6 1.7 23.48 1.58 23.02 1.58H6.55004C6.11004 1.58 5.99004 1.7 5.99004 2.14V4H4.41004V3.63C4.41004 2.97 4.41004 2.31 4.41004 1.63C4.40283 1.41143 4.44107 1.19375 4.52235 0.99073C4.60362 0.78771 4.72615 0.603771 4.88218 0.450556C5.03822 0.29734 5.22436 0.178183 5.42883 0.100627C5.6333 0.0230707 5.85164 -0.0111961 6.07004 -4.73089e-06H23.53C23.7538 -0.0101704 23.9771 0.0267433 24.1857 0.108348C24.3942 0.189953 24.5833 0.314431 24.7407 0.473729C24.8982 0.633028 25.0204 0.823598 25.0995 1.03311C25.1786 1.24262 25.2129 1.46641 25.2 1.69V13.61Z" fill="#12B25A"/>
<path id="Vector_2" d="M3.59002 16.81C3.42002 16.81 3.27002 16.81 3.13002 16.75C2.8139 16.6958 2.52712 16.5315 2.32034 16.2863C2.11357 16.0411 2.00012 15.7307 2.00002 15.41C2.00002 14 2.00002 12.62 2.00002 11.23C1.98641 11.0111 2.02001 10.7919 2.09854 10.5872C2.17707 10.3824 2.29869 10.1969 2.45517 10.0433C2.61164 9.88967 2.79932 9.77147 3.00547 9.69671C3.21162 9.62195 3.43144 9.59238 3.65002 9.61C4.75002 9.61 5.86002 9.61 6.97002 9.61C7.31197 9.59033 7.64904 9.51954 7.97002 9.4C8.10628 9.38911 8.23887 9.35039 8.35958 9.28625C8.4803 9.2221 8.58658 9.13388 8.67186 9.02704C8.75714 8.92021 8.81961 8.79702 8.85542 8.66509C8.89122 8.53316 8.89959 8.3953 8.88002 8.26001C8.91045 7.64611 8.9806 7.03483 9.09002 6.43001C9.09564 6.3082 9.1268 6.18893 9.18149 6.07994C9.23617 5.97095 9.31315 5.87467 9.40745 5.79735C9.50174 5.72004 9.61123 5.6634 9.72882 5.63113C9.84641 5.59885 9.96947 5.59166 10.09 5.61001C10.3257 5.63999 10.54 5.76195 10.6861 5.94928C10.8322 6.13661 10.8983 6.37412 10.87 6.61001C10.73 7.61001 10.6 8.61 10.48 9.61C10.4725 9.79855 10.4083 9.98046 10.296 10.1321C10.1836 10.2837 10.0282 10.3979 9.85002 10.46L8.00002 11.2C7.93133 11.2164 7.87061 11.2564 7.82854 11.3131C7.78647 11.3698 7.76575 11.4395 7.77002 11.51C7.67002 13.6 7.55002 15.7 7.44002 17.8C7.44002 18.91 7.33002 20.03 7.28002 21.14C7.29805 21.3112 7.27708 21.4843 7.21867 21.6462C7.16027 21.8081 7.06594 21.9548 6.94278 22.075C6.81962 22.1953 6.67081 22.2861 6.50754 22.3407C6.34426 22.3952 6.17075 22.4121 6.00002 22.39H5.19002C5.03616 22.3968 4.88252 22.3723 4.73839 22.318C4.59426 22.2638 4.46261 22.1809 4.3514 22.0743C4.24019 21.9678 4.15171 21.8398 4.09132 21.6981C4.03093 21.5565 3.99987 21.404 4.00002 21.25C3.89002 19.85 3.76002 18.44 3.63002 17.04C3.62481 16.9621 3.6114 16.8851 3.59002 16.81Z" fill="#12B25A"/>
<path id="Vector_3" d="M20.94 23.08H13.79C13.665 22.6174 13.7205 22.1245 13.9451 21.7013C14.1698 21.278 14.5468 20.9558 15 20.8C15.1856 20.7482 15.3773 20.7213 15.57 20.72H19.09C19.3325 20.7116 19.5743 20.7532 19.8001 20.8422C20.0259 20.9312 20.231 21.0657 20.4026 21.2374C20.5742 21.409 20.7087 21.6141 20.7977 21.8399C20.8867 22.0657 20.9283 22.3074 20.92 22.55C21 22.72 20.94 22.89 20.94 23.08Z" fill="#12B25A"/>
<path id="Vector_4" d="M19.34 17.9C19.34 18.2956 19.2227 18.6823 19.0029 19.0112C18.7831 19.3401 18.4708 19.5964 18.1053 19.7478C17.7399 19.8992 17.3377 19.9388 16.9498 19.8616C16.5618 19.7844 16.2055 19.5939 15.9258 19.3142C15.646 19.0345 15.4556 18.6782 15.3784 18.2902C15.3012 17.9022 15.3408 17.5001 15.4922 17.1347C15.6436 16.7692 15.8999 16.4568 16.2288 16.2371C16.5577 16.0173 16.9444 15.9 17.34 15.9C17.8704 15.9 18.3791 16.1107 18.7542 16.4858C19.1293 16.8609 19.34 17.3696 19.34 17.9Z" fill="#12B25A"/>
<path id="Vector_5" d="M7.58997 6.79999C7.58997 7.06263 7.53823 7.3227 7.43772 7.56535C7.33722 7.80801 7.1899 8.02848 7.00418 8.2142C6.81846 8.39992 6.59798 8.54724 6.35533 8.64775C6.11268 8.74826 5.85261 8.79999 5.58997 8.79999C5.05953 8.79999 4.55082 8.58927 4.17575 8.2142C3.80068 7.83913 3.58997 7.33042 3.58997 6.79999C3.58997 6.26955 3.80068 5.76085 4.17575 5.38577C4.55082 5.0107 5.05953 4.79999 5.58997 4.79999C6.1204 4.79999 6.62911 5.0107 7.00418 5.38577C7.37925 5.76085 7.58997 6.26955 7.58997 6.79999Z" fill="#12B25A"/>
<path id="Vector_6" d="M15.63 3.2H21.63C21.76 3.2 21.97 3.2 21.99 3.32C22.0397 3.50336 22.0397 3.69665 21.99 3.88C21.99 3.88 21.79 3.97 21.69 3.97H9.55996C9.22996 3.97 9.20996 3.97 9.20996 3.59C9.20996 3.21 9.20996 3.19 9.54996 3.19L15.63 3.2Z" fill="#12B25A"/>
<path id="Vector_7" d="M17.18 5.58H12.78C12.66 5.58 12.46 5.52 12.44 5.46C12.4101 5.26782 12.4101 5.07218 12.44 4.88C12.44 4.88 12.58 4.81 12.66 4.81H21.66C21.89 4.81 21.99 4.9 21.97 5.12C21.96 5.1695 21.96 5.22049 21.97 5.27C21.97 5.51 21.89 5.6 21.65 5.6H17.15L17.18 5.58Z" fill="#12B25A"/>
<path id="Vector_8" d="M17.23 6.41001H21.63C21.75 6.41001 21.95 6.47001 21.96 6.53001C21.9999 6.72129 21.9999 6.91874 21.96 7.11001C21.96 7.11001 21.77 7.18001 21.67 7.18001H12.67C12.47 7.18001 12.38 7.09001 12.39 6.89001C12.395 6.82344 12.395 6.75659 12.39 6.69001C12.39 6.48001 12.47 6.39001 12.68 6.39001H17.21L17.23 6.41001Z" fill="#12B25A"/>
</g>
</g>
</g>
</g>
<defs>
<clipPath id="clip0">
<rect width="24" height="23.08" fill="white" transform="translate(2)"/>
</clipPath>
</defs>
</svg>
