<svg width="60" height="66" viewBox="0 0 60 66" fill="none" xmlns="http://www.w3.org/2000/svg">
<path d="M45 22H42.5V16.5C42.5 8.91 36.9 2.75 30 2.75C23.1 2.75 17.5 8.91 17.5 16.5V22H15C12.25 22 10 24.475 10 27.5V55C10 58.025 12.25 60.5 15 60.5H45C47.75 60.5 50 58.025 50 55V27.5C50 24.475 47.75 22 45 22ZM22.5 16.5C22.5 11.935 25.85 8.25 30 8.25C34.15 8.25 37.5 11.935 37.5 16.5V22H22.5V16.5ZM45 55H15V27.5H45V55ZM30 46.75C32.75 46.75 35 44.275 35 41.25C35 38.225 32.75 35.75 30 35.75C27.25 35.75 25 38.225 25 41.25C25 44.275 27.25 46.75 30 46.75Z" fill="black"/>
</svg>
