<svg id="Layer_1" data-name="Layer 1" xmlns="http://www.w3.org/2000/svg" viewBox="0 0 100 100"><title>MATHS</title><path d="M50.5,39.58a4.68,4.68,0,1,0,4.68,4.68A4.69,4.69,0,0,0,50.5,39.58Zm0,6.24a1.56,1.56,0,1,1,1.56-1.56A1.56,1.56,0,0,1,50.5,45.82Z"/><path d="M98.85,50.5a48.35,48.35,0,0,0-96.7,0v1.56h32.7L24.34,78.92A5.44,5.44,0,0,0,24,80.83v.29a5.25,5.25,0,0,0,3.12,4.79v5.14h3.12V86.27A5.28,5.28,0,0,0,34.15,83L44.82,55l.13.21H56l.05-.07,5.59,17.23h-.26V81.7h6.24v4.68l2.75,9.84a3.62,3.62,0,0,0,7,0l2.7-9.42,0-5.1h6.26V72.34H80.14v-7.8a4.69,4.69,0,0,0-4.68-4.68H72.34a4.67,4.67,0,0,0-3.56,1.67l-3.14-9.47H98.85ZM31.23,81.88a2.13,2.13,0,0,1-4.13-.76v-.29a2,2,0,0,1,.15-.77l12.8-32.72,2.7,4.31ZM54.31,52.06H46.69l-6.88-11,2.3-4.6H58.89l2.3,4.6ZM47.38,33.34V24h6.24v9.36Zm27,62a.53.53,0,0,1-1,0l-2.12-7.43h5.22ZM77,84.82H70.78V81.7H77ZM70.78,64.54A1.56,1.56,0,0,1,72.34,63h3.12A1.56,1.56,0,0,1,77,64.54V66.1H70.78Zm0,4.68H77v3.12H70.78Zm12.48,6.24v3.12H64.54V75.46Zm-15.6-7.39v4.27H65L58.25,51.65l2.6-4.15Zm-3-19.13L63,44.06l1.77-2.83-.83-1.65h5.28V36.46H62.38l-1.56-3.12H56.74V20.86H44.26V33.34H40.18l-1.56,3.12H20.91a32.75,32.75,0,0,1,59.18,0H72.34v3.12H84.75l-.83-2.13a35.88,35.88,0,0,0-66.84,0l-.83,2.13H37.06l-.82,1.65L38,44l-1.91,4.9H5.29a45.24,45.24,0,0,1,90.42,0Z"/></svg>