<svg width="24" height="24" viewBox="0 0 24 24" fill="none" xmlns="http://www.w3.org/2000/svg">
<path d="M3.11111 4H20.8889C21.1836 4 21.4662 4.11706 21.6746 4.32544C21.8829 4.53381 22 4.81643 22 5.11111C22 5.4058 21.8829 5.68841 21.6746 5.89679C21.4662 6.10516 21.1836 6.22222 20.8889 6.22222H3.11111C2.81643 6.22222 2.53381 6.10516 2.32544 5.89679C2.11706 5.68841 2 5.4058 2 5.11111C2 4.81643 2.11706 4.53381 2.32544 4.32544C2.53381 4.11706 2.81643 4 3.11111 4ZM3.11111 10.6667H20.8889C21.1836 10.6667 21.4662 10.7837 21.6746 10.9921C21.8829 11.2005 22 11.4831 22 11.7778C22 12.0725 21.8829 12.3551 21.6746 12.5635C21.4662 12.7718 21.1836 12.8889 20.8889 12.8889H3.11111C2.81643 12.8889 2.53381 12.7718 2.32544 12.5635C2.11706 12.3551 2 12.0725 2 11.7778C2 11.4831 2.11706 11.2005 2.32544 10.9921C2.53381 10.7837 2.81643 10.6667 3.11111 10.6667ZM3.11111 17.3333H20.8889C21.1836 17.3333 21.4662 17.4504 21.6746 17.6588C21.8829 17.8671 22 18.1498 22 18.4444C22 18.7391 21.8829 19.0217 21.6746 19.2301C21.4662 19.4385 21.1836 19.5556 20.8889 19.5556H3.11111C2.81643 19.5556 2.53381 19.4385 2.32544 19.2301C2.11706 19.0217 2 18.7391 2 18.4444C2 18.1498 2.11706 17.8671 2.32544 17.6588C2.53381 17.4504 2.81643 17.3333 3.11111 17.3333Z" fill="#0DB2B2"/>
</svg>
