<?xml version="1.0" encoding="UTF-8"?>
<svg id="Layer_1" data-name="Layer 1" xmlns="http://www.w3.org/2000/svg" viewBox="0 0 24 24">
  <path d="m22,5.08v13.52c-.13.35-.39.46-.75.46-1.63,0-3.27,0-4.9,0-.07,0-.15,0-.23.01v1.17c.08,0,.15,0,.22,0,.5,0,1,0,1.5,0,.36,0,.62.25.62.59,0,.33-.27.58-.63.58-3.89,0-7.78,0-11.68,0-.37,0-.64-.26-.64-.59,0-.33.27-.57.63-.58.5,0,1,0,1.5,0,.07,0,.14,0,.21,0v-1.18h-.24c-1.65,0-3.29,0-4.94,0-.47,0-.7-.23-.7-.69,0-4.35,0-8.7,0-13.04,0-.45.22-.67.67-.67,1.05,0,2.11,0,3.16,0,.11,0,.23-.02.34-.06,1.82-.63,3.64-1.27,5.46-1.91.24-.08.46-.1.7-.02,1.93.65,3.87,1.3,5.81,1.94.1.03.2.05.3.05.93,0,1.86.01,2.79,0,.36,0,.62.1.76.44ZM3.18,17.86h17.64V5.82h-2.05c0,.08,0,.15,0,.22,0,1.09,0,2.17,0,3.26,0,.32-.19.56-.47.61-.37.07-.7-.21-.7-.62,0-1.01,0-2.02,0-3.03,0-.07,0-.14,0-.23-.34.11-.66.23-.98.32-.15.04-.2.11-.2.27.01.69,0,1.38,0,2.07,0,.29-.12.5-.4.61-1.24.48-2.49.95-3.73,1.44-.2.08-.39.07-.59,0-1.24-.48-2.47-.95-3.71-1.43-.28-.11-.4-.32-.4-.61,0-.72,0-1.45,0-2.17,0-.14-.04-.19-.17-.24-.43-.14-.85-.29-1.27-.44-.08-.03-.18-.04-.27-.04-.85,0-1.69,0-2.54,0-.06,0-.11,0-.17.01v12.04Zm13.09-12.62s0-.03,0-.04c-1.39-.46-2.77-.92-4.16-1.38-.07-.02-.17,0-.24.02-.58.2-1.15.4-1.73.6-.73.25-1.46.51-2.21.77.07.03.11.05.15.07,1.27.45,2.55.9,3.83,1.34.08.03.19.02.28-.01,1.09-.36,2.18-.72,3.27-1.09.28-.09.55-.18.83-.28Zm-1.03,1.58c-.09.03-.15.05-.21.07-.9.3-1.8.59-2.7.9-.23.08-.44.08-.66,0-.62-.23-1.25-.44-1.88-.66-.34-.12-.67-.23-1.02-.36v1.56s.01.01.02.01c1.05.41,2.09.81,3.14,1.21.05.02.12.01.17,0,1.01-.39,2.03-.78,3.04-1.17.05-.02.1-.1.1-.15,0-.46,0-.92,0-1.41Zm-.31,12.24h-5.86v1.15h5.86v-1.15Z"/>
  <path d="m14.36,13.75c-1.55,0-3.1,0-4.65,0-.25,0-.45-.08-.57-.3-.21-.37.03-.82.46-.87.06,0,.12,0,.18,0,3.05,0,6.11,0,9.16,0,.1,0,.2,0,.29.03.27.08.45.34.42.6-.03.29-.26.52-.56.53-.26,0-.52,0-.78,0-1.32,0-2.63,0-3.95,0Z"/>
  <path d="m14.35,16.1c-1.54,0-3.07,0-4.61,0-.41,0-.67-.22-.67-.57,0-.3.2-.55.51-.59.08-.01.16,0,.23,0,3.03,0,6.05,0,9.08,0,.04,0,.08,0,.12,0,.37,0,.64.26.64.59,0,.33-.26.57-.63.58-1.56,0-3.11,0-4.67,0Z"/>
  <path d="m6.11,16.1c-.37,0-.74,0-1.11,0-.42,0-.65-.24-.65-.66,0-.74,0-1.47,0-2.21,0-.42.24-.66.65-.66.74,0,1.48,0,2.23,0,.41,0,.64.23.65.64,0,.75,0,1.5,0,2.25,0,.41-.23.63-.65.64-.01,0-.03,0-.04,0-.36,0-.72,0-1.07,0Zm.58-2.34h-1.16v1.15h1.16v-1.15Z"/>
</svg>