<svg xmlns="http://www.w3.org/2000/svg" viewBox="0 0 24 15.36"><title>mycourse_2</title><g id="Layer_2" data-name="Layer 2"><g id="Layer_1-2" data-name="Layer 1"><path d="M22.79,13.14H1.2V1a.91.91,0,0,1,1-1H21.74a.92.92,0,0,1,1.05,1.05V13.14ZM2.4,12.27H21.34c.22,0,.26-.06.26-.27V1.62c0-.29,0-.29-.28-.29H2.67c-.28,0-.28,0-.28.29V12C2.39,12.08,2.39,12.16,2.4,12.27ZM12.27.61C12.14.53,12.05.44,12,.45s-.18.13-.17.19A.22.22,0,0,0,12,.81C12.07.82,12.15.71,12.27.61Z"/><path d="M16.32,13.56h7.36c.3,0,.28,0,.31.31a.68.68,0,0,1-.44.8c-.34.17-.65.4-1,.59a.59.59,0,0,1-.32.09H1.75a.71.71,0,0,1-.35-.1C1,15,.6,14.76.2,14.52a.35.35,0,0,1-.2-.35c0-.71-.1-.61.61-.61H7.67l0,.46h8.59Z"/><path d="M12,9.86a3,3,0,1,1,3-3A3,3,0,0,1,12,9.86ZM11,8.42l2.81-1.57L11,5.29Z"/></g></g></svg>