<svg width="30" height="30" viewBox="0 0 30 30" fill="none" xmlns="http://www.w3.org/2000/svg">
<path d="M15 2.98745C15.389 3.07865 15.7561 3.24601 16.0801 3.47987C16.404 3.71372 16.6785 4.00944 16.8875 4.34995C16.9625 4.49995 17.25 4.54995 17.4375 4.63745L18.6 5.18745L17.5 5.72495C17.1979 5.8489 16.8621 5.86432 16.5499 5.7686C16.2377 5.67288 15.9683 5.47193 15.7875 5.19995C15.705 4.93656 15.5376 4.70789 15.3115 4.5496C15.0854 4.39132 14.8132 4.31233 14.5375 4.32495C14.2633 4.32691 13.9963 4.4131 13.7727 4.57184C13.5491 4.73059 13.3798 4.95422 13.2875 5.21245C13.1154 5.45441 12.8629 5.62723 12.575 5.69995C11.4046 6.02741 10.3442 6.66481 9.50599 7.54486C8.66774 8.42492 8.08266 9.51497 7.8125 10.7C7.59428 12.0303 7.48974 13.3768 7.5 14.725C7.47522 15.6284 7.4001 16.5298 7.275 17.425C7.07743 18.3721 6.69258 19.2703 6.14306 20.0667C5.59354 20.8631 4.89042 21.5416 4.075 22.0625H24.8375C24.45 21.725 24.075 21.4375 23.75 21.125C23.425 20.8125 23.1375 20.45 22.8 20.075C23.225 19.9375 23.575 19.8 23.9375 19.7125C24.0886 19.7109 24.2352 19.7642 24.35 19.8625C24.8625 20.275 25.3625 20.725 25.8875 21.1125C26.105 21.2625 26.2693 21.4776 26.3569 21.7269C26.4445 21.9762 26.4508 22.2468 26.375 22.5C26.2925 22.7633 26.1251 22.992 25.899 23.1503C25.6729 23.3086 25.4007 23.3876 25.125 23.375C23.125 23.375 21.1125 23.375 19.1125 23.375C18.7 23.375 18.5125 23.4375 18.375 23.9C18.2038 24.6509 17.8127 25.3338 17.2517 25.8615C16.6906 26.3891 15.985 26.7376 15.225 26.8624L15.0375 26.9625H13.7875C13.7875 26.9625 13.7875 26.9 13.7125 26.8875C12.9186 26.7538 12.184 26.3823 11.6059 25.8221C11.0278 25.2618 10.6334 24.5392 10.475 23.75C10.3875 23.4 10.175 23.4625 9.95 23.4625C8.025 23.4625 6.1 23.4625 4.175 23.4625C3.82881 23.5086 3.47706 23.4393 3.17424 23.2653C2.87142 23.0913 2.63444 22.8223 2.5 22.5V21.875C2.74497 21.5487 3.02129 21.2473 3.325 20.975C4.15665 20.4252 4.84474 19.6846 5.33183 18.8148C5.81892 17.945 6.09087 16.9713 6.125 15.975C6.125 14.6625 6.125 13.35 6.2 12.05C6.23894 10.3837 6.79017 8.76983 7.77872 7.4279C8.76727 6.08598 10.1452 5.0811 11.725 4.54995C11.875 4.54995 12.0875 4.44995 12.15 4.32495C12.358 3.97484 12.6366 3.67181 12.968 3.43511C13.2994 3.1984 13.6763 3.03318 14.075 2.94995L15 2.98745Z" fill="#0DB2B2"/>
<path d="M27.5 13.1499C27.3326 14.2082 26.9405 15.2184 26.35 16.1124C25.5084 17.3211 24.2721 18.1989 22.8536 18.595C21.4351 18.9912 19.923 18.8809 18.5769 18.2831C17.2309 17.6854 16.1351 16.6375 15.4778 15.3196C14.8204 14.0016 14.6427 12.4959 14.975 11.0611C15.3073 9.62631 16.1289 8.35205 17.2987 7.45727C18.4685 6.5625 19.9135 6.10308 21.3852 6.15797C22.857 6.21286 24.2636 6.77861 25.3636 7.75803C26.4635 8.73745 27.1879 10.0694 27.4125 11.5249C27.4316 11.6317 27.4609 11.7363 27.5 11.8374V13.1499ZM26.4125 12.5249C26.424 11.8385 26.2993 11.1565 26.0453 10.5187C25.7914 9.8808 25.4133 9.29968 24.9331 8.80901C24.4529 8.31833 23.8801 7.92786 23.2478 7.66023C22.6156 7.39261 21.9365 7.25314 21.25 7.24993C20.2115 7.23506 19.1922 7.52924 18.3213 8.09508C17.4505 8.66091 16.7675 9.47286 16.3592 10.4278C15.9509 11.3826 15.8357 12.4374 16.0283 13.4579C16.2208 14.4784 16.7124 15.4186 17.4405 16.1591C18.1687 16.8996 19.1005 17.4069 20.1176 17.6166C21.1348 17.8262 22.1913 17.7288 23.1529 17.3366C24.1145 16.9444 24.9378 16.2751 25.5182 15.4139C26.0986 14.5527 26.4099 13.5384 26.4125 12.4999V12.5249Z" fill="#0DB2B2"/>
<path d="M20.5375 12.425L23.0375 9.92505C23.3375 10.2375 23.675 10.5375 23.95 10.875C23.9803 10.951 23.9905 11.0335 23.9795 11.1145C23.9686 11.1955 23.9369 11.2724 23.8875 11.3375C22.8375 12.3959 21.775 13.4459 20.7 14.4875C20.6331 14.5248 20.5578 14.5443 20.4813 14.5443C20.4047 14.5443 20.3294 14.5248 20.2625 14.4875C19.6375 13.9 19.0125 13.2375 18.4375 12.675C18.4375 12.6125 18.3125 12.4375 18.35 12.4C18.6306 12.0695 18.9312 11.7564 19.25 11.4625C19.25 11.4625 19.525 11.4625 19.6125 11.575C19.925 11.8125 20.2 12.1 20.5375 12.425Z" fill="#0DB2B2"/>
</svg>
