<svg id="Layer_1" data-name="Layer 1" xmlns="http://www.w3.org/2000/svg" viewBox="0 0 100 100"><title>PHYSICS</title><path d="M44.46,20.9a1.87,1.87,0,0,0,0,3.74,3.07,3.07,0,1,1-3.07,3.07,1.87,1.87,0,1,0-3.74,0,6.81,6.81,0,1,0,6.81-6.81Z"/><path d="M45.78,44a1.88,1.88,0,0,0-2.64,0,1.87,1.87,0,0,0,0,2.65,1.88,1.88,0,0,0,2.64,0,1.87,1.87,0,0,0,0-2.65Z"/><path d="M24.27,75.56l-.07-.06a1.87,1.87,0,1,0-2.64,2.64l.06.07a1.87,1.87,0,0,0,2.65-2.65Z"/><path d="M97.17,8.7,91,2.54a1.86,1.86,0,0,0-2.64,0L82.19,8.7a1.88,1.88,0,0,0,0,2.65l6.17,6.16a1.86,1.86,0,0,0,2.64,0l6.17-6.16a1.87,1.87,0,0,0,0-2.65Zm-7.49,4.85L86.16,10,89.68,6.5,93.2,10Z"/><path d="M17.51,88.36l-6.16-6.17a1.88,1.88,0,0,0-2.65,0L2.54,88.36a1.86,1.86,0,0,0,0,2.64L8.7,97.17a1.87,1.87,0,0,0,2.65,0L17.51,91A1.86,1.86,0,0,0,17.51,88.36ZM10,93.2,6.5,89.68,10,86.16l3.53,3.52Z"/><path d="M94.42,63.2a76.33,76.33,0,0,0-4.72-9.79c.11-1.18.16-2.36.16-3.56a40,40,0,0,0-40-40c-1.19,0-2.38.06-3.56.16A76.92,76.92,0,0,0,36.5,5.29C23.79.31,13.38,1,7.18,7.18S.31,23.79,5.29,36.5A76.5,76.5,0,0,0,10,46.3a40.27,40.27,0,0,0,5.73,24.47,1.88,1.88,0,0,0,1.6.89,1.82,1.82,0,0,0,1-.28,1.87,1.87,0,0,0,.62-2.57,36.31,36.31,0,0,1-5.25-16.56A122.21,122.21,0,0,0,29,70.75,122.36,122.36,0,0,0,47.46,86a36.47,36.47,0,0,1-16.78-5.38,1.87,1.87,0,1,0-2,3.17,40.19,40.19,0,0,0,21.19,6c1.17,0,2.34,0,3.5-.16a77.25,77.25,0,0,0,9.8,4.72,42.76,42.76,0,0,0,15.35,3.3c5.83,0,10.53-1.75,14-5.2C98.72,86.33,99.39,75.91,94.42,63.2Zm-17-34.45A6.36,6.36,0,1,1,71,22.39,6.36,6.36,0,0,1,77.39,28.75Zm-8.61-9.84A10.1,10.1,0,1,0,80.87,31,36.34,36.34,0,0,1,75.5,75.5a36.73,36.73,0,0,1-6.18,5A41.68,41.68,0,0,1,65,78.85c-7-3-14.68-8.22-22-14.85a.66.66,0,0,0,0-.14,6.91,6.91,0,0,1,13.81,0,1.87,1.87,0,0,0,3.74,0,10.65,10.65,0,0,0-20.86-3L39,60.19c-8.45-8.45-15.08-17.68-18.66-26C19.8,33,19.36,31.88,19,30.78a36.61,36.61,0,0,1,4.81-6.16,8.42,8.42,0,0,1,3.31,14.14,1.87,1.87,0,1,0,2.56,2.72,12.15,12.15,0,0,0-2.84-19.66A36.34,36.34,0,0,1,68.78,18.91ZM81.39,79.63c-1.5,1.5-3.93,2.12-7,1.85A40.87,40.87,0,0,0,83.18,72C83.58,75.41,83,78,81.39,79.63ZM17.8,25.9c-.52-3.64.05-6.46,1.73-8.14s4.8-2.3,8.76-1.62a39.87,39.87,0,0,0-6.73,5.42A40.75,40.75,0,0,0,17.8,25.9Zm72.08,64C87.16,92.6,83.35,94,78.55,94a39.3,39.3,0,0,1-14-3c-10.74-4.21-22.45-12.32-33-22.83S13,45.88,8.77,35.14c-4.4-11.24-4-20.23,1.06-25.31S23.9,4.37,35.14,8.77c1.65.65,3.35,1.4,5.06,2.24a39.37,39.37,0,0,0-7.08,2.48c-7.26-2.29-12.88-1.73-16.23,1.63-4,4-4,11.31,0,20.57,3.76,8.73,10.67,18.36,19.44,27.14S54.74,78.52,63.47,82.28a31.51,31.51,0,0,0,12.25,3,11.37,11.37,0,0,0,8.32-3c3.19-3.19,3.86-8.43,1.94-15.19A39.58,39.58,0,0,0,88.7,59.5c.84,1.72,1.59,3.41,2.23,5.07C95.33,75.81,95,84.8,89.88,89.88Z"/><path d="M79.78,48a1.87,1.87,0,0,0-1.87,1.87,27.9,27.9,0,0,1-4.18,14.74,1.87,1.87,0,1,0,3.18,2,31.73,31.73,0,0,0,4.74-16.71A1.87,1.87,0,0,0,79.78,48Z"/><path d="M72.44,69.79a1.88,1.88,0,0,0-2.64-.2,2.08,2.08,0,0,0-.21.21,1.86,1.86,0,0,0,.21,2.63,1.8,1.8,0,0,0,1.21.45,1.84,1.84,0,0,0,1.33-.55A1.87,1.87,0,0,0,72.44,69.79Z"/></svg>