<svg width="15" height="15" viewBox="0 0 15 15" fill="none" xmlns="http://www.w3.org/2000/svg">
<path d="M6.24988 10.3125L9.99988 7.49999L6.24988 4.68749V10.3125ZM7.49988 1.24998C4.04988 1.24998 1.24988 4.04999 1.24988 7.49999C1.24988 10.95 4.04988 13.75 7.49988 13.75C10.9499 13.75 13.7499 10.95 13.7499 7.49999C13.7499 4.04999 10.9499 1.24998 7.49988 1.24998ZM7.49988 12.5C4.74363 12.5 2.49988 10.2562 2.49988 7.49999C2.49988 4.74374 4.74363 2.49999 7.49988 2.49999C10.2561 2.49999 12.4999 4.74374 12.4999 7.49999C12.4999 10.2562 10.2561 12.5 7.49988 12.5Z" fill="#75C091"/>
</svg>
