<?xml version="1.0" encoding="utf-8"?>
<!-- Generator: Adobe Illustrator 25.0.0, SVG Export Plug-In . SVG Version: 6.00 Build 0)  -->
<svg version="1.1" id="Layer_1" xmlns="http://www.w3.org/2000/svg" xmlns:xlink="http://www.w3.org/1999/xlink" x="0px" y="0px"
	 viewBox="0 0 30 30" style="enable-background:new 0 0 30 30;" xml:space="preserve">
<style type="text/css">
	.st0{fill:#0DB2B2;}
	.st1{fill:none;stroke:#0DB2B2;stroke-linecap:round;stroke-linejoin:round;}
</style>
<path class="st0" d="M5.9,13.7C6,14,6.1,14.4,6.3,14.5C7.1,14.8,8,15,9,15c0.9,0,1.8-0.2,2.6-0.6c-0.1-0.9-0.6-1-1.1-0.9
	c-0.9,0.2-1.9,0.1-2.7-0.2c-0.9-0.4-1.6-1-2.1-1.8c-0.4-0.5-0.9-1.1-1.6-0.8c-0.4,0.1-0.7,0.4-0.9,0.7c-0.2,0.3-0.3,0.7-0.3,1.1
	c0,1.9,0,3.7,0,5.6c0,0.2,0,0.4,0,0.7c0.1,0.2,0.2,0.4,0.3,0.6c0.2,0.2,0.4,0.3,0.6,0.3c0.2,0.1,0.4,0.1,0.7,0h3.1
	c-0.1,1.1,0.1,2.2,0.3,3.2c0.2,0.7,0.4,1.1,1,1c0.7-0.1,1.2-0.6,1-1.4c-0.2-0.5-0.3-1.1-0.4-1.6c-0.5-4.1-0.1-3.4-3.6-3.4
	c-0.3-0.8-0.3-1.8,0-2.6"/>
<path class="st0" d="M24.1,14.9c0.4,0.8,0.1,1.6,0.1,2.4c0,0.2-0.1,0.2-0.3,0.2c-3.1,0-2.9-0.8-3.5,3.2c0,0.5-0.1,1.1-0.2,1.6
	c-0.6,1,0.2,1.4,0.9,1.6c0.6,0.2,0.9-0.5,1.1-1.1c0.3-1,0.4-2,0.4-3h3.1c0.2,0,0.4,0,0.7,0c0.2-0.1,0.4-0.2,0.6-0.3
	c0.2-0.2,0.3-0.4,0.3-0.6c0.1-0.2,0.1-0.4,0-0.7c0-1.9,0-3.8,0-5.6c0-0.3-0.1-0.7-0.3-1c-0.2-0.3-0.4-0.5-0.7-0.7
	c-0.2-0.2-0.5-0.2-0.8-0.2c-0.3,0-0.6,0.2-0.7,0.4c-0.5,0.9-1.3,1.5-2.2,1.9c-0.9,0.4-1.9,0.5-2.9,0.3c-0.2,0-0.5,0-0.7,0.2
	c-0.2,0.1-0.3,0.3-0.4,0.6c1.8,1.4,4.7,1.1,5.7-0.4"/>
<path class="st1" d="M10.1,16.5c3.2-0.4,6.5-0.1,9.8-0.2l-4.7,0.4v7.4"/>
<path class="st1" d="M4,24.2v-2.6L6.5,21c-0.7,0.1-1.4,0-2,0.1c-0.6,0.2-1.3,0.1-1.9-0.3c-0.6-0.3-1-0.9-1.2-1.5
	c-0.2-1.1-0.4-2.1-0.4-3.2"/>
<path class="st1" d="M26,24.2v-2.6L23.5,21c0.7,0.1,1.4,0,2,0.1c0.6,0.1,1.3,0,1.9-0.3s1-0.9,1.2-1.5c0.2-0.9,0.4-1.9,0.4-2.8"/>
<path class="st0" d="M3.6,5.9C3.4,6,3.2,6.1,3,6.3C2.8,6.5,2.7,6.7,2.6,7C2.5,7.2,2.4,7.5,2.4,7.7c0,0.3,0.1,0.5,0.2,0.7
	c0.2,0.4,0.5,0.7,0.9,0.9c0.4,0.2,0.9,0.2,1.3,0C5.3,9.3,5.6,9,5.9,8.7c0.3-0.4,0.4-0.8,0.3-1.2c0-0.2,0-0.4-0.1-0.7
	C6,6.6,5.9,6.4,5.7,6.2C5.5,6.1,5.3,6,5.1,5.9c-0.2-0.1-0.4-0.1-0.7,0H3.8"/>
<path class="st0" d="M24.9,5.9c-0.2,0.1-0.4,0.2-0.6,0.3c-0.2,0.1-0.3,0.3-0.4,0.5c-0.1,0.2-0.2,0.4-0.2,0.7c0,0.2,0,0.5,0.1,0.7
	c0.1,0.4,0.3,0.7,0.6,0.9c0.3,0.2,0.6,0.4,1,0.5c0.4,0.1,0.7,0,1-0.1C26.7,9.2,27,9,27.2,8.7c0.2-0.3,0.3-0.6,0.3-1
	c0-0.3,0-0.7-0.2-1C27,5.7,26,5.8,25.1,5.8"/>
</svg>
