<svg id="Layer_1" data-name="Layer 1" xmlns="http://www.w3.org/2000/svg" viewBox="0 0 100 100"><title>PSYCHOLOGY</title><path d="M82.67,13.54A40.84,40.84,0,0,0,13,42.08L5.52,56.94a1.42,1.42,0,0,0,.54,1.86L13,62.93V84.87a1.42,1.42,0,0,0,1.42,1.42H28.11V97A1.42,1.42,0,1,0,31,97V84.87a1.42,1.42,0,0,0-1.42-1.42H15.79V62.13a1.42,1.42,0,0,0-.69-1.22L8.65,57l7-14a1.36,1.36,0,0,0,.15-.63,38,38,0,1,1,61.38,30,1.43,1.43,0,0,0-.54,1.12V97a1.42,1.42,0,1,0,2.84,0V74.18a40.85,40.85,0,0,0,3.2-60.64Z"/><path d="M53.79,18.26A19.62,19.62,0,0,0,46.3,56v3.18H44.69a1.43,1.43,0,0,0-1.42,1.42V71.23a7.5,7.5,0,0,0,7.49,7.48h6.06a7.5,7.5,0,0,0,7.49-7.48V60.61a1.43,1.43,0,0,0-1.42-1.42H61.28V56a19.62,19.62,0,0,0,8.44-6.7,1.41,1.41,0,0,0-.32-2,1.43,1.43,0,0,0-2,.32,16.68,16.68,0,0,1-8,6,1.42,1.42,0,0,0-1,1.34v4.16H49.15V55a1.42,1.42,0,0,0-.95-1.34A16.76,16.76,0,1,1,70,42.07a1.42,1.42,0,1,0,2.76.7,19.62,19.62,0,0,0-19-24.51Zm7.68,53a4.65,4.65,0,0,1-4.65,4.64H50.76a4.65,4.65,0,0,1-4.65-4.64v-.1H61.47Zm0-2.94H46.11V66.58H61.47ZM59.85,62h1.62v1.71H46.11V62H59.85Z"/><path d="M62.89,34.93H56.73V27.26a1.43,1.43,0,0,0-2.49-.94L43.62,38.45a1.44,1.44,0,0,0,1.07,2.36h6.16v7.67a1.41,1.41,0,0,0,.92,1.33,1.42,1.42,0,0,0,1.57-.39L64,37.29A1.44,1.44,0,0,0,62.89,34.93ZM53.7,44.7V39.39A1.42,1.42,0,0,0,52.27,38H47.83L53.89,31v5.31a1.42,1.42,0,0,0,1.42,1.43h4.44Z"/><path d="M53.79,10.68a1.42,1.42,0,0,0-1.42,1.42v3a1.42,1.42,0,1,0,2.84,0v-3A1.41,1.41,0,0,0,53.79,10.68Z"/><path d="M38.71,20.78l-2.14-2.14a1.42,1.42,0,1,0-2,2l2.14,2.14a1.42,1.42,0,1,0,2-2Z"/><path d="M31.05,36.45H28a1.42,1.42,0,1,0,0,2.84h3a1.42,1.42,0,1,0,0-2.84Z"/><path d="M38.71,53a1.41,1.41,0,0,0-2,0l-2.14,2.14a1.42,1.42,0,1,0,2,2L38.71,55A1.41,1.41,0,0,0,38.71,53Z"/><path d="M73,55.09,70.88,53a1.42,1.42,0,1,0-2,2L71,57.1A1.41,1.41,0,0,0,73.12,57,1.44,1.44,0,0,0,73,55.09Z"/><path d="M79.56,36.45h-3a1.42,1.42,0,1,0,0,2.84h3a1.42,1.42,0,1,0,0-2.84Z"/><path d="M73,18.64a1.43,1.43,0,0,0-2,0l-2.14,2.14a1.43,1.43,0,0,0-.1,1.88,1.41,1.41,0,0,0,2.11.13L73,20.65A1.41,1.41,0,0,0,73,18.64Z"/></svg>