<svg width="16" height="16" viewBox="0 0 16 16" fill="none" xmlns="http://www.w3.org/2000/svg">
<path d="M2.66671 4H1.33337V13.3333C1.33337 14.0667 1.93337 14.6667 2.66671 14.6667H12V13.3333H2.66671V4Z" fill="#75C091"/>
<path d="M13.3333 1.33333H5.33333C4.6 1.33333 4 1.93333 4 2.66666V10.6667C4 11.4 4.6 12 5.33333 12H13.3333C14.0667 12 14.6667 11.4 14.6667 10.6667V2.66666C14.6667 1.93333 14.0667 1.33333 13.3333 1.33333ZM9.34 10C8.94667 10 8.64 9.68666 8.64 9.29999C8.64 8.90666 8.95333 8.60666 9.34 8.60666C9.73333 8.60666 10.0333 8.90666 10.0333 9.29999C10.0267 9.68666 9.73333 10 9.34 10ZM11.0067 5.88666C10.5867 6.50666 10.1867 6.69333 9.96667 7.09333C9.88 7.25333 9.84667 7.35999 9.84667 7.87999H8.83333C8.83333 7.60666 8.79333 7.16 9.00667 6.77999C9.28 6.29333 9.79333 6.00666 10.0933 5.58C10.4133 5.12666 10.2333 4.28666 9.33333 4.28666C8.74667 4.28666 8.45333 4.73333 8.33333 5.10666L7.42 4.72666C7.67333 3.97333 8.34667 3.33333 9.32667 3.33333C10.1467 3.33333 10.7133 3.70666 11 4.17333C11.2467 4.58 11.3867 5.32666 11.0067 5.88666Z" fill="#75C091"/>
</svg>
