<svg width="80" height="80" viewBox="0 0 80 80" fill="none" xmlns="http://www.w3.org/2000/svg">
<path d="M31.9191 58.081L33.3333 59.4953L34.7475 58.081L61.4142 31.4144L62.8234 30.0051L61.4192 28.591L56.7192 23.8576L55.305 22.4334L53.8858 23.8526L33.3306 44.4078L26.1115 37.2165L24.6973 35.8078L23.2858 37.2193L18.5858 41.9193L17.1716 43.3335L18.5858 44.7477L31.9191 58.081ZM12 17.9666L40 5.52213L68 17.9666V36.6668C68 54.1554 55.99 70.4404 40 74.6042C24.01 70.4404 12 54.1554 12 36.6668V17.9666Z" fill="#FF3B30" stroke="#FB7442" stroke-width="4"/>
<path d="M35 13.3335L16.6667 26.6668V48.3335L35 66.6668L56.6667 55.0002L61.6667 38.3335V18.3335L35 13.3335Z" fill="#FF3B30" stroke="#FF3B30"/>
</svg>
