<svg width="20" height="20" viewBox="0 0 20 20" fill="none" xmlns="http://www.w3.org/2000/svg">
<path d="M10.0003 1.66699C5.40033 1.66699 1.66699 5.40033 1.66699 10.0003C1.66699 14.6003 5.40033 18.3337 10.0003 18.3337C14.6003 18.3337 18.3337 14.6003 18.3337 10.0003C18.3337 5.40033 14.6003 1.66699 10.0003 1.66699ZM10.0003 16.667C6.32533 16.667 3.33366 13.6753 3.33366 10.0003C3.33366 6.32533 6.32533 3.33366 10.0003 3.33366C13.6753 3.33366 16.667 6.32533 16.667 10.0003C16.667 13.6753 13.6753 16.667 10.0003 16.667ZM10.0003 6.25033C7.92533 6.25033 6.25033 7.92533 6.25033 10.0003C6.25033 12.0753 7.92533 13.7503 10.0003 13.7503C12.0753 13.7503 13.7503 12.0753 13.7503 10.0003C13.7503 7.92533 12.0753 6.25033 10.0003 6.25033ZM10.0003 10.8337C9.54199 10.8337 9.16699 10.4587 9.16699 10.0003C9.16699 9.54199 9.54199 9.16699 10.0003 9.16699C10.4587 9.16699 10.8337 9.54199 10.8337 10.0003C10.8337 10.4587 10.4587 10.8337 10.0003 10.8337Z" fill="#FC652C"/>
</svg>
