<svg width="29" height="24" viewBox="0 0 29 24" fill="none" xmlns="http://www.w3.org/2000/svg">
<path d="M13.6987 12.8427C11.0038 11.5667 8.34032 12.5881 5.76269 12.2505C2.65867 11.8414 0.355685 9.74152 0.0467127 6.98652C-0.262259 4.23153 0.973628 2.16885 3.39391 0.875748C6.17465 -0.614755 10.2971 -0.154158 12.417 1.88849C14.5369 3.93114 15.0633 6.41435 13.5871 8.9319C12.7632 10.3394 12.7174 11.3407 13.6987 12.8427ZM2.66439 9.63567H10.4602C7.92692 8.8117 5.19768 8.8117 2.66439 9.63567ZM3.23656 5.89082C3.25659 6.26845 3.29664 6.51448 3.29664 6.51448H10.5146C10.5146 6.37716 10.486 6.26845 10.4717 5.89082H3.23656Z" fill="#FF9500"/>
<path d="M9.63056 24H0.392875C0.152564 22.5696 0.784812 21.4252 1.98351 21.0533C2.22038 20.9831 2.46596 20.9465 2.71302 20.9446C4.22928 20.9446 5.74553 20.9446 7.26178 20.9446C7.57537 20.9335 7.8879 20.9869 8.17996 21.1016C8.47202 21.2164 8.73737 21.3899 8.95952 21.6116C9.18167 21.8332 9.35588 22.0981 9.47131 22.3899C9.58675 22.6817 9.64096 22.9941 9.63056 23.3077V24Z" fill="#FF9500"/>
<path d="M7.56506 17.3113C7.56506 17.8206 7.41405 18.3184 7.13113 18.7418C6.84821 19.1652 6.44609 19.4952 5.97561 19.6901C5.50514 19.885 4.98744 19.936 4.48798 19.8366C3.98853 19.7373 3.52975 19.4921 3.16966 19.132C2.80957 18.7719 2.56435 18.3131 2.465 17.8136C2.36565 17.3142 2.41664 16.7965 2.61152 16.326C2.8064 15.8555 3.13641 15.4534 3.55983 15.1705C3.98325 14.8876 4.48105 14.7366 4.99029 14.7366C5.67132 14.7425 6.32275 15.0157 6.80432 15.4973C7.2859 15.9789 7.55909 16.6303 7.56506 17.3113Z" fill="#FF9500"/>
<path d="M28.6066 24H12.9177C12.5086 21.5969 13.5814 19.6029 15.6183 18.9964C16.0207 18.8775 16.4375 18.8149 16.8571 18.8104C19.4318 18.7971 22.0066 18.7971 24.5813 18.8104C25.1124 18.7947 25.641 18.8874 26.135 19.0829C26.629 19.2784 27.078 19.5726 27.4544 19.9474C27.8309 20.3223 28.127 20.77 28.3246 21.2631C28.5222 21.7563 28.6172 22.2845 28.6037 22.8156L28.6066 24Z" fill="#FF9500"/>
<path d="M25.0963 12.6424C25.0952 13.5064 24.8378 14.3507 24.3569 15.0685C23.8759 15.7863 23.1929 16.3453 22.3942 16.6749C21.5956 17.0045 20.7171 17.0898 19.8699 16.9202C19.0227 16.7505 18.2449 16.3334 17.6347 15.7217C17.0246 15.1099 16.6095 14.331 16.4421 13.4834C16.2746 12.6357 16.3623 11.7575 16.694 10.9597C17.0257 10.1619 17.5865 9.48032 18.3055 9.00124C19.0245 8.52216 19.8695 8.26706 20.7335 8.26819C21.8891 8.27942 22.994 8.74424 23.8101 9.56247C24.6262 10.3807 25.0881 11.4868 25.0963 12.6424Z" fill="#FF9500"/>
</svg>
