<svg width="49" height="51" viewBox="0 0 49 51" fill="none" xmlns="http://www.w3.org/2000/svg">
<path d="M41.4176 25.3916C45.3484 21.3798 47.7323 17.5077 48.1405 14.4584C48.3803 12.6764 47.9785 11.1898 46.9446 10.0416C45.6804 8.63441 43.6237 7.92289 40.8348 7.92289C38.6589 7.92289 36.1082 8.35488 33.2511 9.20934C31.0244 3.59978 27.7034 0.391602 24.1046 0.391602C20.5057 0.391602 17.1863 3.59978 14.9597 9.20934C12.1009 8.35488 9.55021 7.92289 7.37596 7.92289C4.58547 7.92289 2.53033 8.636 1.26453 10.0416C0.230603 11.1914 -0.171214 12.6764 0.0686058 14.4568C0.476775 17.5046 2.86227 21.3782 6.79308 25.3916C2.86068 29.4034 0.476775 33.2771 0.0686058 36.3248C-0.17439 38.1068 0.229015 39.5918 1.26453 40.7416C2.53033 42.1488 4.58547 42.8619 7.37596 42.8619C9.54863 42.8619 12.0993 42.4299 14.9597 41.5723C17.1863 47.1834 20.5073 50.3916 24.1046 50.3916C27.7034 50.3916 31.0244 47.1818 33.2511 41.5723C36.113 42.4267 38.6621 42.8619 40.8348 42.8619C43.6237 42.8619 45.6804 42.1488 46.9446 40.7432C47.9785 39.5934 48.3819 38.1068 48.1405 36.3248C47.7323 33.2771 45.3484 29.405 41.4176 25.3916ZM35.5619 23.9273C36.1352 24.4133 36.6911 24.904 37.2216 25.3916C36.6911 25.8808 36.1352 26.3699 35.5619 26.8559C35.5778 26.3699 35.5857 25.8839 35.5857 25.3916C35.5857 24.8993 35.5762 24.4117 35.5619 23.9273ZM44.7767 14.5298C44.4495 16.9519 42.4118 20.1807 39.0242 23.6462C37.8902 22.5995 36.6578 21.5577 35.3554 20.5412C35.0759 17.5077 34.5359 14.6744 33.7498 12.1078C38.8876 10.5752 42.8359 10.6467 44.2192 12.1825C44.7243 12.7415 44.9117 13.5309 44.7767 14.5298ZM35.357 30.242C36.6578 29.224 37.8902 28.1837 39.0258 27.137C42.4134 30.6025 44.4511 33.8313 44.7783 36.2534C44.9133 37.2523 44.7259 38.0417 44.2192 38.6023C42.8391 40.1381 38.8908 40.2096 33.7513 38.677C34.5375 36.1104 35.0775 33.2771 35.357 30.242ZM32.5237 32.3416C32.2378 34.284 31.8328 36.1327 31.3182 37.8527C29.8491 37.3159 28.3324 36.6758 26.7934 35.9468C28.3641 35.0606 29.7697 34.203 31.072 33.339C31.5676 33.0087 32.0488 32.6767 32.5237 32.3416ZM24.1046 47.0707C21.7445 47.0707 19.4209 44.5708 17.6977 40.1969C19.8085 39.4345 21.9621 38.4959 24.1062 37.4048C26.2439 38.4943 28.3959 39.4298 30.513 40.1969C28.7882 44.5692 26.4646 47.0707 24.1046 47.0707ZM17.1371 33.3374C18.4315 34.1982 19.837 35.0559 21.4141 35.9453C19.8752 36.6742 18.3584 37.3143 16.8893 37.8511C16.3732 36.1311 15.9682 34.2808 15.6839 32.3384C16.1588 32.6767 16.6432 33.0087 17.1371 33.3374ZM15.6839 18.4448C15.9698 16.5008 16.3748 14.6521 16.8893 12.9321C18.3632 13.4705 19.8815 14.1106 21.4157 14.838C19.8482 15.7226 18.4426 16.5786 17.1371 17.4474C16.6432 17.7761 16.1588 18.1081 15.6839 18.4448ZM24.1046 3.71414C26.4662 3.71414 28.7898 6.21398 30.513 10.5879C28.3959 11.3534 26.2439 12.2921 24.1046 13.38C21.9637 12.2905 19.81 11.3518 17.6961 10.5863C19.4209 6.21398 21.7429 3.71414 24.1046 3.71414ZM31.0736 17.4474C29.7729 16.5834 28.3673 15.7258 26.7966 14.838C28.3371 14.1074 29.8555 13.4673 31.3214 12.9321C31.8376 14.6505 32.2425 16.4992 32.5284 18.4416C32.0488 18.1065 31.5676 17.7746 31.0736 17.4474ZM33.0287 25.3916C33.0287 26.5383 32.9827 27.7183 32.8889 28.9952C31.7978 29.8211 30.6988 30.5993 29.6204 31.3156C27.8654 32.4845 26.0104 33.5899 24.1046 34.6064C22.2019 33.5915 20.3484 32.4861 18.5887 31.3156C17.5056 30.5962 16.4065 29.8148 15.3186 28.9921C15.2249 27.7167 15.1788 26.5367 15.1788 25.39C15.1788 24.2449 15.2249 23.0633 15.3186 21.788C16.4113 20.9621 17.5103 20.1823 18.5887 19.466C20.3437 18.2987 22.1987 17.1917 24.1046 16.1736C26.0041 17.1869 27.8575 18.2939 29.6204 19.4644C30.6988 20.1807 31.7978 20.9621 32.8889 21.7848C32.9827 23.0649 33.0287 24.2465 33.0287 25.3916ZM12.6472 26.8559C12.0802 26.3731 11.5244 25.8839 10.9891 25.3916C11.5212 24.8993 12.0771 24.4117 12.6472 23.9273C12.6345 24.4117 12.6266 24.9008 12.6266 25.3916C12.6266 25.8824 12.6345 26.3699 12.6472 26.8559ZM12.8505 20.5428C11.5498 21.5593 10.3189 22.6011 9.18651 23.6462C5.79728 20.1791 3.7596 16.9519 3.43084 14.5283C3.29744 13.5309 3.48484 12.7415 3.98831 12.1825C4.69506 11.3963 6.07045 10.9802 7.96359 10.9802C9.76621 10.9802 11.95 11.3598 14.4562 12.1078C13.6716 14.6728 13.1316 17.5077 12.8505 20.5428ZM3.43084 36.255C3.75802 33.8345 5.79728 30.6041 9.18651 27.137C10.3173 28.1805 11.5498 29.2208 12.8505 30.242C13.1316 33.2771 13.6716 36.1104 14.4578 38.677C9.31992 40.2096 5.37164 40.1349 3.98831 38.6023C3.48484 38.0417 3.29744 37.2523 3.43084 36.255Z" fill="#5A7DFA"/>
<path d="M24.1046 30.5978C26.9799 30.5978 29.3107 28.267 29.3107 25.3917C29.3107 22.5164 26.9799 20.1855 24.1046 20.1855C21.2293 20.1855 18.8984 22.5164 18.8984 25.3917C18.8984 28.267 21.2293 30.5978 24.1046 30.5978Z" fill="#5A7DFA"/>
</svg>
