<svg width="136" height="136" viewBox="0 0 136 136" fill="none" xmlns="http://www.w3.org/2000/svg">
<g id="sentiment_neutral_24px">
<path id="icon/social/sentiment_neutral_24px" fill-rule="evenodd" clip-rule="evenodd" d="M67.9433 11.334C36.6633 11.334 11.3333 36.7207 11.3333 68.0007C11.3333 99.2807 36.6633 124.667 67.9433 124.667C99.2799 124.667 124.667 99.2807 124.667 68.0007C124.667 36.7207 99.2799 11.334 67.9433 11.334ZM39.6666 53.834C39.6666 49.1396 43.4722 45.334 48.1666 45.334C52.861 45.334 56.6666 49.1396 56.6666 53.834C56.6666 58.5284 52.861 62.334 48.1666 62.334C43.4722 62.334 39.6666 58.5284 39.6666 53.834ZM87.8332 45.334C83.1388 45.334 79.3332 49.1396 79.3332 53.834C79.3332 58.5284 83.1388 62.334 87.8332 62.334C92.5277 62.334 96.3332 58.5284 96.3332 53.834C96.3332 49.1396 92.5277 45.334 87.8332 45.334ZM50.9999 87.834V79.334H84.9999V87.834H50.9999ZM22.6666 68.0006C22.6666 93.0473 42.9532 113.334 67.9999 113.334C93.0466 113.334 113.333 93.0473 113.333 68.0006C113.333 42.954 93.0466 22.6673 67.9999 22.6673C42.9532 22.6673 22.6666 42.954 22.6666 68.0006Z" fill="url(#paint0_linear)"/>
</g>
<defs>
<linearGradient id="paint0_linear" x1="67.9999" y1="11.334" x2="67.9999" y2="124.667" gradientUnits="userSpaceOnUse">
<stop stop-color="#0DB2B2" stop-opacity="0.5"/>
<stop offset="1" stop-color="#0DAEAE"/>
</linearGradient>
</defs>
</svg>
