<svg width="136" height="136" viewBox="0 0 136 136" fill="none" xmlns="http://www.w3.org/2000/svg">
<path d="M87.8335 62.334C92.5279 62.334 96.3335 58.5284 96.3335 53.834C96.3335 49.1396 92.5279 45.334 87.8335 45.334C83.1391 45.334 79.3335 49.1396 79.3335 53.834C79.3335 58.5284 83.1391 62.334 87.8335 62.334Z" fill="url(#paint0_linear_17948_1925)"/>
<path d="M48.1665 62.334C52.8609 62.334 56.6665 58.5284 56.6665 53.834C56.6665 49.1396 52.8609 45.334 48.1665 45.334C43.4721 45.334 39.6665 49.1396 39.6665 53.834C39.6665 58.5284 43.4721 62.334 48.1665 62.334Z" fill="url(#paint1_linear_17948_1925)"/>
<path d="M68.0002 90.6673C59.6135 90.6673 52.4168 86.0773 48.4502 79.334H38.9868C43.5202 90.9507 54.7968 99.1673 68.0002 99.1673C81.2035 99.1673 92.4802 90.9507 97.0135 79.334H87.5502C83.5835 86.0773 76.3868 90.6673 68.0002 90.6673ZM67.9435 11.334C36.6635 11.334 11.3335 36.7207 11.3335 68.0007C11.3335 99.2807 36.6635 124.667 67.9435 124.667C99.2802 124.667 124.667 99.2807 124.667 68.0007C124.667 36.7207 99.2802 11.334 67.9435 11.334ZM68.0002 113.334C42.9535 113.334 22.6668 93.0473 22.6668 68.0007C22.6668 42.954 42.9535 22.6673 68.0002 22.6673C93.0468 22.6673 113.334 42.954 113.334 68.0007C113.334 93.0473 93.0468 113.334 68.0002 113.334Z" fill="url(#paint2_linear_17948_1925)"/>
<defs>
<linearGradient id="paint0_linear_17948_1925" x1="87.8335" y1="45.334" x2="87.8335" y2="62.334" gradientUnits="userSpaceOnUse">
<stop stop-color="#0DB2B2"/>
<stop offset="1" stop-color="#2CB2B3"/>
</linearGradient>
<linearGradient id="paint1_linear_17948_1925" x1="48.1665" y1="45.334" x2="48.1665" y2="62.334" gradientUnits="userSpaceOnUse">
<stop stop-color="#0DB2B2"/>
<stop offset="1" stop-color="#2CB2B3"/>
</linearGradient>
<linearGradient id="paint2_linear_17948_1925" x1="68.0002" y1="11.334" x2="68.0002" y2="124.667" gradientUnits="userSpaceOnUse">
<stop stop-color="#0DB2B2" stop-opacity="0.5"/>
<stop offset="1" stop-color="#0DAEAE"/>
</linearGradient>
</defs>
</svg>
