<svg width="22" height="22" viewBox="0 0 22 22" fill="none" xmlns="http://www.w3.org/2000/svg">
<path d="M5.69629 6.7406C4.86488 4.87106 6.83502 2.98972 8.66602 3.90466L18.9609 9.04919C20.5685 9.85297 20.5686 12.1459 18.9609 12.9496L8.66602 18.0941C6.83506 19.009 4.86503 17.1277 5.69629 15.2582L7.19629 11.8851C7.2252 11.8201 7.25022 11.7538 7.27246 11.6869H11C11.3797 11.6869 11.6874 11.379 11.6875 10.9994C11.6875 10.6197 11.3797 10.3119 11 10.3119H7.27246C7.25022 10.245 7.2252 10.1787 7.19629 10.1136L5.69629 6.7406ZM3.66699 12.1449C4.04646 12.1451 4.35437 12.4529 4.35449 12.8324C4.35449 13.212 4.04654 13.5197 3.66699 13.5199H1.83301C1.45346 13.5197 1.14551 13.212 1.14551 12.8324C1.14563 12.4529 1.45354 12.1451 1.83301 12.1449H3.66699ZM3.66699 8.47888C4.04654 8.47906 4.35449 8.7868 4.35449 9.16638C4.35426 9.54577 4.0464 9.85371 3.66699 9.85388H1.83301C1.4536 9.85371 1.14574 9.54577 1.14551 9.16638C1.14551 8.78679 1.45346 8.47906 1.83301 8.47888H3.66699Z" fill="white"/>
</svg>
