<?xml version="1.0" encoding="UTF-8"?>
<svg id="Layer_1" data-name="Layer 1" xmlns="http://www.w3.org/2000/svg" viewBox="0 0 24 24">
  <defs>
    <style>
      .cls-1 {
        stroke: #231f20;
        stroke-miterlimit: 10;
      }
    </style>
  </defs>
  <path class="cls-1" d="m11.92,22c-2.19,0-4.38,0-6.56,0-1.5,0-2.19-.81-1.97-2.29.57-3.68,1.14-7.35,1.72-11.03.16-1.04.81-1.6,1.88-1.6,3.34,0,6.67,0,10.01,0,1.07,0,1.7.55,1.86,1.61.58,3.7,1.17,7.39,1.75,11.09.21,1.32-.52,2.21-1.87,2.21-2.27.01-4.55,0-6.82,0Zm.05-.62c2.25,0,4.5,0,6.76,0,.95,0,1.42-.55,1.28-1.45-.57-3.65-1.15-7.3-1.73-10.95-.16-1-.47-1.27-1.45-1.27-3.23,0-6.45,0-9.68,0-.96,0-1.28.28-1.43,1.23-.57,3.61-1.14,7.22-1.7,10.83-.18,1.14.24,1.62,1.4,1.62,2.19,0,4.37,0,6.56,0Z"/>
  <path class="cls-1" d="m14.76,5.5c.19-2.27-2.11-3.67-3.94-2.77-1,.49-1.52,1.32-1.59,2.43-.02.41,0,.83-.02,1.24,0,.09-.13.18-.21.27-.07-.06-.18-.12-.21-.2-.41-1.08.26-3.06,1.27-3.83,1.14-.86,2.75-.85,3.87.02,1.01.78,1.6,2.56,1.25,3.78-.02.09-.12.16-.18.23-.09-.08-.23-.15-.24-.23-.03-.28-.01-.56-.01-.94Z"/>
  <path class="cls-1" d="m9.78,10.05c-.36.25-.6.54-.76.5-.22-.05-.37-.36-.55-.55.19-.17.37-.45.56-.47.19-.01.4.26.75.52Z"/>
  <path class="cls-1" d="m15,10.82c-.26-.35-.53-.56-.52-.75.01-.2.29-.38.46-.57.19.18.49.34.55.56.04.16-.24.4-.49.76Z"/>
</svg>