<svg width="146" height="146" viewBox="0 0 146 146" fill="none" xmlns="http://www.w3.org/2000/svg">
<path fill-rule="evenodd" clip-rule="evenodd" d="M84.6797 57.7917H72.513V39.5417H54.263V27.375H72.513V9.125H84.6797V27.375H102.93V39.5417H84.6797V57.7917ZM36.0727 124.708C36.0727 118.017 41.4868 112.542 48.1785 112.542C54.8702 112.542 60.3452 118.017 60.3452 124.708C60.3452 131.4 54.8702 136.875 48.1785 136.875C41.4868 136.875 36.0727 131.4 36.0727 124.708ZM109.012 112.542C102.32 112.542 96.906 118.017 96.906 124.708C96.906 131.4 102.32 136.875 109.012 136.875C115.703 136.875 121.178 131.4 121.178 124.708C121.178 118.017 115.703 112.542 109.012 112.542ZM100.192 82.125H54.8714L48.1797 94.2917H121.18V106.458H48.1797C38.933 106.458 33.093 96.5425 37.5339 88.3908L45.7464 73.5475L23.8464 27.375H11.6797V15.2083H31.5722L57.4872 69.9583H100.192L123.735 27.375L134.32 33.215L110.838 75.8592C108.77 79.6308 104.755 82.125 100.192 82.125Z" fill="url(#paint0_linear)"/>
<defs>
<linearGradient id="paint0_linear" x1="72.9997" y1="9.125" x2="72.9997" y2="136.875" gradientUnits="userSpaceOnUse">
<stop stop-color="#0DB2B2" stop-opacity="0.5"/>
<stop offset="1" stop-color="#0C9C9C"/>
</linearGradient>
</defs>
</svg>
