<?xml version="1.0" encoding="utf-8"?>
<!-- Generator: Adobe Illustrator 24.0.2, SVG Export Plug-In . SVG Version: 6.00 Build 0)  -->
<svg version="1.1" id="Layer_1" xmlns="http://www.w3.org/2000/svg" xmlns:xlink="http://www.w3.org/1999/xlink" x="0px" y="0px"
	 viewBox="0 0 24 24" style="enable-background:new 0 0 24 24;" xml:space="preserve">
<style type="text/css">
	.st0{fill:#0DB2B2;stroke:#0DB2B2;stroke-miterlimit:10;}
</style>
<path class="st0" d="M11.9,22c-2.2,0-4.4,0-6.6,0c-1.5,0-2.2-0.8-2-2.3C4,16,4.5,12.4,5.1,8.7c0.2-1,0.8-1.6,1.9-1.6
	c3.3,0,6.7,0,10,0c1.1,0,1.7,0.6,1.9,1.6c0.6,3.7,1.2,7.4,1.8,11.1c0.2,1.3-0.5,2.2-1.9,2.2C16.5,22,14.2,22,11.9,22L11.9,22z
	 M12,21.4c2.3,0,4.5,0,6.8,0c1,0,1.4-0.5,1.3-1.5c-0.6-3.6-1.1-7.3-1.7-10.9c-0.2-1-0.5-1.3-1.5-1.3c-3.2,0-6.4,0-9.7,0
	c-1,0-1.3,0.3-1.4,1.2C5.1,12.5,4.6,16.2,4,19.8c-0.2,1.1,0.2,1.6,1.4,1.6C7.6,21.4,9.8,21.4,12,21.4L12,21.4z"/>
<path class="st0" d="M14.8,5.5c0.2-2.3-2.1-3.7-3.9-2.8c-1,0.5-1.5,1.3-1.6,2.4c0,0.4,0,0.8,0,1.2c0,0.1-0.1,0.2-0.2,0.3
	C8.9,6.6,8.8,6.5,8.8,6.5C8.4,5.4,9,3.4,10.1,2.6c1.1-0.9,2.8-0.9,3.9,0c1,0.8,1.6,2.6,1.3,3.8c0,0.1-0.1,0.2-0.2,0.2
	c-0.1-0.1-0.2-0.2-0.2-0.2C14.7,6.2,14.7,5.9,14.8,5.5L14.8,5.5z"/>
<path class="st0" d="M9.8,10.1c-0.4,0.3-0.6,0.5-0.8,0.5c-0.2-0.1-0.4-0.4-0.6-0.6C8.7,9.8,8.8,9.6,9,9.5C9.2,9.5,9.4,9.8,9.8,10.1z
	"/>
<path class="st0" d="M15,10.8c-0.3-0.4-0.5-0.6-0.5-0.8c0-0.2,0.3-0.4,0.5-0.6c0.2,0.2,0.5,0.3,0.6,0.6C15.5,10.2,15.3,10.5,15,10.8
	z"/>
</svg>
