<svg width="182" height="182" viewBox="0 0 182 182" fill="none" xmlns="http://www.w3.org/2000/svg">
<g id="sentiment_satisfied_24px">
<path id="icon/social/sentiment_satisfied_24px" fill-rule="evenodd" clip-rule="evenodd" d="M90.9245 15.167C49.0645 15.167 15.167 49.1403 15.167 91.0003C15.167 132.86 49.0645 166.834 90.9245 166.834C132.86 166.834 166.834 132.86 166.834 91.0003C166.834 49.1403 132.86 15.167 90.9245 15.167ZM64.4587 60.667C58.1764 60.667 53.0837 65.7598 53.0837 72.042C53.0837 78.3242 58.1764 83.417 64.4587 83.417C70.7409 83.417 75.8337 78.3242 75.8337 72.042C75.8337 65.7598 70.7409 60.667 64.4587 60.667ZM117.542 60.667C111.26 60.667 106.167 65.7598 106.167 72.042C106.167 78.3242 111.26 83.417 117.542 83.417C123.824 83.417 128.917 78.3242 128.917 72.042C128.917 65.7598 123.824 60.667 117.542 60.667ZM64.8371 106.167C70.1454 115.191 79.7762 121.334 90.9995 121.334C102.223 121.334 111.854 115.191 117.162 106.167H129.826C123.76 121.713 108.669 132.709 90.9995 132.709C73.3304 132.709 58.2396 121.713 52.1729 106.167H64.8371ZM30.3337 91.0003C30.3337 124.519 57.482 151.667 91.0003 151.667C124.519 151.667 151.667 124.519 151.667 91.0003C151.667 57.482 124.519 30.3337 91.0003 30.3337C57.482 30.3337 30.3337 57.482 30.3337 91.0003Z" fill="#34C759"/>
</g>
</svg>
