<svg width="20" height="20" viewBox="0 0 20 20" fill="none" xmlns="http://www.w3.org/2000/svg">
<path d="M16.667 1.66699H3.34199C2.42533 1.66699 1.67533 2.41699 1.67533 3.33366L1.66699 18.3337L5.00033 15.0003H16.667C17.5837 15.0003 18.3337 14.2503 18.3337 13.3337V3.33366C18.3337 2.41699 17.5837 1.66699 16.667 1.66699ZM16.667 13.3337H4.30866L3.33366 14.3087V3.33366H16.667V13.3337ZM10.0003 8.33366C10.917 8.33366 11.667 7.58366 11.667 6.66699C11.667 5.75033 10.917 5.00033 10.0003 5.00033C9.08366 5.00033 8.33366 5.75033 8.33366 6.66699C8.33366 7.58366 9.08366 8.33366 10.0003 8.33366ZM13.3337 11.192C13.3337 10.517 12.9337 9.91699 12.317 9.65033C11.6087 9.34199 10.8253 9.16699 10.0003 9.16699C9.17533 9.16699 8.39199 9.34199 7.68366 9.65033C7.06699 9.91699 6.66699 10.517 6.66699 11.192V11.667H13.3337V11.192Z" fill="#FC652C"/>
</svg>
