<svg width="17" height="12" viewBox="0 0 17 12" fill="none" xmlns="http://www.w3.org/2000/svg">
<path d="M12.0485 2.91627L15.8034 1.04297C15.929 0.979668 16.0687 0.949529 16.2093 0.955416C16.3498 0.961304 16.4865 1.00302 16.6064 1.07661C16.7263 1.1502 16.8254 1.25322 16.8943 1.37588C16.9632 1.49853 16.9995 1.63676 17 1.77744V10.0299C17.001 10.1712 16.9656 10.3105 16.8973 10.4343C16.829 10.5581 16.7301 10.6622 16.61 10.7368C16.4898 10.8113 16.3526 10.8538 16.2113 10.8601C16.0701 10.8663 15.9296 10.8362 15.8034 10.7726L12.0485 8.88278V10.0299C12.0485 10.4676 11.8746 10.8874 11.5651 11.1969C11.2556 11.5065 10.8358 11.6804 10.398 11.6804H2.1456C1.70787 11.6804 1.28806 11.5065 0.978533 11.1969C0.669007 10.8874 0.495117 10.4676 0.495117 10.0299V1.77744C0.495117 0.869672 1.23784 0.126953 2.1456 0.126953H10.398C10.8358 0.126953 11.2556 0.300843 11.5651 0.610369C11.8746 0.919895 12.0485 1.3397 12.0485 1.77744V2.91627ZM12.0485 4.76482V7.04249L15.3495 8.69297V3.11433L12.0485 4.76482ZM10.398 10.0299V1.77744H2.1456V10.0299H10.398Z" fill="#75C091"/>
</svg>
