<svg width="19" height="19" viewBox="0 0 19 19" fill="none" xmlns="http://www.w3.org/2000/svg">
<path d="M6.33317 12.3659L2.73109 14.163C2.61057 14.2237 2.47653 14.2526 2.3417 14.247C2.20687 14.2413 2.07572 14.2013 1.9607 14.1307C1.84569 14.0601 1.75063 13.9613 1.68455 13.8436C1.61848 13.726 1.58358 13.5934 1.58317 13.4584L1.58317 5.54175C1.58222 5.40613 1.61613 5.27254 1.68165 5.15379C1.74717 5.03504 1.84209 4.93511 1.95732 4.86359C2.07255 4.79206 2.20423 4.75134 2.33972 4.74533C2.47521 4.73932 2.60997 4.76821 2.73109 4.82925L6.33317 6.64216L6.33317 5.54175C6.33317 5.12182 6.49999 4.71909 6.79692 4.42216C7.09385 4.12523 7.49658 3.95841 7.9165 3.95841L15.8332 3.95841C16.2531 3.95841 16.6558 4.12523 16.9528 4.42216C17.2497 4.71909 17.4165 5.12182 17.4165 5.54175L17.4165 13.4584C17.4165 14.3292 16.704 15.0417 15.8332 15.0417L7.9165 15.0417C7.49658 15.0417 7.09385 14.8749 6.79692 14.578C6.49999 14.2811 6.33317 13.8783 6.33317 13.4584L6.33317 12.3659ZM6.33317 10.5926L6.33317 8.40758L3.1665 6.82425L3.1665 12.1759L6.33317 10.5926ZM7.9165 5.54175L7.9165 13.4584L15.8332 13.4584L15.8332 5.54175L7.9165 5.54175Z" fill="#0DB2B2"/>
</svg>
