<svg width="27" height="27" viewBox="0 0 27 27" fill="none" xmlns="http://www.w3.org/2000/svg">
<path d="M12.3188 18.6187L18.675 12.2625L17.0719 10.6594L12.3188 15.4125L9.92817 13.0219L8.32505 14.625L12.3188 18.6187ZM13.5 24.75C12.0938 24.75 10.7766 24.4828 9.54849 23.9484C8.32036 23.414 7.25161 22.6922 6.34224 21.7828C5.43286 20.8734 4.71099 19.8047 4.17661 18.5765C3.64224 17.3484 3.37505 16.0312 3.37505 14.625C3.37505 13.2187 3.64224 11.9016 4.17661 10.6734C4.71099 9.4453 5.43286 8.37655 6.34224 7.46718C7.25161 6.5578 8.32036 5.83593 9.54849 5.30155C10.7766 4.76718 12.0938 4.49999 13.5 4.49999C14.9063 4.49999 16.2235 4.76718 17.4516 5.30155C18.6797 5.83593 19.7485 6.5578 20.6579 7.46718C21.5672 8.37655 22.2891 9.4453 22.8235 10.6734C23.3579 11.9016 23.625 13.2187 23.625 14.625C23.625 16.0312 23.3579 17.3484 22.8235 18.5765C22.2891 19.8047 21.5672 20.8734 20.6579 21.7828C19.7485 22.6922 18.6797 23.414 17.4516 23.9484C16.2235 24.4828 14.9063 24.75 13.5 24.75ZM6.30005 2.64374L7.87505 4.21874L3.0938 8.99999L1.5188 7.42499L6.30005 2.64374ZM20.7001 2.64374L25.4813 7.42499L23.9063 8.99999L19.125 4.21874L20.7001 2.64374ZM13.5 22.5C15.6938 22.5 17.5547 21.7359 19.0829 20.2078C20.611 18.6797 21.375 16.8187 21.375 14.625C21.375 12.4312 20.611 10.5703 19.0829 9.04218C17.5547 7.51405 15.6938 6.74999 13.5 6.74999C11.3063 6.74999 9.44536 7.51405 7.91724 9.04218C6.38911 10.5703 5.62505 12.4312 5.62505 14.625C5.62505 16.8187 6.38911 18.6797 7.91724 20.2078C9.44536 21.7359 11.3063 22.5 13.5 22.5Z" fill="#0DB2B2"/>
</svg>
