<svg width="32" height="32" viewBox="0 0 32 32" fill="none" xmlns="http://www.w3.org/2000/svg">
<path d="M14.6399 29.3334C14.6399 29.3334 14.5466 29.3201 14.4933 29.3068C13.1066 29.2268 11.7066 29.1734 10.3199 29.0534C8.59994 28.9068 6.87994 28.6401 5.22661 28.1068C4.85327 27.9868 4.49327 27.8268 4.11994 27.6801C3.93327 27.6001 3.86661 27.4534 3.87994 27.2534C3.93327 25.5868 4.39994 24.0401 5.23994 22.6001C5.83994 21.5868 6.67994 20.8534 7.77327 20.4134C8.78661 20.0134 9.77327 19.5601 10.7733 19.1334C10.7999 19.1334 10.8266 19.1068 10.8533 19.1068C10.9999 19.0534 11.0266 19.0668 11.0399 19.2268C11.0399 19.3734 11.0399 19.5334 11.0666 19.6801C11.1999 20.7601 11.5866 21.7468 12.1599 22.6668C12.2666 22.8268 12.3866 22.8934 12.5866 22.8534C13.3599 22.7068 14.0533 22.3868 14.6533 21.8934C14.7999 21.7734 14.9199 21.7601 15.1066 21.8268C15.7199 22.0534 16.3466 22.0534 16.9466 21.8001C17.0666 21.7468 17.1466 21.7468 17.2533 21.8401C17.7599 22.2668 18.3333 22.5868 18.9733 22.7734C19.1733 22.8268 19.3733 22.8534 19.5733 22.8934C19.6133 22.8934 19.6933 22.8668 19.7199 22.8268C20.3866 21.8401 20.8133 20.7601 20.9333 19.5601C20.9466 19.4001 20.9466 19.2534 20.9599 19.0801C21.0133 19.0801 21.0533 19.0801 21.0933 19.1068C22.3333 19.6401 23.5866 20.1734 24.8266 20.7201C25.5999 21.0668 26.1466 21.6668 26.5999 22.3601C27.3999 23.5734 27.8533 24.9201 28.0533 26.3601C28.0799 26.5868 28.1066 26.8134 28.1333 27.0401V27.2134C28.1333 27.6134 27.8533 27.7468 27.5466 27.8534C27.2533 27.9601 26.9733 28.0668 26.6799 28.1468C25.0666 28.6401 23.4133 28.9068 21.7333 29.0668C20.3733 29.1868 18.9999 29.2401 17.6266 29.3201C17.5333 29.3201 17.4399 29.3334 17.3466 29.3468H14.6266L14.6399 29.3334ZM15.5066 24.3334C15.5066 24.7734 15.8399 25.1201 16.2799 25.1201C16.7199 25.1201 17.1066 24.7601 17.1066 24.3468C17.1066 23.9068 16.7199 23.5334 16.2666 23.5201C15.8533 23.5201 15.5199 23.8801 15.5066 24.3334ZM16.2933 26.0134C15.8266 26.0134 15.5066 26.3201 15.5066 26.7601C15.5066 27.2134 15.8666 27.6001 16.2799 27.6001C16.7199 27.6001 17.0933 27.2401 17.0933 26.7868C17.0933 26.3601 16.7333 26.0134 16.2933 26.0001V26.0134Z" fill="black"/>
<path d="M16.1067 2.6665C16.3734 2.69317 16.64 2.7065 16.8934 2.75984C19.1467 3.11984 20.9067 4.19984 21.9067 6.31984C22.1067 6.73317 22.2 7.1865 22.3067 7.6265C22.3467 7.79984 22.4134 7.87984 22.5867 7.91984C22.84 7.97317 23.0934 8.07984 23.2534 8.29317C23.3467 8.4265 23.4534 8.59984 23.4534 8.75984C23.4667 9.93317 23.4534 11.0932 23.4534 12.2665C23.4534 12.4798 23.3334 12.6132 23.2 12.7465C22.8534 13.1065 22.16 13.2132 21.76 12.9732C21.6667 12.9198 21.64 12.8532 21.64 12.7598C21.64 11.5198 21.6267 10.2665 21.6133 9.0265C21.6133 8.73317 21.6134 8.43984 21.5867 8.13317C21.5334 6.81317 20.9067 5.7865 19.9467 4.93317C19.1867 4.25317 18.2934 3.81317 17.3067 3.57317C17.12 3.53317 16.9334 3.49317 16.7467 3.49317C16.1467 3.49317 15.5467 3.41317 14.96 3.49317C12.8134 3.79984 11.2267 4.87984 10.3467 6.91984C10.1734 7.33317 10.12 7.77317 10.12 8.2265C10.12 9.91984 10.0934 11.5998 10.12 13.2932C10.1467 14.6132 10.5067 15.8532 11.2 16.9732C11.8934 18.0932 12.8534 18.8532 14.1467 19.1598C14.2267 19.1732 14.3067 19.1998 14.3867 19.2132C14.48 19.2265 14.5467 19.2132 14.6 19.1065C14.8534 18.5065 15.3067 18.2398 15.96 18.2932C16.4134 18.3198 16.8667 18.3065 17.32 18.3198C17.7734 18.3332 18.24 18.7065 18.2534 19.2398C18.2534 19.5065 18.2667 19.7598 18.2534 20.0265C18.2134 20.4932 17.8534 20.8532 17.3867 20.8932C16.9067 20.9198 16.4267 20.8932 15.9334 20.8932C15.7734 20.8932 15.6134 20.8665 15.4667 20.8932C15.2267 20.9198 15.0534 20.8132 14.92 20.6398C14.8134 20.5065 14.72 20.3465 14.6267 20.1998C14.56 20.0798 14.4667 19.9998 14.32 19.9732C12.24 19.5598 10.8667 18.3065 10.0534 16.3865C9.65335 15.4665 9.45335 14.4932 9.36002 13.4932C9.33335 13.1598 9.33335 13.1598 9.01335 13.0665C8.77335 12.9998 8.57335 12.8798 8.42668 12.6798C8.34668 12.5732 8.26668 12.4132 8.26668 12.2798C8.24002 11.3732 8.24002 10.4665 8.22668 9.55984C8.22668 9.29317 8.24002 9.01317 8.25335 8.7465C8.25335 8.5065 8.36002 8.31984 8.56002 8.19984C8.76002 8.07984 8.97335 7.99984 9.18668 7.91984C9.30668 7.87984 9.36002 7.83984 9.38668 7.7065C9.56002 6.57317 10.0534 5.59984 10.8267 4.77317C11.8534 3.69317 13.12 3.07984 14.5734 2.79984C14.7734 2.75984 14.9734 2.71984 15.1734 2.69317C15.4667 2.69317 15.76 2.69317 16.0667 2.69317L16.1067 2.6665Z" fill="black"/>
<path d="M14.1334 18.4269C13.32 18.1469 12.68 17.6802 12.16 17.0402C11.5067 16.2402 11.16 15.3069 10.9867 14.2936C10.8267 13.3202 10.8134 12.3336 10.8134 11.3469C10.8134 10.3602 10.8134 9.37357 10.8534 8.3869C10.8934 7.1869 11.3734 6.21357 12.28 5.4269C12.88 4.9069 13.6 4.6269 14.3467 4.41357C15.7067 4.0269 17.0267 4.16023 18.32 4.72023C19.1334 5.0669 19.7867 5.60023 20.28 6.32023C20.68 6.92023 20.9067 7.57357 20.9067 8.29357C20.9067 10.0002 20.9467 11.6936 20.9067 13.4002C20.8667 14.6402 20.56 15.8269 19.8 16.8402C19.48 17.2669 19.1067 17.6536 18.6667 17.9469C18.56 18.0269 18.4667 18.0269 18.3467 17.9469C18.0934 17.7602 17.8 17.6402 17.48 17.6002C16.7734 17.5202 16.0534 17.5202 15.36 17.6002C14.84 17.6669 14.3867 17.8936 14.1467 18.4136L14.1334 18.4269Z" fill="black"/>
</svg>
