<svg width="38" height="37" viewBox="0 0 38 37" fill="none" xmlns="http://www.w3.org/2000/svg">
<g clip-path="url(#clip0_2690_4427)">
<path d="M26.7006 15.1269L20.2318 26.3311C18.9887 28.4843 16.2379 29.2214 14.0847 27.9783C11.9316 26.7351 11.1945 23.9843 12.4376 21.8311L19.4689 9.65267C20.2451 8.30816 21.9663 7.84697 23.3108 8.62322C24.6553 9.39947 25.1165 11.1207 24.3403 12.4652L18.434 22.6951C18.1246 23.2309 17.4331 23.4162 16.8972 23.1069C16.3614 22.7975 16.1761 22.1059 16.4855 21.5701L21.8292 12.3144L20.3678 11.4707L15.024 20.7263C14.2478 22.0708 14.709 23.792 16.0535 24.5683C17.398 25.3445 19.1192 24.8833 19.8954 23.5388L25.8017 13.3089C27.0448 11.1558 26.3077 8.40493 24.1546 7.1618C22.0014 5.91868 19.2506 6.65576 18.0074 8.80892L10.9762 20.9874C9.2662 23.9492 10.2792 27.7297 13.241 29.4397C16.2028 31.1497 19.9833 30.1367 21.6933 27.1749L28.162 15.9707L26.7006 15.1269Z" fill="#0DB2B2"/>
</g>
<defs>
<clipPath id="clip0_2690_4427">
<rect width="27" height="27" fill="white" transform="translate(14) rotate(30)"/>
</clipPath>
</defs>
</svg>
