<svg width="27" height="27" viewBox="0 0 27 27" fill="none" xmlns="http://www.w3.org/2000/svg">
<path d="M6.75 24.75C5.8125 24.75 5.01562 24.4219 4.35938 23.7656C3.70312 23.1094 3.375 22.3125 3.375 21.375V5.625C3.375 4.6875 3.70312 3.89062 4.35938 3.23438C5.01562 2.57812 5.8125 2.25 6.75 2.25H19.125V20.25H6.75C6.43125 20.25 6.16406 20.3578 5.94844 20.5734C5.73281 20.7891 5.625 21.0562 5.625 21.375C5.625 21.6938 5.73281 21.9609 5.94844 22.1766C6.16406 22.3922 6.43125 22.5 6.75 22.5H21.375V4.5H23.625V24.75H6.75ZM10.125 18H16.875V4.5H10.125V18ZM7.875 18V4.5H6.75C6.43125 4.5 6.16406 4.60781 5.94844 4.82344C5.73281 5.03906 5.625 5.30625 5.625 5.625V18.1969C5.8125 18.1406 5.99531 18.0938 6.17344 18.0562C6.35156 18.0187 6.54375 18 6.75 18H7.875Z" fill="#0DB2B2"/>
</svg>
