<svg width="27" height="27" viewBox="0 0 27 27" fill="none" xmlns="http://www.w3.org/2000/svg">
<g clip-path="url(#clip0_2690_4305)">
<path d="M21.375 4.5H20.25V2.25H18V4.5H9V2.25H6.75V4.5H5.625C4.37625 4.5 3.38625 5.5125 3.38625 6.75L3.375 22.5C3.375 23.7375 4.37625 24.75 5.625 24.75H21.375C22.6125 24.75 23.625 23.7375 23.625 22.5V6.75C23.625 5.5125 22.6125 4.5 21.375 4.5ZM21.375 22.5H5.625V11.25H21.375V22.5ZM10.125 15.75H7.875V13.5H10.125V15.75ZM14.625 15.75H12.375V13.5H14.625V15.75ZM19.125 15.75H16.875V13.5H19.125V15.75ZM10.125 20.25H7.875V18H10.125V20.25ZM14.625 20.25H12.375V18H14.625V20.25ZM19.125 20.25H16.875V18H19.125V20.25Z" fill="#0DB2B2"/>
</g>
<defs>
<clipPath id="clip0_2690_4305">
<rect width="27" height="27" fill="white"/>
</clipPath>
</defs>
</svg>
