<svg width="28" height="28" viewBox="0 0 28 28" fill="none" xmlns="http://www.w3.org/2000/svg">
<g clip-path="url(#clip0_3008_1198)">
<path d="M14 4.66683C19.145 4.66683 23.3333 8.85516 23.3333 14.0002C23.3333 19.1452 19.145 23.3335 14 23.3335C12.6233 23.3335 11.27 23.0302 9.99829 22.4235C9.68329 22.2718 9.34496 22.2018 8.99496 22.2018C8.77329 22.2018 8.55163 22.2368 8.34163 22.2952L4.60829 23.3918L5.70496 19.6585C5.86829 19.1102 5.82163 18.5152 5.57663 18.0018C4.96996 16.7302 4.66663 15.3768 4.66663 14.0002C4.66663 8.85516 8.85496 4.66683 14 4.66683ZM14 2.3335C7.55996 2.3335 2.33329 7.56016 2.33329 14.0002C2.33329 15.7968 2.75329 17.4768 3.46496 19.0052L1.16663 26.8335L8.99496 24.5352C10.5233 25.2468 12.2033 25.6668 14 25.6668C20.44 25.6668 25.6666 20.4402 25.6666 14.0002C25.6666 7.56016 20.44 2.3335 14 2.3335Z" fill="black"/>
</g>
<defs>
<clipPath id="clip0_3008_1198">
<rect width="28" height="28" fill="white"/>
</clipPath>
</defs>
</svg>
