<svg width="40" height="40" viewBox="0 0 40 40" fill="none" xmlns="http://www.w3.org/2000/svg">
<path d="M20.0833 13.0166C18.6987 13.0001 17.3404 13.3956 16.1811 14.1528C15.0218 14.91 14.1138 15.9948 13.5724 17.2693C13.0311 18.5438 12.8808 19.9504 13.1408 21.3105C13.4008 22.6706 14.0592 23.9227 15.0324 24.9077C16.0057 25.8927 17.2498 26.5661 18.6066 26.8424C19.9635 27.1186 21.3718 26.9853 22.6527 26.4593C23.9336 25.9333 25.0292 25.0383 25.8003 23.8882C26.5714 22.7381 26.9832 21.3846 26.9833 19.9999C26.9791 18.1635 26.2534 16.4023 24.9627 15.0959C23.6719 13.7896 21.9195 13.0428 20.0833 13.0166Z" fill="black"/>
<path d="M12.1666 27.5667C11.9223 27.5712 11.687 27.6595 11.5 27.8167C10.4666 28.8167 9.43328 29.8167 8.44995 30.8667C8.24995 31.0667 8.28328 31.4667 8.19995 31.7834C8.51662 31.7834 8.91662 31.7834 9.11662 31.5834C10.1666 30.6 11.1666 29.5667 12.1666 28.55C12.3172 28.3642 12.4564 28.1694 12.5833 27.9667C12.4166 27.8 12.2833 27.55 12.1666 27.5667Z" fill="black"/>
<path d="M31.55 9.16674C31.7063 8.98138 31.851 8.78657 31.9833 8.58341C31.85 8.41674 31.75 8.15007 31.6333 8.15007C31.3936 8.12829 31.1548 8.19994 30.9666 8.35007C29.9 9.38341 28.85 10.4167 27.8333 11.5001C27.6666 11.6834 27.7 12.0501 27.6333 12.3334C27.95 12.3334 28.35 12.3334 28.55 12.1334C29.5833 11.1667 30.5666 10.1667 31.55 9.16674Z" fill="black"/>
<path d="M20 9.18325C20.15 8.93325 20.4 8.69992 20.4167 8.44992C20.4167 7.73325 20.4167 7.01659 20.4167 6.29992C20.4167 5.58325 20.4167 4.79992 20.4167 4.04992C20.4167 3.79992 20.1333 3.56659 19.9667 3.33325C19.8 3.56659 19.4833 3.79992 19.4667 4.03325C19.4667 5.53325 19.4667 7.01659 19.4667 8.51659C19.5333 8.74992 19.8667 8.96659 20 9.18325Z" fill="black"/>
<path d="M11.6667 12.35C11.7496 12.3911 11.8409 12.4125 11.9334 12.4125C12.0259 12.4125 12.1172 12.3911 12.2001 12.35C12.3334 12.35 12.4334 12.0834 12.5334 11.95C12.5025 11.8498 12.4576 11.7544 12.4001 11.6667C11.2167 10.5334 10.0001 9.35003 8.85006 8.18336C8.75006 8.08336 8.31672 8.18336 8.26672 8.18336C8.21672 8.18336 8.11672 8.73336 8.26672 8.85003C9.35006 10 10.5167 11.2167 11.6667 12.35Z" fill="black"/>
<path d="M20.4667 31.5167C20.4667 31.2833 20.1667 31.05 19.9834 30.8167C19.8334 31.0333 19.5334 31.2333 19.5167 31.45C19.5167 32.9833 19.5167 34.5333 19.5167 36.0666C19.5167 36.2666 19.8334 36.4667 20.0167 36.6667C20.1667 36.4667 20.4501 36.2667 20.4667 36.0333C20.4667 35.2833 20.4667 34.5333 20.4667 33.7833C20.5001 33.0333 20.5334 32.2667 20.4667 31.5167Z" fill="black"/>
<path d="M9.19998 19.9999C8.98331 19.8333 8.78331 19.5166 8.56664 19.5166C7.03331 19.5166 5.51664 19.5166 3.98331 19.5166C3.76664 19.5166 3.54998 19.8166 3.34998 19.9833C3.56664 20.1666 3.78331 20.4666 4.01664 20.4833C4.74998 20.4833 5.49998 20.4833 6.24998 20.4833C6.99998 20.4833 7.76664 20.4833 8.49998 20.4833C8.74998 20.4499 8.96664 20.1499 9.19998 19.9999Z" fill="black"/>
<path d="M36.0166 19.5C35.2666 19.5 34.5166 19.5 33.7666 19.5C33 19.5 32.25 19.5 31.5 19.5C31.2666 19.5 31.0666 19.85 30.85 20.0333C31.0666 20.1833 31.2666 20.4667 31.4833 20.4833C33 20.4833 34.5 20.4833 36 20.4833C36.2166 20.4833 36.4333 20.15 36.65 19.9667C36.45 19.7833 36.2333 19.5167 36.0166 19.5Z" fill="black"/>
<path d="M28.3334 27.6666C28.2 27.5499 27.8667 27.6666 27.6334 27.6666C27.6334 27.8999 27.55 28.2333 27.6334 28.3666C28.7667 29.5333 29.9167 30.6999 31.1 31.8166C31.2334 31.9333 31.6333 31.8166 32.05 31.7166C31.956 31.4885 31.8388 31.2706 31.7 31.0666C30.6167 29.9999 29.5 28.7666 28.3334 27.6666Z" fill="black"/>
</svg>
