<svg width="28" height="28" viewBox="0 0 28 28" fill="none" xmlns="http://www.w3.org/2000/svg">
<path d="M19.4484 25.6668H8.55169L8.16669 25.5618C7.58012 25.3958 7.06758 25.0349 6.71345 24.5387C6.35932 24.0425 6.1847 23.4405 6.21835 22.8318C6.21835 18.9429 6.21835 15.0229 6.21835 11.0718C6.25438 10.8939 6.23706 10.7093 6.16857 10.5412C6.10007 10.3731 5.98346 10.2289 5.83335 10.1268C5.34948 9.80631 4.98034 9.33991 4.77954 8.79534C4.57874 8.25077 4.55673 7.65638 4.7167 7.09845C4.87666 6.54052 5.21028 6.0481 5.66912 5.69266C6.12797 5.33722 6.68815 5.13727 7.26835 5.12183H10.85C10.913 4.61617 11.0977 4.13332 11.3882 3.71473C11.6788 3.29613 12.0666 2.95428 12.5184 2.7185C12.8743 2.56428 13.2408 2.43562 13.615 2.3335H14.385C14.9813 2.44143 15.5421 2.69378 16.0184 3.0685C16.6454 3.58712 17.0605 4.31768 17.185 5.12183H17.5C18.5967 5.12183 19.6934 5.12183 20.8017 5.12183C21.3986 5.13523 21.9735 5.34995 22.4331 5.73115C22.8926 6.11235 23.2099 6.63765 23.3334 7.22183C23.4762 7.79613 23.427 8.40143 23.1931 8.94506C22.9592 9.48869 22.5536 9.94068 22.0384 10.2318C21.9324 10.2762 21.8434 10.3534 21.7846 10.4522C21.7258 10.5509 21.7003 10.6658 21.7117 10.7802C21.7117 14.7585 21.7117 18.7485 21.7117 22.7268C21.7424 23.1733 21.6614 23.6204 21.4761 24.0278C21.2907 24.4352 21.0068 24.79 20.65 25.0602C20.2695 25.2998 19.8672 25.503 19.4484 25.6668ZM7.51335 10.6168V22.8902C7.49998 23.0999 7.53284 23.3101 7.60962 23.5057C7.6864 23.7014 7.80522 23.8778 7.95769 24.0224C8.11015 24.1671 8.29254 24.2765 8.49195 24.3429C8.69136 24.4094 8.90292 24.4312 9.11169 24.4068C10.045 24.4068 10.99 24.4068 11.9234 24.4068H18.9234C19.1353 24.4347 19.3508 24.4128 19.5528 24.343C19.7548 24.2731 19.9377 24.1572 20.0871 24.0044C20.2366 23.8515 20.3484 23.666 20.4137 23.4625C20.479 23.259 20.496 23.0431 20.4634 22.8318C20.4634 19.8918 20.4634 16.9441 20.4634 13.9885V10.6168H7.51335ZM14 9.3335H20.58C20.7581 9.35711 20.9386 9.35711 21.1167 9.3335C21.4806 9.24486 21.795 9.01634 21.9915 8.69748C22.1881 8.37861 22.251 7.99512 22.1667 7.63016C22.1093 7.28391 21.924 6.97184 21.6474 6.75576C21.3708 6.53969 21.0232 6.43538 20.6734 6.4635H7.33835C7.09408 6.4613 6.85193 6.50893 6.62669 6.6035C6.34284 6.74284 6.11198 6.97067 5.96889 7.25265C5.82579 7.53462 5.77823 7.85547 5.83335 8.16683C5.89321 8.51189 6.07919 8.82237 6.35517 9.03798C6.63114 9.25358 6.9774 9.35891 7.32669 9.3335H14ZM15.82 5.11016C15.7317 4.64686 15.4703 4.23458 15.0889 3.95717C14.7074 3.67976 14.2347 3.55807 13.7667 3.61683C12.9734 3.61683 12.145 4.52683 12.2034 5.11016H15.82Z" fill="white"/>
<path d="M14.6417 18.6667C14.6417 19.8334 14.6417 20.9301 14.6417 22.0617C14.6439 22.2426 14.5954 22.4204 14.5017 22.5751C14.4395 22.6652 14.3541 22.7368 14.2545 22.7824C14.1549 22.8279 14.0449 22.8456 13.936 22.8337C13.8272 22.8217 13.7236 22.7805 13.6363 22.7144C13.5489 22.6484 13.4811 22.5599 13.44 22.4584C13.3925 22.3276 13.3688 22.1893 13.37 22.0501V15.1667C13.3637 15.0775 13.3754 14.9879 13.4045 14.9033C13.4337 14.8187 13.4795 14.7409 13.5395 14.6744C13.5994 14.608 13.6721 14.5543 13.7532 14.5166C13.8344 14.4789 13.9223 14.458 14.0117 14.4551C14.1016 14.4595 14.1898 14.4819 14.271 14.5208C14.3522 14.5597 14.4248 14.6145 14.4845 14.6819C14.5443 14.7492 14.59 14.8279 14.619 14.9131C14.648 14.9984 14.6597 15.0886 14.6533 15.1784V18.6784L14.6417 18.6667Z" fill="white"/>
<path d="M9.97503 18.5848C9.97503 17.4182 9.97503 16.3215 9.97503 15.1898C9.96201 15.096 9.96817 15.0005 9.99312 14.9092C10.0181 14.8178 10.0613 14.7325 10.1202 14.6583C10.1791 14.5841 10.2524 14.5227 10.3358 14.4777C10.4191 14.4327 10.5107 14.4051 10.605 14.3965C10.9784 14.3965 11.235 14.6882 11.2467 15.1665V22.0965C11.2533 22.1866 11.2409 22.2771 11.2101 22.362C11.1794 22.447 11.131 22.5245 11.0682 22.5895C11.0055 22.6545 10.9297 22.7054 10.8458 22.7391C10.762 22.7728 10.672 22.7883 10.5817 22.7848C10.4958 22.7789 10.412 22.7561 10.3349 22.7177C10.2579 22.6792 10.1892 22.626 10.1329 22.5609C10.0765 22.4959 10.0335 22.4203 10.0064 22.3386C9.97935 22.2569 9.96867 22.1707 9.97503 22.0848V18.5848Z" fill="white"/>
<path d="M18.0133 18.6667C18.0133 19.8334 18.0133 21 18.0133 22.0967C18.0133 22.5517 17.7683 22.8434 17.395 22.8434C17.0216 22.8434 16.765 22.575 16.7533 22.1084V15.1667C16.7436 15.0771 16.7525 14.9865 16.7795 14.9006C16.8065 14.8147 16.851 14.7352 16.9102 14.6673C16.9693 14.5994 17.0419 14.5444 17.1233 14.5059C17.2048 14.4673 17.2933 14.4461 17.3833 14.4434C17.4754 14.4476 17.5656 14.4707 17.6485 14.5111C17.7314 14.5515 17.8051 14.6084 17.8652 14.6783C17.9253 14.7482 17.9705 14.8297 17.9979 14.9177C18.0254 15.0057 18.0346 15.0983 18.025 15.19V18.69L18.0133 18.6667Z" fill="white"/>
</svg>
