<svg width="32" height="32" viewBox="0 0 32 32" fill="none" xmlns="http://www.w3.org/2000/svg">
<path d="M16.0001 29.3334C14.1556 29.3334 12.4223 28.9834 10.8001 28.2834C9.17786 27.5834 7.76675 26.6334 6.56675 25.4334C5.36675 24.2334 4.41675 22.8223 3.71675 21.2001C3.01675 19.5779 2.66675 17.8445 2.66675 16.0001C2.66675 13.0667 3.5223 10.4279 5.23341 8.08341C6.94453 5.73897 9.20008 4.13341 12.0001 3.26675V6.13341C9.97786 6.95564 8.36119 8.26119 7.15008 10.0501C5.93897 11.839 5.33341 13.8223 5.33341 16.0001C5.33341 18.9779 6.36675 21.5001 8.43341 23.5667C10.5001 25.6334 13.0223 26.6667 16.0001 26.6667C18.9779 26.6667 21.5001 25.6334 23.5667 23.5667C25.6334 21.5001 26.6667 18.9779 26.6667 16.0001C26.6667 13.8223 26.0612 11.839 24.8501 10.0501C23.639 8.26119 22.0223 6.95564 20.0001 6.13341V3.26675C22.8001 4.13341 25.0556 5.73897 26.7667 8.08341C28.4779 10.4279 29.3334 13.0667 29.3334 16.0001C29.3334 17.8445 28.9834 19.5779 28.2834 21.2001C27.5834 22.8223 26.6334 24.2334 25.4334 25.4334C24.2334 26.6334 22.8223 27.5834 21.2001 28.2834C19.5779 28.9834 17.8445 29.3334 16.0001 29.3334ZM16.0001 21.3334L9.33341 14.6667L11.2001 12.8001L14.6667 16.2334V2.66675H17.3334V16.2334L20.8001 12.8001L22.6667 14.6667L16.0001 21.3334Z" fill="#0DB2B2"/>
</svg>
