<svg width="32" height="32" viewBox="0 0 32 32" fill="none" xmlns="http://www.w3.org/2000/svg">
<g clip-path="url(#clip0_209_319)">
<path d="M16.0001 2.6665C8.65341 2.6665 2.66675 8.65317 2.66675 15.9998C2.66675 23.3465 8.65341 29.3332 16.0001 29.3332C23.3467 29.3332 29.3334 23.3465 29.3334 15.9998C29.3334 8.65317 23.3467 2.6665 16.0001 2.6665ZM16.0001 26.6665C10.1201 26.6665 5.33341 21.8798 5.33341 15.9998C5.33341 10.1198 10.1201 5.33317 16.0001 5.33317C21.8801 5.33317 26.6667 10.1198 26.6667 15.9998C26.6667 21.8798 21.8801 26.6665 16.0001 26.6665ZM19.4534 11.4532L21.3334 13.3332L16.0001 18.6665L10.6667 13.3332L12.5467 11.4532L14.6667 13.5598V7.99984H17.3334V13.5598L19.4534 11.4532ZM22.6667 22.6665H9.33341V19.9998H22.6667V22.6665Z" fill="#224F58"/>
</g>
<defs>
<clipPath id="clip0_209_319">
<rect width="32" height="32" fill="white"/>
</clipPath>
</defs>
</svg>
