<svg width="30" height="30" viewBox="0 0 30 30" fill="none" xmlns="http://www.w3.org/2000/svg">
<path d="M13.725 27.5C13.725 27.5 13.6375 27.4875 13.5875 27.475C12.2875 27.4 10.975 27.35 9.675 27.2375C8.0625 27.1 6.45 26.85 4.9 26.35C4.55 26.2375 4.2125 26.0875 3.8625 25.95C3.6875 25.875 3.625 25.7375 3.6375 25.55C3.6875 23.9875 4.125 22.5375 4.9125 21.1875C5.475 20.2375 6.2625 19.55 7.2875 19.1375C8.2375 18.7625 9.1625 18.3375 10.1 17.9375C10.125 17.9375 10.15 17.9125 10.175 17.9125C10.3125 17.8625 10.3375 17.875 10.35 18.025C10.35 18.1625 10.35 18.3125 10.375 18.45C10.5 19.4625 10.8625 20.3875 11.4 21.25C11.5 21.4 11.6125 21.4625 11.8 21.425C12.525 21.2875 13.175 20.9875 13.7375 20.525C13.875 20.4125 13.9875 20.4 14.1625 20.4625C14.7375 20.675 15.325 20.675 15.8875 20.4375C16 20.3875 16.075 20.3875 16.175 20.475C16.65 20.875 17.1875 21.175 17.7875 21.35C17.975 21.4 18.1625 21.425 18.35 21.4625C18.3875 21.4625 18.4625 21.4375 18.4875 21.4C19.1125 20.475 19.5125 19.4625 19.625 18.3375C19.6375 18.1875 19.6375 18.05 19.65 17.8875C19.7 17.8875 19.7375 17.8875 19.775 17.9125C20.9375 18.4125 22.1125 18.9125 23.275 19.425C24 19.75 24.5125 20.3125 24.9375 20.9625C25.6875 22.1 26.1125 23.3625 26.3 24.7125C26.325 24.925 26.35 25.1375 26.375 25.35V25.5125C26.375 25.8875 26.1125 26.0125 25.825 26.1125C25.55 26.2125 25.2875 26.3125 25.0125 26.3875C23.5 26.85 21.95 27.1 20.375 27.25C19.1 27.3625 17.8125 27.4125 16.525 27.4875C16.4375 27.4875 16.35 27.5 16.2625 27.5125H13.7125L13.725 27.5ZM14.5375 22.8125C14.5375 23.225 14.85 23.55 15.2625 23.55C15.675 23.55 16.0375 23.2125 16.0375 22.825C16.0375 22.4125 15.675 22.0625 15.25 22.05C14.8625 22.05 14.55 22.3875 14.5375 22.8125ZM15.275 24.3875C14.8375 24.3875 14.5375 24.675 14.5375 25.0875C14.5375 25.5125 14.875 25.875 15.2625 25.875C15.675 25.875 16.025 25.5375 16.025 25.1125C16.025 24.7125 15.6875 24.3875 15.275 24.375V24.3875Z" fill="#0DB2B2"/>
<path d="M15.1 2.5C15.35 2.525 15.6 2.5375 15.8375 2.5875C17.95 2.925 19.6 3.9375 20.5375 5.925C20.725 6.3125 20.8125 6.7375 20.9125 7.15C20.95 7.3125 21.0125 7.3875 21.175 7.425C21.4125 7.475 21.65 7.575 21.8 7.775C21.8875 7.9 21.9875 8.0625 21.9875 8.2125C22 9.3125 21.9875 10.4 21.9875 11.5C21.9875 11.7 21.875 11.825 21.75 11.95C21.425 12.2875 20.775 12.3875 20.4 12.1625C20.3125 12.1125 20.2875 12.05 20.2875 11.9625C20.2875 10.8 20.275 9.625 20.2625 8.4625C20.2625 8.1875 20.2625 7.9125 20.2375 7.625C20.1875 6.3875 19.6 5.425 18.7 4.625C17.9875 3.9875 17.15 3.575 16.225 3.35C16.05 3.3125 15.875 3.275 15.7 3.275C15.1375 3.275 14.575 3.2 14.025 3.275C12.0125 3.5625 10.525 4.575 9.7 6.4875C9.5375 6.875 9.4875 7.2875 9.4875 7.7125C9.4875 9.3 9.4625 10.875 9.4875 12.4625C9.5125 13.7 9.85 14.8625 10.5 15.9125C11.15 16.9625 12.05 17.675 13.2625 17.9625C13.3375 17.975 13.4125 18 13.4875 18.0125C13.575 18.025 13.6375 18.0125 13.6875 17.9125C13.925 17.35 14.35 17.1 14.9625 17.15C15.3875 17.175 15.8125 17.1625 16.2375 17.175C16.6625 17.1875 17.1 17.5375 17.1125 18.0375C17.1125 18.2875 17.125 18.525 17.1125 18.775C17.075 19.2125 16.7375 19.55 16.3 19.5875C15.85 19.6125 15.4 19.5875 14.9375 19.5875C14.7875 19.5875 14.6375 19.5625 14.5 19.5875C14.275 19.6125 14.1125 19.5125 13.9875 19.35C13.8875 19.225 13.8 19.075 13.7125 18.9375C13.65 18.825 13.5625 18.75 13.425 18.725C11.475 18.3375 10.1875 17.1625 9.425 15.3625C9.05 14.5 8.8625 13.5875 8.775 12.65C8.75 12.3375 8.75 12.3375 8.45 12.25C8.225 12.1875 8.0375 12.075 7.9 11.8875C7.825 11.7875 7.75 11.6375 7.75 11.5125C7.725 10.6625 7.725 9.8125 7.7125 8.9625C7.7125 8.7125 7.725 8.45 7.7375 8.2C7.7375 7.975 7.8375 7.8 8.025 7.6875C8.2125 7.575 8.4125 7.5 8.6125 7.425C8.725 7.3875 8.775 7.35 8.8 7.225C8.9625 6.1625 9.425 5.25 10.15 4.475C11.1125 3.4625 12.3 2.8875 13.6625 2.625C13.85 2.5875 14.0375 2.55 14.225 2.525C14.5 2.525 14.775 2.525 15.0625 2.525L15.1 2.5Z" fill="#0DB2B2"/>
<path d="M13.25 17.2749C12.4875 17.0124 11.8875 16.5749 11.4 15.9749C10.7875 15.2249 10.4625 14.3499 10.3 13.3999C10.15 12.4874 10.1375 11.5624 10.1375 10.6374C10.1375 9.71244 10.1375 8.78744 10.175 7.86244C10.2125 6.73744 10.6625 5.82494 11.5125 5.08744C12.075 4.59994 12.75 4.33744 13.45 4.13744C14.725 3.77494 15.9625 3.89994 17.175 4.42494C17.9375 4.74994 18.55 5.24994 19.0125 5.92494C19.3875 6.48744 19.6 7.09994 19.6 7.77494C19.6 9.37494 19.6375 10.9624 19.6 12.5624C19.5625 13.7249 19.275 14.8374 18.5625 15.7874C18.2625 16.1874 17.9125 16.5499 17.5 16.8249C17.4 16.8999 17.3125 16.8999 17.2 16.8249C16.9625 16.6499 16.6875 16.5374 16.3875 16.4999C15.725 16.4249 15.05 16.4249 14.4 16.4999C13.9125 16.5624 13.4875 16.7749 13.2625 17.2624L13.25 17.2749Z" fill="#0DB2B2"/>
</svg>
