<svg width="32" height="32" viewBox="0 0 32 32" fill="none" xmlns="http://www.w3.org/2000/svg">
<path d="M17.88 21.2135C17.88 20.6269 17.88 20.0269 17.88 19.4402C17.8992 19.1346 17.8536 18.8284 17.7462 18.5416C17.6387 18.2548 17.4719 17.994 17.2566 17.7762C17.0414 17.5584 16.7825 17.3886 16.497 17.2778C16.2115 17.1671 15.9058 17.1179 15.6 17.1336C14.9067 17.1336 14.2667 17.1336 13.52 17.1336C13.1333 17.1336 13.0267 17.0269 13.12 16.6535C13.2133 16.2802 13.3867 15.5069 13.5067 14.9335C13.7067 13.9335 13.6933 13.9469 14.6267 14.3869C15.0944 14.7214 15.6413 14.9283 16.2133 14.9869C17.1867 14.9869 18.16 14.9869 19.1333 14.8669C19.36 14.8669 19.4933 14.8669 19.5867 15.0802C19.68 15.2936 19.9867 15.5869 20.3467 15.4002C20.7067 15.2136 20.6533 14.8802 20.4933 14.5869C20.3364 14.322 20.2886 14.0064 20.36 13.7069C20.4431 13.4514 20.4293 13.1742 20.3211 12.9283C20.2129 12.6824 20.0179 12.4849 19.7733 12.3735C19.389 12.1699 19.0978 11.8261 18.96 11.4136C18.9037 11.2881 18.8368 11.1677 18.76 11.0536C18.7331 10.9932 18.694 10.939 18.6451 10.8945C18.5963 10.8499 18.5388 10.8159 18.4762 10.7947C18.4136 10.7734 18.3473 10.7653 18.2814 10.7708C18.2155 10.7763 18.1515 10.7954 18.0933 10.8269C18.0331 10.8541 17.979 10.8931 17.9341 10.9416C17.8892 10.9902 17.8546 11.0472 17.8322 11.1094C17.8098 11.1716 17.8001 11.2376 17.8038 11.3036C17.8074 11.3696 17.8243 11.4342 17.8533 11.4935C17.8975 11.6239 17.9556 11.7491 18.0267 11.8669C18.0267 12.0002 18.0933 12.1202 17.9067 12.1336C17.2716 12.2739 16.6094 12.2275 16 12.0002C14.5943 11.1675 13.0566 10.5813 11.4533 10.2669C11.1554 10.188 10.8445 10.1707 10.5396 10.2161C10.2347 10.2615 9.94229 10.3686 9.68022 10.5308C9.41814 10.693 9.1919 10.907 9.01534 11.1597C8.83878 11.4123 8.7156 11.6983 8.65334 12.0002C8.26668 13.8269 7.90668 15.6402 7.52001 17.4669C7.42786 17.7883 7.41407 18.1272 7.47978 18.4551C7.54548 18.7829 7.68878 19.0903 7.89768 19.3514C8.10657 19.6125 8.37499 19.8198 8.68044 19.9559C8.9859 20.092 9.31951 20.1529 9.65334 20.1335H13.9333C14.6933 20.1335 14.84 20.2802 14.84 21.0535V26.3202C14.8171 26.6496 14.8767 26.9796 15.0133 27.2802C15.1756 27.5826 15.4345 27.8218 15.7488 27.9596C16.063 28.0973 16.4144 28.1257 16.7467 28.0402C17.0538 27.9693 17.3298 27.8012 17.534 27.5611C17.7381 27.3209 17.8594 27.0214 17.88 26.7069C17.88 25.4535 17.88 24.2002 17.88 22.9469V21.2135Z" fill="black"/>
<path d="M12.1867 21.4132H8.37339C8.09586 21.4406 7.81565 21.4119 7.54942 21.3289C7.28319 21.2458 7.03638 21.11 6.82368 20.9297C6.61097 20.7493 6.43671 20.528 6.31125 20.2789C6.18579 20.0299 6.1117 19.7581 6.09339 19.4798C5.64006 16.8932 5.19561 14.3109 4.76006 11.7332C4.60006 11.0132 4.10672 10.6665 3.52006 10.6665C3.37431 10.6924 3.23566 10.7487 3.11314 10.8318C2.99062 10.9148 2.88698 11.0228 2.80898 11.1486C2.73098 11.2744 2.68037 11.4152 2.66046 11.5619C2.64054 11.7086 2.65176 11.8578 2.69339 11.9998C3.15561 14.6665 3.63117 17.3332 4.12006 19.9998C4.27051 20.9488 4.75749 21.8119 5.49197 22.4313C6.22645 23.0507 7.15934 23.385 8.12006 23.3732C9.09339 23.3732 10.0667 23.3732 11.0401 23.3732C11.5201 23.3732 11.6267 23.5198 11.6134 23.9598C11.6134 24.9332 11.6134 25.9065 11.6134 26.8798C11.6134 27.6398 12.0267 28.1198 12.6534 28.1065C12.8009 28.1003 12.9455 28.0635 13.0781 27.9986C13.2106 27.9336 13.3283 27.8418 13.4235 27.729C13.5188 27.6162 13.5896 27.4848 13.6314 27.3433C13.6733 27.2017 13.6853 27.053 13.6667 26.9065V22.9065C13.6925 22.7054 13.672 22.5012 13.607 22.3092C13.5419 22.1172 13.4339 21.9426 13.2912 21.7986C13.1485 21.6546 12.9749 21.5451 12.7835 21.4783C12.5921 21.4115 12.388 21.3892 12.1867 21.4132Z" fill="black"/>
<path d="M27.1733 16.0001H20C19.2133 16.0001 18.7733 16.3735 18.7733 17.0268C18.7733 17.6801 19.2266 18.0535 20.0133 18.0535H25.3466C26.36 18.0535 26.3466 18.0535 26.3466 19.0668C26.3466 21.7335 26.3466 24.4001 26.3466 27.0668C26.3301 27.2185 26.3475 27.372 26.3978 27.5161C26.448 27.6603 26.5297 27.7914 26.637 27.8999C26.7443 28.0085 26.8744 28.0918 27.0179 28.1437C27.1614 28.1956 27.3147 28.2149 27.4666 28.2001C27.745 28.1603 27.9972 28.0147 28.171 27.7937C28.3448 27.5728 28.4268 27.2933 28.4 27.0135V22.1068V17.2535C28.4294 17.0847 28.4183 16.9113 28.3675 16.7477C28.3167 16.584 28.2277 16.4348 28.1079 16.3124C27.9881 16.1899 27.8408 16.0977 27.6783 16.0435C27.5158 15.9892 27.3427 15.9743 27.1733 16.0001Z" fill="black"/>
<path d="M12.56 9.70644C13.3415 9.70644 14.091 9.39599 14.6436 8.84339C15.1962 8.29078 15.5066 7.54128 15.5066 6.75978C15.5066 5.97827 15.1962 5.22878 14.6436 4.67617C14.091 4.12356 13.3415 3.81311 12.56 3.81311C12.1732 3.80957 11.7895 3.88293 11.4313 4.02893C11.073 4.17492 10.7474 4.39064 10.4732 4.66356C10.1991 4.93648 9.98187 5.26115 9.83425 5.61871C9.68663 5.97628 9.61153 6.35961 9.61331 6.74644C9.6133 7.52918 9.92333 8.28005 10.4756 8.83478C11.0278 9.38951 11.7773 9.70292 12.56 9.70644Z" fill="black"/>
<path d="M28.6 8.57318C28.3541 8.51002 28.1404 8.35802 28 8.14651C27.3866 7.34651 26.7733 6.54651 26.1466 5.75984C25.7466 5.23984 25.5066 5.22651 25 5.67984L24.6933 5.95984C24.5942 6.08808 24.4554 6.17988 24.2986 6.22089C24.1418 6.2619 23.9758 6.24981 23.8266 6.18651C23.5273 6.08191 23.203 6.07185 22.8977 6.15771C22.5924 6.24357 22.3209 6.42119 22.12 6.66651C22.0676 6.7049 22.025 6.75508 21.9957 6.813C21.9663 6.87091 21.951 6.93492 21.951 6.99984C21.951 7.06477 21.9663 7.12878 21.9957 7.18669C22.025 7.2446 22.0676 7.29479 22.12 7.33318L23.7733 8.99984C23.8131 9.05233 23.8645 9.09489 23.9235 9.12419C23.9825 9.15349 24.0474 9.16874 24.1133 9.16874C24.1792 9.16874 24.2441 9.15349 24.3031 9.12419C24.3621 9.09489 24.4135 9.05233 24.4533 8.99984C24.6932 8.81126 24.8736 8.5575 24.9729 8.269C25.0722 7.98049 25.0863 7.66946 25.0133 7.37318C24.9796 7.23544 24.9993 7.09002 25.0686 6.96628C25.1379 6.84254 25.2516 6.74971 25.3866 6.70651C25.6266 6.58651 25.6933 6.86651 25.8133 6.99984C26.28 7.59984 26.7866 8.17318 27.1466 8.82651C27.3083 9.05688 27.4089 9.32443 27.4392 9.6042C27.4695 9.88398 27.4285 10.1669 27.32 10.4265C26.8266 11.4665 26.2933 12.4798 25.8133 13.5198C25.64 13.9065 25.4533 14.1465 24.9733 14.0932C24.903 14.0845 24.8316 14.0921 24.7645 14.1151C24.6975 14.1382 24.6366 14.1763 24.5865 14.2264C24.5364 14.2765 24.4984 14.3374 24.4753 14.4044C24.4522 14.4714 24.4447 14.5428 24.4533 14.6132C24.4533 14.9465 24.6666 15.1065 24.9866 15.1198H27.08C27.4266 15.1198 27.6533 14.9998 27.6666 14.6265C27.6753 14.5562 27.6678 14.4848 27.6447 14.4177C27.6216 14.3507 27.5836 14.2898 27.5334 14.2397C27.4833 14.1896 27.4224 14.1516 27.3554 14.1285C27.2884 14.1054 27.217 14.0979 27.1466 14.1065C26.7333 14.1065 26.7733 13.9332 26.9066 13.6532C27.3866 12.6932 27.8533 11.7198 28.32 10.7465C28.405 10.5599 28.5574 10.4122 28.7466 10.3332C28.9266 10.26 29.0762 10.1277 29.1708 9.95796C29.2653 9.78826 29.2992 9.59137 29.2666 9.39984C29.2586 9.20886 29.1895 9.02549 29.0695 8.87669C28.9495 8.72789 28.7849 8.62151 28.6 8.57318Z" fill="black"/>
<path d="M23.4666 9.43989C23.4875 9.39615 23.4966 9.34776 23.4931 9.29944C23.4896 9.25113 23.4737 9.20454 23.4468 9.16423C23.4199 9.12393 23.3831 9.09128 23.3398 9.06949C23.2965 9.04769 23.2484 9.0375 23.2 9.03989C22.6133 9.03989 22.84 9.65323 22.64 9.90656C22.44 10.1599 22.64 10.4132 22.9333 10.3732C23.48 10.3066 23.3333 9.77323 23.4666 9.43989Z" fill="black"/>
<path d="M21.4667 9.46691C21.4766 9.5364 21.5122 9.59963 21.5666 9.64408C21.6209 9.68853 21.6899 9.71095 21.76 9.70691C22.0267 9.70691 22.6533 9.06691 22.6133 8.82691C22.6071 8.77367 22.5864 8.72315 22.5535 8.68083C22.5206 8.63852 22.4767 8.60604 22.4267 8.58691C22.2 8.49357 22.0667 8.58691 21.9333 8.77357C21.8 8.96024 21.4 9.10691 21.4667 9.46691Z" fill="black"/>
<path d="M21.2267 8.52017C21.4933 8.33351 22.0133 8.52017 22.1067 8.01351C22.1192 7.96659 22.1186 7.91716 22.1051 7.87054C22.0915 7.82391 22.0655 7.78187 22.0299 7.74894C21.9942 7.71601 21.9502 7.69345 21.9027 7.68368C21.8551 7.67391 21.8058 7.67731 21.76 7.69351C21.4133 7.81351 20.8933 7.69351 20.8 8.21351C20.76 8.45351 20.9733 8.52017 21.2267 8.52017Z" fill="black"/>
</svg>
