<svg width="20" height="20" viewBox="0 0 20 20" fill="none" xmlns="http://www.w3.org/2000/svg">
<path d="M10.8666 12.2416L11.7583 10.4583C11.848 10.2811 11.998 10.1417 12.1813 10.0653C12.3647 9.9889 12.5693 9.98051 12.7583 10.0416L17.7583 11.7083C17.9254 11.7628 18.0709 11.8687 18.1742 12.0109C18.2775 12.153 18.3332 12.3242 18.3333 12.5V16.6666C18.3333 17.1087 18.1577 17.5326 17.8451 17.8451C17.5326 18.1577 17.1087 18.3333 16.6666 18.3333H15C11.4637 18.3333 8.07235 16.9285 5.57187 14.4281C3.07138 11.9276 1.66663 8.53618 1.66663 4.99996V3.3333C1.66663 2.41663 2.41663 1.66663 3.33329 1.66663H7.49996C7.67466 1.66618 7.84509 1.72064 7.98715 1.82233C8.12921 1.92402 8.23572 2.06778 8.29163 2.2333L9.95829 7.23329C10.0217 7.42338 10.0144 7.62994 9.93791 7.81513C9.86139 8.00031 9.7207 8.15173 9.54163 8.24163L7.74996 9.13329C8.49082 10.4277 9.5639 11.5008 10.8583 12.2416H10.8666ZM6.89996 3.3333H3.33329V4.99996C3.33329 8.09415 4.56246 11.0616 6.75038 13.2495C8.9383 15.4375 11.9058 16.6666 15 16.6666H16.6666V13.1L12.9166 11.85L11.9833 13.7333C11.8864 13.924 11.7199 14.0702 11.5183 14.1416C11.3166 14.2129 11.0952 14.204 10.9 14.1166C8.67405 13.1132 6.89042 11.3325 5.88329 9.10829C5.79593 8.91303 5.78701 8.69165 5.85836 8.48999C5.92972 8.28832 6.0759 8.12182 6.26663 8.02496L8.14996 7.07496L6.89996 3.3333Z" fill="#0DB2B2"/>
</svg>
