<svg width="20" height="20" viewBox="0 0 20 20" fill="none" xmlns="http://www.w3.org/2000/svg">
<path d="M14.1667 3.33329H15.8333C16.2754 3.33329 16.6993 3.50889 17.0118 3.82145C17.3244 4.13401 17.5 4.55793 17.5 4.99996V16.6666C17.5 17.1087 17.3244 17.5326 17.0118 17.8451C16.6993 18.1577 16.2754 18.3333 15.8333 18.3333H4.16667C3.72464 18.3333 3.30072 18.1577 2.98816 17.8451C2.67559 17.5326 2.5 17.1087 2.5 16.6666V4.99996C2.5 4.08329 3.25 3.33329 4.16667 3.33329H5.83333V2.49996C5.83333 2.27895 5.92113 2.06698 6.07741 1.9107C6.23369 1.75442 6.44565 1.66663 6.66667 1.66663C6.88768 1.66663 7.09964 1.75442 7.25592 1.9107C7.4122 2.06698 7.5 2.27895 7.5 2.49996V3.33329H12.5V2.49996C12.5 2.27895 12.5878 2.06698 12.7441 1.9107C12.9004 1.75442 13.1123 1.66663 13.3333 1.66663C13.5543 1.66663 13.7663 1.75442 13.9226 1.9107C14.0789 2.06698 14.1667 2.27895 14.1667 2.49996V3.33329ZM12.5 4.99996H7.5V5.83329C7.5 6.05431 7.4122 6.26627 7.25592 6.42255C7.09964 6.57883 6.88768 6.66663 6.66667 6.66663C6.44565 6.66663 6.23369 6.57883 6.07741 6.42255C5.92113 6.26627 5.83333 6.05431 5.83333 5.83329V4.99996H4.16667V8.33329H15.8333V4.99996H14.1667V5.83329C14.1667 6.05431 14.0789 6.26627 13.9226 6.42255C13.7663 6.57883 13.5543 6.66663 13.3333 6.66663C13.1123 6.66663 12.9004 6.57883 12.7441 6.42255C12.5878 6.26627 12.5 6.05431 12.5 5.83329V4.99996ZM15.8333 9.99996H4.16667V16.6666H15.8333V9.99996Z" fill="#0DB2B2"/>
</svg>
