<svg width="20" height="20" viewBox="0 0 20 20" fill="none" xmlns="http://www.w3.org/2000/svg">
<path d="M10 9.99996C8.89493 9.99996 7.83512 9.56097 7.05372 8.77957C6.27232 7.99817 5.83333 6.93836 5.83333 5.83329C5.83333 4.72822 6.27232 3.66842 7.05372 2.88701C7.83512 2.10561 8.89493 1.66663 10 1.66663C11.1051 1.66663 12.1649 2.10561 12.9463 2.88701C13.7277 3.66842 14.1667 4.72822 14.1667 5.83329C14.1667 6.93836 13.7277 7.99817 12.9463 8.77957C12.1649 9.56097 11.1051 9.99996 10 9.99996ZM10 8.33329C10.3283 8.33329 10.6534 8.26863 10.9567 8.14299C11.26 8.01736 11.5356 7.83321 11.7678 7.60106C11.9999 7.36891 12.1841 7.09332 12.3097 6.79C12.4353 6.48669 12.5 6.1616 12.5 5.83329C12.5 5.50499 12.4353 5.1799 12.3097 4.87658C12.1841 4.57327 11.9999 4.29767 11.7678 4.06553C11.5356 3.83338 11.26 3.64923 10.9567 3.52359C10.6534 3.39796 10.3283 3.33329 10 3.33329C9.33696 3.33329 8.70107 3.59668 8.23223 4.06553C7.76339 4.53437 7.5 5.17025 7.5 5.83329C7.5 6.49633 7.76339 7.13222 8.23223 7.60106C8.70107 8.0699 9.33696 8.33329 10 8.33329ZM17.5 17.5C17.5 17.721 17.4122 17.9329 17.2559 18.0892C17.0996 18.2455 16.8877 18.3333 16.6667 18.3333C16.4457 18.3333 16.2337 18.2455 16.0774 18.0892C15.9211 17.9329 15.8333 17.721 15.8333 17.5V15.8333C15.8333 15.1703 15.5699 14.5344 15.1011 14.0655C14.6323 13.5967 13.9964 13.3333 13.3333 13.3333H6.66667C6.00363 13.3333 5.36774 13.5967 4.8989 14.0655C4.43006 14.5344 4.16667 15.1703 4.16667 15.8333V17.5C4.16667 17.721 4.07887 17.9329 3.92259 18.0892C3.76631 18.2455 3.55435 18.3333 3.33333 18.3333C3.11232 18.3333 2.90036 18.2455 2.74408 18.0892C2.5878 17.9329 2.5 17.721 2.5 17.5V15.8333C2.5 14.7282 2.93899 13.6684 3.72039 12.887C4.50179 12.1056 5.5616 11.6666 6.66667 11.6666H13.3333C14.4384 11.6666 15.4982 12.1056 16.2796 12.887C17.061 13.6684 17.5 14.7282 17.5 15.8333V17.5Z" fill="#0DB2B2"/>
</svg>
