<svg width="30" height="30" viewBox="0 0 30 30" fill="none" xmlns="http://www.w3.org/2000/svg">
<path d="M7.5 2.5H18.75C19.0797 2.5047 19.3942 2.63948 19.625 2.875L24.625 7.875C24.8605 8.10579 24.9953 8.42029 25 8.75V25C25 25.663 24.7366 26.2989 24.2678 26.7678C23.7989 27.2366 23.163 27.5 22.5 27.5H7.5C6.83696 27.5 6.20107 27.2366 5.73223 26.7678C5.26339 26.2989 5 25.663 5 25V5C5 3.625 6.125 2.5 7.5 2.5ZM18.75 5.5125V8.75H21.9875L18.75 5.5125ZM22.5 11.25H18.75C18.087 11.25 17.4511 10.9866 16.9822 10.5178C16.5134 10.0489 16.25 9.41304 16.25 8.75V5H7.5V25H22.5V11.25ZM20 20C20 20.3315 19.8683 20.6495 19.6339 20.8839C19.3995 21.1183 19.0815 21.25 18.75 21.25H11.25C10.9185 21.25 10.6005 21.1183 10.3661 20.8839C10.1317 20.6495 10 20.3315 10 20C10 19.6685 10.1317 19.3505 10.3661 19.1161C10.6005 18.8817 10.9185 18.75 11.25 18.75H18.75C19.0815 18.75 19.3995 18.8817 19.6339 19.1161C19.8683 19.3505 20 19.6685 20 20ZM20 15C20 15.3315 19.8683 15.6495 19.6339 15.8839C19.3995 16.1183 19.0815 16.25 18.75 16.25H11.25C10.9185 16.25 10.6005 16.1183 10.3661 15.8839C10.1317 15.6495 10 15.3315 10 15C10 14.6685 10.1317 14.3505 10.3661 14.1161C10.6005 13.8817 10.9185 13.75 11.25 13.75H18.75C19.0815 13.75 19.3995 13.8817 19.6339 14.1161C19.8683 14.3505 20 14.6685 20 15ZM13.75 10C13.75 10.3315 13.6183 10.6495 13.3839 10.8839C13.1495 11.1183 12.8315 11.25 12.5 11.25H11.25C10.9185 11.25 10.6005 11.1183 10.3661 10.8839C10.1317 10.6495 10 10.3315 10 10C10 9.66848 10.1317 9.35054 10.3661 9.11612C10.6005 8.8817 10.9185 8.75 11.25 8.75H12.5C12.8315 8.75 13.1495 8.8817 13.3839 9.11612C13.6183 9.35054 13.75 9.66848 13.75 10Z" fill="#0DB2B2"/>
</svg>
