<svg width="32" height="32" viewBox="0 0 32 32" fill="none" xmlns="http://www.w3.org/2000/svg">
<path d="M18.6667 15.1465H13.3334C12.6934 15.1465 12.4 15.4265 12.4 16.0798C12.4 17.6265 12.4 19.1865 12.4 20.7332V25.4398C12.4 26.2265 12.5734 26.3998 13.36 26.3998C15.0667 26.3998 16.7867 26.3998 18.4934 26.3998C19.2667 26.3998 19.4534 26.2132 19.4534 25.4398C19.4534 22.3198 19.4534 19.2087 19.4534 16.1065C19.5334 15.4265 19.2267 15.1465 18.6667 15.1465Z" fill="black"/>
<path d="M10.1734 19.7069C10.1734 18.9335 9.97338 18.7335 9.22672 18.7202C7.49338 18.7202 5.76005 18.7202 4.01338 18.7202C3.36005 18.7202 3.09338 19.0402 3.09338 19.6669C3.09338 21.6135 3.09338 23.5602 3.09338 25.5069C3.09338 26.1069 3.34672 26.4269 3.98672 26.4135H9.32005C9.98672 26.4135 10.2534 26.0935 10.2534 25.4535C10.2534 24.4935 10.2534 23.5335 10.2534 22.5735C10.2534 21.6135 10.1867 20.6669 10.1734 19.7069Z" fill="black"/>
<path d="M27.92 20.48H22.8533C22.04 20.48 21.8267 20.6933 21.8267 21.5333C21.8267 22.8666 21.8267 24.1066 21.8267 25.4C21.8267 26.24 22.0267 26.4533 22.84 26.4666H27.9067C28.6933 26.4666 28.8933 26.24 28.9067 25.44C28.9067 24.1066 28.9067 22.7733 28.9067 21.44C28.8933 20.6933 28.68 20.48 27.92 20.48Z" fill="black"/>
<path d="M9.79996 11.5066C9.22197 11.599 8.63093 11.4586 8.15616 11.1163C7.68138 10.774 7.36155 10.2575 7.26663 9.67993C7.26663 9.4266 6.85329 9.09326 6.63996 9.09326C6.42663 9.09326 6.09329 9.43993 6.01329 9.69326C5.91501 10.2577 5.60166 10.7621 5.13915 11.1003C4.67663 11.4385 4.10099 11.5841 3.53329 11.5066C3.25329 11.5066 2.95996 11.7866 2.66663 11.9466C2.81329 12.2266 2.90663 12.5866 3.13329 12.7466C3.38343 12.871 3.60633 13.044 3.789 13.2553C3.97168 13.4667 4.11049 13.7123 4.19734 13.9779C4.2842 14.2434 4.31737 14.5235 4.29493 14.802C4.27249 15.0805 4.19488 15.3517 4.06663 15.5999C4.02664 15.7619 3.99988 15.9269 3.98663 16.0933C3.98663 16.1733 4.07996 16.5066 4.21329 16.5466C4.49301 16.6305 4.79443 16.6018 5.05329 16.4666C5.25774 16.261 5.50081 16.0978 5.76853 15.9865C6.03626 15.8752 6.32334 15.8179 6.61329 15.8179C6.90324 15.8179 7.19033 15.8752 7.45805 15.9865C7.72577 16.0978 7.96884 16.261 8.17329 16.4666C8.38663 16.6399 8.77329 16.5999 9.07996 16.6533C9.07996 16.3333 9.33329 15.9599 9.22663 15.7066C8.97028 15.1915 8.92731 14.5961 9.10701 14.0495C9.28672 13.5029 9.67462 13.0491 10.1866 12.7866C10.3066 12.6934 10.4037 12.5742 10.4707 12.4379C10.5377 12.3016 10.5728 12.1518 10.5733 11.9999C10.4949 11.8605 10.3833 11.7425 10.2484 11.6565C10.1135 11.5704 9.95948 11.5189 9.79996 11.5066Z" fill="black"/>
<path d="M29.3333 13.6798C29.2769 13.5732 29.1951 13.4821 29.0951 13.4146C28.9951 13.3472 28.88 13.3055 28.76 13.2931C28.1238 13.3932 27.4739 13.2377 26.9519 12.8606C26.4299 12.4834 26.0781 11.9152 25.9733 11.2798C25.916 11.1522 25.8272 11.0412 25.7153 10.9572C25.6033 10.8733 25.4719 10.8191 25.3333 10.7998C25.1867 10.7998 24.8667 11.0531 24.8133 11.2531C24.7661 11.5748 24.6557 11.884 24.4886 12.1629C24.3214 12.4418 24.1007 12.6849 23.8393 12.8782C23.5778 13.0716 23.2807 13.2113 22.965 13.2893C22.6494 13.3674 22.3214 13.3823 22 13.3331C21.8909 13.3417 21.7858 13.378 21.6948 13.4387C21.6038 13.4994 21.5298 13.5824 21.48 13.6798C21.4629 13.7988 21.4719 13.9201 21.5064 14.0352C21.541 14.1504 21.6002 14.2566 21.68 14.3465C22 14.7065 22.4267 14.9865 22.7333 15.3731C22.9283 15.6297 23.0316 15.9443 23.0267 16.2665C22.9729 16.7796 22.8793 17.2878 22.7467 17.7865C22.7467 18.3731 23.1733 18.6798 23.5867 18.3598C23.8224 18.1199 24.1036 17.9294 24.4138 17.7994C24.724 17.6693 25.057 17.6023 25.3933 17.6023C25.7297 17.6023 26.0627 17.6693 26.3728 17.7994C26.683 17.9294 26.9642 18.1199 27.2 18.3598C27.2948 18.4161 27.4031 18.4459 27.5133 18.4459C27.6236 18.4459 27.7319 18.4161 27.8267 18.3598C27.9129 18.2766 27.9774 18.1736 28.0146 18.0597C28.0518 17.9458 28.0605 17.8245 28.04 17.7065C27.8881 17.42 27.7948 17.106 27.7655 16.7831C27.7363 16.4601 27.7718 16.1345 27.8699 15.8254C27.968 15.5163 28.1267 15.2298 28.3367 14.9828C28.5468 14.7357 28.804 14.533 29.0933 14.3865C29.1907 14.2993 29.264 14.1884 29.3061 14.0646C29.3481 13.9408 29.3575 13.8083 29.3333 13.6798Z" fill="black"/>
<path d="M19.3066 7.99987C18.8687 7.90332 18.4217 7.85414 17.9733 7.8532C17.786 7.86334 17.6008 7.80947 17.4481 7.70043C17.2955 7.59139 17.1845 7.43368 17.1333 7.2532C16.982 6.83333 16.7947 6.42737 16.5733 6.03987C16.4546 5.80342 16.2492 5.62191 16 5.5332C15.84 5.5332 15.6 5.7732 15.4666 5.9732C15.2891 6.24617 15.15 6.54229 15.0533 6.8532C15.0008 7.15769 14.8329 7.4302 14.5845 7.61399C14.3362 7.79778 14.0265 7.87869 13.72 7.83987C13.3934 7.8406 13.0691 7.89464 12.76 7.99987C12.5066 7.99987 12.1733 8.2132 12.1066 8.39987C12.04 8.58654 12.2133 8.91987 12.36 9.11987C12.5848 9.38908 12.845 9.62677 13.1333 9.82654C13.3828 9.96276 13.572 10.1878 13.6634 10.457C13.7548 10.7262 13.7417 11.0199 13.6266 11.2799C13.5006 11.6889 13.4113 12.1083 13.36 12.5332C13.3379 12.6477 13.353 12.7662 13.4031 12.8715C13.4532 12.9768 13.5356 13.0633 13.6384 13.1184C13.7412 13.1736 13.8588 13.1944 13.9743 13.1778C14.0897 13.1613 14.1968 13.1083 14.28 13.0265C14.745 12.5616 15.3757 12.3005 16.0333 12.3005C16.6909 12.3005 17.3216 12.5616 17.7866 13.0265C17.8912 13.0826 18.008 13.1119 18.1266 13.1119C18.2453 13.1119 18.362 13.0826 18.4666 13.0265C18.5615 12.9384 18.6304 12.8259 18.6656 12.7012C18.7009 12.5766 18.7012 12.4447 18.6666 12.3199C18.5176 12.037 18.4266 11.7271 18.399 11.4086C18.3714 11.0901 18.4078 10.7692 18.5059 10.4649C18.604 10.1606 18.762 9.87893 18.9704 9.63651C19.1789 9.39409 19.4338 9.19577 19.72 9.0532C19.8182 8.97697 19.8954 8.87702 19.9444 8.76273C19.9934 8.64844 20.0125 8.52358 20 8.39987C19.9165 8.29071 19.8123 8.19915 19.6933 8.13049C19.5743 8.06184 19.4429 8.01744 19.3066 7.99987Z" fill="black"/>
</svg>
