<svg width="48" height="48" viewBox="0 0 48 48" fill="none" xmlns="http://www.w3.org/2000/svg">
<mask id="mask0_204_6138" style="mask-type:luminance" maskUnits="userSpaceOnUse" x="4" y="4" width="40" height="40">
<path d="M44 4.66016H4V43.3402H44V4.66016Z" fill="white"/>
</mask>
<g mask="url(#mask0_204_6138)">
<path d="M42.66 27.46H43.08H43.44C43.5671 27.5036 43.6831 27.5746 43.7799 27.6679C43.8766 27.7612 43.9518 27.8745 44 28C44.0209 28.1191 44.0209 28.2409 44 28.36V29.1C44 29.78 43.68 30.1 43.02 30.1H14.68V27.48H29.34V26.22C29.2917 26.0364 29.2917 25.8435 29.34 25.66C29.401 25.4787 29.5037 25.3142 29.64 25.18C29.7787 25.0444 29.9415 24.9359 30.12 24.86C30.3055 24.8308 30.4945 24.8308 30.68 24.86H34.48C34.6645 24.8199 34.8555 24.8199 35.04 24.86C35.2213 24.921 35.3857 25.0237 35.52 25.16C35.6422 25.3049 35.7432 25.4666 35.82 25.64C35.8607 25.8244 35.8607 26.0155 35.82 26.2V27.42H39.82V8.25998C39.82 7.51998 39.62 7.31998 38.86 7.31998H11.58C10.86 7.31998 10.66 7.51998 10.66 8.23998V11.36H7.99999V7.35998C7.97809 6.99103 8.03962 6.62189 8.17999 6.27998C8.3182 5.94309 8.52217 5.63713 8.77999 5.37998C9.03996 5.12096 9.35418 4.92286 9.69999 4.79998C10.0354 4.66125 10.3976 4.59974 10.76 4.61998H39.88C40.2554 4.59975 40.6306 4.66116 40.98 4.79998C41.3239 4.94507 41.6364 5.15564 41.9 5.41998C42.1632 5.68815 42.3676 6.00831 42.5 6.35998C42.6339 6.71033 42.6885 7.086 42.66 7.45998V27.46Z" fill="#0DB2B2"/>
<path d="M6.66 32.8398C6.39411 32.8639 6.12635 32.8227 5.88 32.7198C5.36248 32.6451 4.88793 32.3901 4.54 31.9998C4.17915 31.5768 3.9869 31.0356 4 30.4798V23.4798C3.98298 23.1128 4.03732 22.7461 4.16 22.3998C4.29306 22.0602 4.4977 21.7532 4.76 21.4998C5.01997 21.2408 5.33419 21.0427 5.68 20.9198C6.02347 20.7863 6.39256 20.7316 6.76 20.7598H12.28C12.8686 20.7462 13.4505 20.6312 14 20.4198C14.2325 20.4053 14.4585 20.3368 14.66 20.2198C14.8636 20.1132 15.0412 19.963 15.18 19.7798C15.3204 19.6006 15.423 19.3948 15.4815 19.1747C15.5399 18.9547 15.553 18.7251 15.52 18.4998C15.5807 17.4737 15.7009 16.452 15.88 15.4398C15.88 15.2403 15.9208 15.0429 16 14.8598C16.0866 14.6718 16.2169 14.5073 16.38 14.3798C16.5373 14.248 16.7217 14.1524 16.92 14.0998C17.2102 14.0215 17.5171 14.0311 17.8019 14.1272C18.0867 14.2233 18.3366 14.4017 18.52 14.6398C18.6423 14.7931 18.7319 14.9697 18.7835 15.1588C18.8351 15.348 18.8475 15.5457 18.82 15.7398C18.58 17.4198 18.38 19.0998 18.18 20.7598C18.1647 21.0787 18.0531 21.3855 17.86 21.6398C17.6741 21.8955 17.4166 22.0903 17.12 22.1998L14 23.4398C13.9427 23.4466 13.8878 23.4663 13.8392 23.4975C13.7907 23.5287 13.75 23.5705 13.72 23.6198C13.6812 23.6627 13.6521 23.7136 13.6349 23.7688C13.6176 23.8241 13.6125 23.8824 13.62 23.9398C13.46 27.4598 13.26 30.9798 13.06 34.4798C13.06 36.3398 12.88 38.2198 12.8 40.0798C12.8371 40.3703 12.8028 40.6655 12.7 40.9398C12.5976 41.2088 12.441 41.4539 12.24 41.6598C12.0342 41.8619 11.7846 42.0139 11.5106 42.1041C11.2367 42.1942 10.9456 42.2201 10.66 42.1798H9.32C9.0573 42.1703 8.79904 42.1092 8.56 41.9998C8.32626 41.9023 8.11007 41.7672 7.92 41.5998C7.73292 41.4173 7.58344 41.1998 7.48 40.9598C7.38437 40.718 7.33681 40.4598 7.34 40.1998C7.16 37.8598 6.94 35.4998 6.72 33.1598V32.7798L6.66 32.8398Z" fill="#0DB2B2"/>
<path d="M35.56 43.3399H23.56C23.4193 42.5388 23.5757 41.7139 24 41.0199C24.3822 40.3205 25.0088 39.7864 25.76 39.5199C26.0709 39.4245 26.3947 39.3772 26.72 39.38H32.58C32.9829 39.365 33.3845 39.4331 33.76 39.58C34.1364 39.7377 34.4818 39.9612 34.78 40.24C35.335 40.8379 35.6424 41.6242 35.64 42.4399C35.6742 42.7423 35.647 43.0484 35.56 43.3399Z" fill="#0DB2B2"/>
<path d="M32.9 34.6601C32.8959 35.321 32.7015 35.9668 32.34 36.5201C31.9724 37.0715 31.4507 37.5028 30.84 37.7601C30.2079 38.0251 29.5093 38.088 28.84 37.9401C28.1853 37.8186 27.5844 37.4972 27.12 37.0201C26.6568 36.5561 26.3434 35.964 26.22 35.3201C26.0747 34.6507 26.1375 33.9528 26.4 33.3201C26.656 32.7032 27.0871 32.1748 27.64 31.8001C28.2801 31.3722 29.0491 31.1801 29.8153 31.2567C30.5815 31.3333 31.2972 31.6739 31.84 32.2201C32.1707 32.5354 32.4349 32.9137 32.617 33.3328C32.799 33.7519 32.8953 34.2032 32.9 34.6601Z" fill="#0DB2B2"/>
<path d="M13.32 15.9997C13.3246 16.44 13.236 16.8762 13.06 17.2797C12.9011 17.6877 12.6554 18.0562 12.34 18.3597C12.032 18.6748 11.665 18.9263 11.26 19.0997C10.8626 19.2782 10.4351 19.3799 9.99999 19.3997C9.55551 19.4025 9.11499 19.3161 8.70455 19.1454C8.29412 18.9748 7.92212 18.7235 7.61063 18.4064C7.29914 18.0893 7.05449 17.7129 6.89119 17.2995C6.72789 16.8861 6.64927 16.4441 6.65999 15.9997C6.66298 15.3429 6.86074 14.7017 7.22825 14.1573C7.59576 13.6129 8.1165 13.1897 8.72458 12.9413C9.33267 12.6929 10.0008 12.6305 10.6443 12.762C11.2879 12.8934 11.878 13.2128 12.34 13.6797C12.9499 14.3003 13.3003 15.1299 13.32 15.9997Z" fill="#0DB2B2"/>
<path d="M26.72 10H36.72C36.94 10 37.28 10 37.32 10.2C37.3996 10.5083 37.3996 10.8317 37.32 11.14C37.162 11.2175 36.9936 11.2714 36.82 11.3H16.6C16 11.32 16 11.32 16 10.68C16 10.04 16 10 16.58 10H26.72Z" fill="#0DB2B2"/>
<path d="M29.3 14.0002H22C21.8 14.0002 21.48 14.0002 21.44 13.8002C21.3998 13.4748 21.3998 13.1456 21.44 12.8202C21.5529 12.7614 21.6744 12.7208 21.8 12.7002H36.8C37.2 12.7002 37.36 12.8602 37.32 13.2202C37.3003 13.3057 37.3003 13.3946 37.32 13.4802C37.32 13.8802 37.2 14.0202 36.8 14.0202H29.3V14.0002Z" fill="#0DB2B2"/>
<path d="M29.38 15.3999H36.72C36.92 15.3999 37.26 15.3999 37.26 15.5999C37.3413 15.9215 37.3413 16.2583 37.26 16.5799C37.1065 16.6425 36.9449 16.683 36.78 16.6999H21.78C21.46 16.6999 21.3 16.5399 21.32 16.1999V15.8799C21.32 15.5199 21.46 15.3799 21.8 15.3799H29.38V15.3999Z" fill="#0DB2B2"/>
</g>
</svg>
