<svg width="31" height="31" viewBox="0 0 31 31" fill="none" xmlns="http://www.w3.org/2000/svg">
<g id="textsms_24px">
<g id="liveclass 1" clip-path="url(#clip0_3008_1126)">
<g id="Layer 2">
<g id="Layer 1">
<path id="Vector" d="M29.4 16.7902H29.6917C29.7767 16.7833 29.8622 16.7948 29.9424 16.8241C30.0225 16.8533 30.0955 16.8995 30.1564 16.9596C30.2172 17.0196 30.2645 17.0921 30.2951 17.1722C30.3256 17.2522 30.3387 17.3379 30.3334 17.4235V17.9513C30.3334 18.4205 30.1117 18.6433 29.645 18.6433H9.81171V16.8019H20.0667V15.9222C20.0562 15.7871 20.0749 15.6512 20.1216 15.524C20.1683 15.3969 20.2419 15.2814 20.3372 15.1855C20.4326 15.0896 20.5475 15.0157 20.674 14.9687C20.8005 14.9218 20.9356 14.903 21.07 14.9135H23.73C23.862 14.9047 23.9943 14.9245 24.118 14.9717C24.2417 15.0188 24.3538 15.0922 24.4468 15.1868C24.5397 15.2813 24.6114 15.3949 24.6568 15.5198C24.7022 15.6447 24.7204 15.7779 24.71 15.9105C24.71 16.192 24.71 16.4735 24.71 16.7667H27.5334V3.34885C27.5334 2.82105 27.3934 2.6803 26.8567 2.6803H7.64171C7.12838 2.6803 6.98838 2.82105 6.98838 3.33712V5.51869H5.14504V5.08472C5.14504 4.31062 5.14504 3.53651 5.14504 2.73894C5.13664 2.48259 5.18125 2.22728 5.27607 1.98916C5.37089 1.75104 5.51384 1.5353 5.69588 1.35559C5.87792 1.17589 6.09509 1.03613 6.33364 0.945165C6.57218 0.8542 6.82692 0.814009 7.08171 0.827135H27.4517C27.7127 0.815212 27.9733 0.858508 28.2166 0.954221C28.4599 1.04993 28.6806 1.19593 28.8642 1.38277C29.0479 1.56961 29.1905 1.79313 29.2828 2.03886C29.3751 2.2846 29.415 2.54708 29.4 2.80932V16.7902Z" fill="black"/>
<path id="Vector_2" d="M4.1884 20.5435C3.99006 20.5435 3.81506 20.5435 3.65173 20.4731C3.28292 20.4095 2.94834 20.2169 2.70711 19.9293C2.46588 19.6417 2.33351 19.2776 2.3334 18.9014C2.3334 17.2477 2.3334 15.6291 2.3334 13.9988C2.31752 13.7421 2.35672 13.4849 2.44834 13.2448C2.53995 13.0046 2.68185 12.7871 2.8644 12.6069C3.04696 12.4267 3.26591 12.2881 3.50642 12.2004C3.74694 12.1127 4.00339 12.078 4.2584 12.0987C5.54173 12.0987 6.83673 12.0987 8.13173 12.0987C8.53067 12.0756 8.92392 11.9926 9.2984 11.8524C9.45737 11.8396 9.61206 11.7942 9.75289 11.719C9.89372 11.6437 10.0177 11.5402 10.1172 11.4149C10.2167 11.2896 10.2896 11.1451 10.3314 10.9904C10.3731 10.8357 10.3829 10.674 10.3601 10.5153C10.3956 9.79526 10.4774 9.07829 10.6051 8.3689C10.6116 8.22603 10.648 8.08614 10.7118 7.95831C10.7756 7.83048 10.8654 7.71755 10.9754 7.62687C11.0854 7.53618 11.2131 7.46976 11.3503 7.4319C11.4875 7.39405 11.6311 7.38561 11.7717 7.40713C12.0467 7.4423 12.2967 7.58534 12.4671 7.80506C12.6376 8.02478 12.7147 8.30335 12.6817 8.58002C12.5184 9.75291 12.3667 10.9258 12.2267 12.0987C12.2179 12.3198 12.1431 12.5332 12.012 12.711C11.8809 12.8888 11.6996 13.0228 11.4917 13.0956L9.3334 13.9636C9.25326 13.9827 9.18242 14.0297 9.13334 14.0962C9.08426 14.1627 9.06008 14.2445 9.06507 14.3272C8.9484 16.7785 8.8084 19.2416 8.68007 21.7046C8.68007 23.0066 8.55173 24.3202 8.4934 25.6221C8.51444 25.8229 8.48997 26.0259 8.42183 26.2158C8.35369 26.4058 8.24364 26.5777 8.09995 26.7188C7.95626 26.8598 7.78266 26.9664 7.59217 27.0304C7.40168 27.0943 7.19925 27.1141 7.00006 27.0882H6.05506C5.87556 27.0961 5.69632 27.0674 5.52816 27.0038C5.36001 26.9401 5.20642 26.8429 5.07667 26.7179C4.94692 26.593 4.84371 26.4429 4.77325 26.2767C4.70279 26.1105 4.66656 25.9317 4.66673 25.7511C4.5384 24.1091 4.38673 22.4553 4.23506 20.8133C4.22898 20.7219 4.21334 20.6315 4.1884 20.5435Z" fill="black"/>
<path id="Vector_3" d="M24.4301 27.8972H16.0885C15.9427 27.3546 16.0074 26.7766 16.2695 26.2801C16.5316 25.7836 16.9715 25.4058 17.5001 25.223C17.7167 25.1623 17.9403 25.1308 18.1651 25.1292H22.2718C22.5548 25.1193 22.8368 25.1681 23.1002 25.2725C23.3637 25.3769 23.603 25.5347 23.8032 25.736C24.0034 25.9373 24.1603 26.1778 24.2642 26.4427C24.368 26.7075 24.4166 26.991 24.4068 27.2756C24.5001 27.4749 24.4301 27.6743 24.4301 27.8972Z" fill="black"/>
<path id="Vector_4" d="M22.5634 21.8219C22.5634 22.2858 22.4265 22.7393 22.1702 23.1251C21.9138 23.5109 21.5494 23.8115 21.123 23.9891C20.6966 24.1666 20.2275 24.2131 19.7749 24.1226C19.3222 24.032 18.9065 23.8086 18.5801 23.4806C18.2538 23.1525 18.0316 22.7345 17.9416 22.2795C17.8515 21.8245 17.8977 21.3528 18.0743 20.9242C18.2509 20.4955 18.55 20.1292 18.9337 19.8714C19.3174 19.6137 19.7686 19.4761 20.2301 19.4761C20.8489 19.4761 21.4424 19.7232 21.88 20.1631C22.3176 20.6031 22.5634 21.1997 22.5634 21.8219Z" fill="black"/>
<path id="Vector_5" d="M8.85514 8.80281C8.85514 9.11086 8.79479 9.4159 8.67753 9.7005C8.56027 9.9851 8.3884 10.2437 8.17173 10.4615C7.95506 10.6793 7.69783 10.8521 7.41474 10.97C7.13164 11.0879 6.82823 11.1486 6.52181 11.1486C5.90297 11.1486 5.30948 10.9014 4.87189 10.4615C4.43431 10.0216 4.18848 9.42495 4.18848 8.80281C4.18848 8.18067 4.43431 7.58401 4.87189 7.14409C5.30948 6.70417 5.90297 6.45703 6.52181 6.45703C7.14065 6.45703 7.73414 6.70417 8.17173 7.14409C8.60931 7.58401 8.85514 8.18067 8.85514 8.80281Z" fill="black"/>
<path id="Vector_6" d="M18.2351 4.58058H25.2351C25.3868 4.58058 25.6318 4.58058 25.6551 4.72132C25.7131 4.93638 25.7131 5.16308 25.6551 5.37814C25.6551 5.37814 25.4218 5.4837 25.3051 5.4837H11.1535C10.7685 5.4837 10.7451 5.4837 10.7451 5.038C10.7451 4.59231 10.7451 4.56885 11.1418 4.56885L18.2351 4.58058Z" fill="black"/>
<path id="Vector_7" d="M20.0434 7.37187H14.9101C14.7701 7.37187 14.5367 7.3015 14.5134 7.23113C14.4786 7.00572 14.4786 6.77626 14.5134 6.55085C14.5134 6.55085 14.6767 6.46875 14.7701 6.46875H25.2701C25.5384 6.46875 25.6551 6.57431 25.6317 6.83235C25.6201 6.89041 25.6201 6.95022 25.6317 7.00828C25.6317 7.28977 25.5384 7.39533 25.2584 7.39533H20.0084L20.0434 7.37187Z" fill="black"/>
<path id="Vector_8" d="M20.1018 8.34524H25.2351C25.3751 8.34524 25.6084 8.41561 25.6201 8.48598C25.6666 8.71033 25.6666 8.94191 25.6201 9.16626C25.6201 9.16626 25.3984 9.24836 25.2818 9.24836H14.7818C14.5484 9.24836 14.4434 9.1428 14.4551 8.90822C14.4609 8.83014 14.4609 8.75173 14.4551 8.67364C14.4551 8.42734 14.5484 8.32178 14.7934 8.32178H20.0784L20.1018 8.34524Z" fill="black"/>
</g>
</g>
</g>
</g>
<defs>
<clipPath id="clip0_3008_1126">
<rect width="28" height="27.0703" fill="white" transform="translate(2.33337 0.827148)"/>
</clipPath>
</defs>
</svg>
