<svg width="32" height="32" viewBox="0 0 32 32" fill="none" xmlns="http://www.w3.org/2000/svg">
<path d="M21.76 20.4131H19V21.7465C19.042 22.142 18.995 22.5419 18.8624 22.9168C18.7299 23.2918 18.5151 23.6324 18.2339 23.9137C17.9526 24.1949 17.612 24.4097 17.237 24.5422C16.8621 24.6748 16.4622 24.7218 16.0667 24.6798H8.37333C7.97659 24.7221 7.5754 24.6749 7.19933 24.5416C6.82326 24.4083 6.4819 24.1923 6.2004 23.9095C5.91891 23.6268 5.70446 23.2844 5.57285 22.9078C5.44125 22.5311 5.39585 22.1297 5.44 21.7331V10.1865C5.40556 9.79901 5.45631 9.40872 5.58867 9.04296C5.72104 8.67719 5.93181 8.34481 6.20623 8.06913C6.48064 7.79345 6.81204 7.58113 7.17719 7.44708C7.54234 7.31303 7.93239 7.26048 8.32 7.29313H16.16C16.5302 7.26888 16.9013 7.32213 17.2498 7.44949C17.5982 7.57684 17.9162 7.77549 18.1835 8.03274C18.4508 8.28999 18.6615 8.60018 18.8021 8.94347C18.9426 9.28677 19.0101 9.65563 19 10.0265C19 10.4531 19 10.8798 19 11.3598H21.6667C21.9725 9.94829 21.7291 8.4733 20.986 7.23487C20.2429 5.99643 19.056 5.08756 17.6667 4.69313C17.23 4.58624 16.7828 4.5281 16.3333 4.5198C13.6667 4.5198 11 4.5198 8.33333 4.5198C7.592 4.49257 6.85289 4.61651 6.16099 4.88407C5.4691 5.15163 4.83889 5.55721 4.30876 6.07612C3.77862 6.59503 3.35965 7.21641 3.07734 7.90242C2.79504 8.58843 2.65531 9.32472 2.66666 10.0665C2.66666 14.022 2.66666 17.9642 2.66666 21.8931C2.63191 23.2206 3.08273 24.5152 3.93455 25.5339C4.78638 26.5527 5.98066 27.2256 7.29333 27.4265C7.59495 27.4534 7.89838 27.4534 8.2 27.4265C10.8667 27.4265 13.5333 27.4265 16.2 27.4265C16.9375 27.4429 17.6707 27.3096 18.3553 27.0345C19.0398 26.7594 19.6613 26.3482 20.1824 25.826C20.7034 25.3037 21.113 24.6811 21.3865 23.996C21.6599 23.3108 21.7916 22.5773 21.7733 21.8398L21.76 20.4131Z" fill="black"/>
<path d="M22.9066 21.4398L29.3333 15.9198L22.9333 10.5864V13.5998H14.7333V17.9998H22.9066V21.4398Z" fill="black"/>
</svg>
