<svg width="32" height="32" viewBox="0 0 32 32" fill="none" xmlns="http://www.w3.org/2000/svg">
<path d="M12.6667 18.1064C11.2667 12.7731 13.1734 8.50645 17.7067 5.22645C14.8716 4.6225 11.914 5.04892 9.36494 6.42916C6.81589 7.8094 4.8423 10.0531 3.79848 12.7573C2.75466 15.4616 2.70898 18.4494 3.66964 21.1844C4.63029 23.9193 6.53436 26.2223 9.04003 27.6798C13.9734 30.5864 20.1067 29.3464 23.0134 26.3464C17.0134 25.0664 13.8534 22.6664 12.6667 18.1064Z" fill="black"/>
<path d="M21.5733 9.06681C21.3733 8.33348 21.08 7.62681 20.8267 6.92014L20.5733 6.81348C20.5906 7.32986 20.5005 7.84421 20.3087 8.32397C20.1169 8.80373 19.8277 9.23846 19.4592 9.60066C19.0907 9.96285 18.6511 10.2446 18.1681 10.4281C17.6851 10.6117 17.1693 10.6929 16.6533 10.6668L16.8 10.9868C17.4667 11.2001 18.1333 11.4801 18.8 11.6401C19.0968 11.6998 19.3687 11.8474 19.5804 12.0638C19.7921 12.2803 19.9336 12.5554 19.9867 12.8535C20.1733 13.5335 20.44 14.1868 20.7333 15.0535C20.9728 13.9817 21.4018 12.9612 22 12.0401C22.9092 11.4614 23.9171 11.0547 24.9733 10.8401C24.0667 10.5335 23.3733 10.2668 22.6533 10.0801C22.3933 10.0369 22.1519 9.91757 21.9597 9.73721C21.7675 9.55685 21.633 9.32356 21.5733 9.06681Z" fill="black"/>
<path d="M26.7731 4.57317C26.3749 3.99654 26.0899 3.34952 25.9331 2.6665C25.8382 3.39918 25.4906 4.07577 24.9502 4.57961C24.4099 5.08345 23.7107 5.38296 22.9731 5.4265C23.736 5.48555 24.4521 5.8171 24.9907 6.36057C25.5293 6.90404 25.8543 7.62315 25.9065 8.3865C26.1065 6.57317 27.1598 5.71984 29.0131 5.51984C28.2184 5.33308 27.461 5.01299 26.7731 4.57317ZM25.8798 6.5865L25.1331 5.79984L26.3731 4.8265L26.9731 5.4665L25.8798 6.5865Z" fill="black"/>
</svg>
