<svg width="32" height="32" viewBox="0 0 32 32" fill="none" xmlns="http://www.w3.org/2000/svg">
<path d="M24.6533 17.1865C24.6533 18.1332 24.6533 19.0798 24.6533 20.0265C24.5881 20.6884 24.6743 21.3564 24.9053 21.9801C25.1362 22.6038 25.506 23.1668 25.9866 23.6265C26.2 23.8532 26.5066 24.0665 26.5866 24.3465C26.8156 24.8134 26.8904 25.341 26.8 25.8532C26.662 26.0537 26.4795 26.2194 26.2666 26.3374C26.0538 26.4554 25.8164 26.5224 25.5733 26.5332C24.0666 26.6265 22.56 26.5332 21.0533 26.5332C20.7913 26.4976 20.5247 26.5407 20.2873 26.6571C20.0499 26.7734 19.8524 26.9577 19.72 27.1865C19.3224 27.8317 18.7663 28.3644 18.1047 28.7338C17.443 29.1033 16.6978 29.2973 15.94 29.2973C15.1821 29.2973 14.4369 29.1033 13.7753 28.7338C13.1136 28.3644 12.5575 27.8317 12.16 27.1865C12.0379 26.9683 11.8568 26.7888 11.6376 26.6686C11.4183 26.5483 11.1696 26.4922 10.92 26.5065C9.41331 26.5065 7.89331 26.5065 6.39998 26.5065C6.13615 26.4957 5.87842 26.4239 5.64706 26.2967C5.41569 26.1694 5.21701 25.9902 5.06664 25.7732C4.96136 25.2579 5.06186 24.7219 5.34664 24.2798C5.66393 23.8192 6.03549 23.3984 6.45331 23.0265C6.81764 22.6452 7.10297 22.1957 7.2929 21.7037C7.48283 21.2117 7.57359 20.687 7.55998 20.1598C7.55998 17.4932 7.47998 14.9065 7.73331 12.3065C7.91257 10.9129 8.44692 9.58872 9.28511 8.46102C10.1233 7.33331 11.2372 6.43991 12.52 5.8665C12.8767 5.64431 13.1381 5.29738 13.2533 4.89317C13.3897 4.26503 13.7362 3.70215 14.2355 3.29736C14.7348 2.89257 15.3572 2.67005 16 2.6665C16.6042 2.68391 17.1874 2.89186 17.6664 3.26064C18.1453 3.62941 18.4954 4.14014 18.6666 4.71984C18.8083 5.11818 19.0809 5.45664 19.44 5.67984C21.0714 6.39904 22.4507 7.58927 23.401 9.09783C24.3513 10.6064 24.8291 12.3645 24.7733 14.1465C24.7733 15.1598 24.7733 16.1732 24.7733 17.1865H24.6533ZM17.3333 6.47984C17.3333 6.2665 17.3333 6.13317 17.3333 5.99984C17.3333 4.6665 16.8933 3.99984 16 3.99984C15.1066 3.99984 14.6666 4.55984 14.6666 5.97317C14.6666 6.5865 14.3466 6.7065 13.8933 6.87984C12.5376 7.31425 11.3508 8.16007 10.4978 9.29981C9.6448 10.4396 9.16789 11.8167 9.13331 13.2398C9.02664 15.4665 9.13331 17.7065 9.13331 19.9065C9.16513 20.6966 9.03086 21.4845 8.73919 22.2194C8.44751 22.9544 8.00491 23.6199 7.43998 24.1732C7.21331 24.3998 7.02664 24.6398 6.75998 24.9465H25.3333C23.1733 23.2132 22.9733 21.0398 23.16 18.7198C23.2533 17.5332 23.16 16.3332 23.28 15.1598C23.5572 13.231 23.0998 11.2684 21.9984 9.66081C20.8971 8.05323 19.2321 6.91794 17.3333 6.47984ZM13.5866 26.5732C15.08 28.2532 17.4133 28.1865 18.1866 26.5732H13.5866Z" fill="black"/>
</svg>
