<svg width="32" height="32" viewBox="0 0 32 32" fill="none" xmlns="http://www.w3.org/2000/svg">
<path d="M26.4533 9.45333V7.70667L22.7467 4H11.7467V9.41333H5.93333C5.41936 9.41685 4.92764 9.6235 4.56544 9.98819C4.20325 10.3529 3.99999 10.846 4 11.36V23.7467C4 24.2594 4.20369 24.7512 4.56626 25.1137C4.92883 25.4763 5.42058 25.68 5.93333 25.68H10.5867V27.2267H9.02667V28H22.9733V27.2267H21.4133V25.68H26.0667C26.5794 25.68 27.0712 25.4763 27.4337 25.1137C27.7963 24.7512 28 24.2594 28 23.7467V11.36C27.9979 10.9136 27.8434 10.4812 27.5622 10.1345C27.2809 9.78779 26.8897 9.54748 26.4533 9.45333ZM22.5867 4.93333L25.52 7.86667H22.5867V4.93333ZM12.52 4.77333H21.8533V8.64H25.7333V21.0267H12.52V4.77333ZM20.64 27.2267H11.3067V25.68H20.64V27.2267ZM27.2267 23.7467C27.2267 24.0543 27.1045 24.3494 26.8869 24.5669C26.6694 24.7845 26.3743 24.9067 26.0667 24.9067H5.93333C5.62568 24.9067 5.33063 24.7845 5.11309 24.5669C4.89555 24.3494 4.77333 24.0543 4.77333 23.7467V23.36H27.2267V23.7467ZM27.2267 22.5867H4.77333V11.36C4.77333 11.0523 4.89555 10.7573 5.11309 10.5398C5.33063 10.3222 5.62568 10.2 5.93333 10.2H11.7467V21.8H26.4133V10.2667C26.6394 10.3466 26.8352 10.4947 26.9737 10.6905C27.1122 10.8863 27.1866 11.1202 27.1867 11.36L27.2267 22.5867Z" fill="black"/>
<path d="M10.9733 13.6799C10.9733 13.1524 10.817 12.6369 10.5239 12.1983C10.2309 11.7598 9.81444 11.418 9.32717 11.2162C8.8399 11.0143 8.30372 10.9615 7.78644 11.0644C7.26916 11.1673 6.794 11.4213 6.42106 11.7942C6.04812 12.1672 5.79415 12.6423 5.69126 13.1596C5.58836 13.6769 5.64117 14.2131 5.843 14.7003C6.04484 15.1876 6.38663 15.6041 6.82516 15.8971C7.26369 16.1901 7.77927 16.3465 8.30668 16.3465C9.01393 16.3465 9.6922 16.0656 10.1923 15.5655C10.6924 15.0654 10.9733 14.3871 10.9733 13.6799ZM8.64002 12.9065C8.64002 12.983 8.61734 13.0578 8.57485 13.1213C8.53236 13.1849 8.47197 13.2345 8.40132 13.2638C8.33067 13.293 8.25292 13.3007 8.17791 13.2858C8.10291 13.2708 8.03401 13.234 7.97993 13.1799C7.92586 13.1259 7.88903 13.057 7.87411 12.982C7.85919 12.9069 7.86685 12.8292 7.89612 12.7585C7.92538 12.6879 7.97494 12.6275 8.03853 12.585C8.10212 12.5425 8.17687 12.5199 8.25335 12.5199C8.3559 12.5199 8.45425 12.5606 8.52676 12.6331C8.59928 12.7056 8.64002 12.804 8.64002 12.9065ZM8.25335 15.5732C7.99156 15.5741 7.73254 15.5196 7.49335 15.4132C7.5324 15.2403 7.6287 15.0856 7.76665 14.9743C7.90459 14.863 8.07609 14.8015 8.25335 14.7999C8.43125 14.7991 8.60397 14.8596 8.74242 14.9714C8.88086 15.0831 8.97654 15.2391 9.01335 15.4132C8.77833 15.5363 8.51852 15.6047 8.25335 15.6132V15.5732ZM8.25335 14.0265C7.95401 14.0267 7.66114 14.1136 7.41027 14.277C7.15939 14.4403 6.9613 14.6728 6.84002 14.9465C6.50133 14.5857 6.31504 14.108 6.32002 13.6132C6.33768 13.1561 6.51573 12.7199 6.82294 12.381C7.13014 12.0421 7.54687 11.8222 8.00002 11.7599C7.73765 11.8172 7.50248 11.9618 7.33295 12.1701C7.16342 12.3783 7.06955 12.638 7.06668 12.9065C7.06662 13.1286 7.13029 13.3459 7.25012 13.5329C7.36995 13.7198 7.54091 13.8684 7.7427 13.961C7.94448 14.0537 8.16862 14.0865 8.38848 14.0555C8.60835 14.0245 8.8147 13.9311 8.98305 13.7863C9.15139 13.6415 9.27465 13.4515 9.33818 13.2387C9.40171 13.026 9.40285 12.7995 9.34146 12.5861C9.28007 12.3727 9.15873 12.1814 8.99185 12.035C8.82497 11.8885 8.61956 11.793 8.40002 11.7599C8.75662 11.7961 9.09578 11.9322 9.37857 12.1525C9.66136 12.3727 9.87634 12.6683 9.99884 13.0051C10.1213 13.342 10.1464 13.7066 10.0711 14.057C9.99587 14.4075 9.82335 14.7296 9.57335 14.9865C9.46016 14.7259 9.27679 14.5019 9.04372 14.3395C8.81063 14.177 8.537 14.0825 8.25335 14.0665V14.0265Z" fill="black"/>
<path d="M5.54663 19.0934C5.54663 19.6208 5.70303 20.1364 5.99605 20.5749C6.28906 21.0135 6.70554 21.3553 7.19281 21.5571C7.68008 21.7589 8.21626 21.8117 8.73354 21.7089C9.25082 21.606 9.72598 21.352 10.0989 20.979C10.4719 20.6061 10.7258 20.1309 10.8287 19.6137C10.9316 19.0964 10.8788 18.5602 10.677 18.0729C10.4751 17.5857 10.1333 17.1692 9.69482 16.8762C9.25629 16.5832 8.74071 16.4268 8.2133 16.4268C7.50605 16.4268 6.82778 16.7077 6.32768 17.2078C5.82758 17.7079 5.54663 18.3862 5.54663 19.0934ZM8.2133 21.0268C7.95302 21.0259 7.69522 20.9761 7.4533 20.8801C7.48971 20.7047 7.58488 20.547 7.72307 20.4331C7.86126 20.3191 8.0342 20.2558 8.2133 20.2534C8.39307 20.2533 8.56728 20.3157 8.70598 20.4301C8.84468 20.5445 8.9392 20.7036 8.9733 20.8801C8.7446 20.9736 8.50036 21.0234 8.2533 21.0268H8.2133ZM8.59996 18.3601C8.59996 18.4366 8.57729 18.5113 8.5348 18.5749C8.49231 18.6385 8.43192 18.6881 8.36127 18.7173C8.29061 18.7466 8.21287 18.7542 8.13786 18.7393C8.06286 18.7244 7.99396 18.6876 7.93988 18.6335C7.88581 18.5794 7.84898 18.5105 7.83406 18.4355C7.81914 18.3605 7.8268 18.2828 7.85606 18.2121C7.88533 18.1415 7.93489 18.0811 7.99848 18.0386C8.06206 17.9961 8.13682 17.9734 8.2133 17.9734C8.26412 17.9679 8.31554 17.9725 8.36458 17.987C8.41361 18.0014 8.45929 18.0255 8.49897 18.0577C8.53865 18.09 8.57154 18.1298 8.59574 18.1748C8.61995 18.2198 8.63498 18.2692 8.63996 18.3201L8.59996 18.3601ZM7.99996 17.1868C7.77987 17.22 7.57399 17.3159 7.40691 17.463C7.23982 17.6101 7.11859 17.8022 7.05767 18.0163C6.99674 18.2304 6.99871 18.4575 7.06333 18.6705C7.12795 18.8835 7.2525 19.0734 7.42211 19.2176C7.59171 19.3617 7.79922 19.4541 8.01986 19.4835C8.2405 19.513 8.46496 19.4783 8.66645 19.3837C8.86793 19.2891 9.03795 19.1385 9.15619 18.9499C9.27443 18.7613 9.33591 18.5427 9.3333 18.3201C9.33545 18.0537 9.24481 17.7949 9.07693 17.5881C8.90905 17.3813 8.67441 17.2394 8.4133 17.1868C8.88126 17.242 9.31294 17.4662 9.62721 17.8173C9.94149 18.1684 10.1167 18.6222 10.12 19.0934C10.1173 19.5893 9.92669 20.0658 9.58663 20.4268C9.46958 20.1486 9.27304 19.9111 9.02163 19.7441C8.77021 19.5771 8.47511 19.4881 8.1733 19.4881C7.87148 19.4881 7.57638 19.5771 7.32497 19.7441C7.07355 19.9111 6.87701 20.1486 6.75996 20.4268C6.50912 20.164 6.33797 19.8355 6.26639 19.4793C6.19481 19.1231 6.22574 18.754 6.35559 18.4147C6.48543 18.0754 6.70887 17.78 6.99994 17.5626C7.29101 17.3452 7.63778 17.2149 7.99996 17.1868Z" fill="black"/>
<path d="M17.9333 7.06649V6.31982H14.0667V10.1998H17.9333V7.99982L19.2666 7.01316L18.8133 6.38649L17.9333 7.06649ZM17.16 7.61316L16.4266 8.13316L15.88 7.59982L15.3333 8.14649L16.3467 9.14649L17.16 8.57316V9.41316H14.84V7.09316H17.16V7.61316Z" fill="black"/>
<path d="M17.9333 11.7065V10.9731H14.0667V14.8398H17.9333V12.6531L19.2666 11.6665L18.8133 11.0398L17.9333 11.7065ZM17.16 12.2665L16.4266 12.7865L15.88 12.2398L15.3333 12.7865L16.3467 13.7998L17.16 13.2131V14.0665H14.84V11.7465H17.16V12.2665Z" fill="black"/>
<path d="M17.9333 16.3599V15.6133H14.0667V19.4799H17.9333V17.3333L19.2666 16.3466L18.8133 15.7066L17.9333 16.3599ZM17.16 16.9066L16.4266 17.4266L15.88 16.8933L15.3333 17.4399L16.3467 18.4399L17.16 17.8533V18.6666H14.84V16.3866H17.16V16.9066Z" fill="black"/>
<path d="M24.12 9.41357H19.48V10.1869H24.12V9.41357Z" fill="black"/>
<path d="M24.12 14.0669H19.48V14.8402H24.12V14.0669Z" fill="black"/>
<path d="M24.12 18.7065H19.48V19.4799H24.12V18.7065Z" fill="black"/>
<path d="M24.12 17.1602H19.48V17.9335H24.12V17.1602Z" fill="black"/>
<path d="M24.12 12.52H19.48V13.2934H24.12V12.52Z" fill="black"/>
<path d="M21.0266 7.8667H19.48V8.64003H21.0266V7.8667Z" fill="black"/>
</svg>
