<svg width="38" height="38" viewBox="0 0 38 38" fill="none" xmlns="http://www.w3.org/2000/svg">
<path d="M17.8917 31.6665C18.05 32.1415 18.2083 32.7748 18.525 33.2498C18.8417 33.8832 19.1583 34.3582 19.3167 34.8332H7.91667C7.125 34.8332 6.33333 34.5165 5.7 33.8832C5.06667 33.2498 4.75 32.4582 4.75 31.6665V6.33317C4.75 5.5415 5.06667 4.74984 5.7 4.1165C6.33333 3.48317 7.125 3.1665 7.91667 3.1665H26.9167C27.8667 3.1665 28.5 3.48317 29.1333 4.1165C29.7667 4.74984 30.0833 5.38317 30.0833 6.33317V17.5748C29.6083 17.5748 29.1333 17.5748 28.5 17.5748C27.8667 17.5748 27.3917 17.5748 26.9167 17.5748V6.33317H19V17.4165L15.0417 15.0415L11.0833 17.4165V6.33317H7.91667V31.6665H17.8917ZM17.8917 6.33317H7.91667H26.9167H17.4167H17.8917Z" fill="#1B5967"/>
<path d="M19.7917 33.4082C19.7917 34.3582 20.5833 35.3082 21.6917 35.3082H29.1333C30.0833 35.3082 31.0333 34.5166 31.0333 33.4082V22.3249H19.95V33.4082H19.7917ZM21.6917 24.2249H29.1333V33.4082H21.6917V24.2249ZM28.5 19.4749L27.55 18.5249H22.9583L22.1667 19.4749H19V21.3749H31.9833V19.4749H28.5Z" fill="#1B5967"/>
</svg>
