<svg id="Layer_1" data-name="Layer 1" xmlns="http://www.w3.org/2000/svg" viewBox="0 0 48 48"><defs><style>.cls-1{fill:#0db2b2;}</style></defs><title>play_lesson</title><path class="cls-1" d="M35.4,43.32H7.78s0,0-.06,0A3.26,3.26,0,0,1,5,39.77V7.89A3.21,3.21,0,0,1,7.79,4.73a12,12,0,0,1,1.7,0H35c.56,0,.83.24.83.73,0,2.55,0,5.1,0,7.65,0,.11,0,.23,0,.34l.2,0A7.81,7.81,0,0,1,36.19,29c-.31,0-.39.14-.39.44,0,1.82,0,3.65,0,5.47,0,2.52,0,5,0,7.54A1,1,0,0,1,35.4,43.32ZM34.51,6H8.4A2,2,0,0,0,6.28,8.09V33.77c0,.11,0,.21,0,.37A4,4,0,0,1,8.9,33.5H34.49c0-.09,0-.13,0-.16,0-1.36,0-2.72,0-4.08,0-.26-.16-.26-.34-.29a7.8,7.8,0,0,1-2.28-14.85,24.51,24.51,0,0,1,2.59-.82Zm0,28.84-.29,0h-26a1.86,1.86,0,0,0-1.91,1.76c-.05,1.1,0,2.21,0,3.32A2,2,0,0,0,8.46,42h26v-3.8H27.23a1.29,1.29,0,0,1-.48-.06.62.62,0,0,1,.1-1.2,3,3,0,0,1,.42,0h7.24Zm.69-20.1a6.53,6.53,0,1,0,0,13.06,6.53,6.53,0,0,0,0-13.06Z"/><path class="cls-1" d="M23.24,37h.91a.63.63,0,0,1,0,1.26c-.64,0-1.28,0-1.92,0a.6.6,0,0,1-.59-.65.61.61,0,0,1,.64-.6Z"/><path class="cls-1" d="M35,20.11l.14-.14,2.16-2.16a.55.55,0,0,1,.59-.17.54.54,0,0,1,.24.9l-.59.59-1.62,1.62s-.1.07-.16.12.11.12.16.16l2.18,2.19a.55.55,0,0,1-.24.94A.57.57,0,0,1,37.3,24l-2.16-2.16s-.07-.1-.12-.16l-.16.15L32.7,24a.58.58,0,0,1-.59.19.55.55,0,0,1-.23-.93l1.41-1.4,1-1a1,1,0,0,1-.18-.09l-2.17-2.17a.55.55,0,0,1-.17-.59.55.55,0,0,1,.92-.22l1,1L34.87,20Z"/></svg>