<svg width="15" height="14" viewBox="0 0 15 14" fill="none" xmlns="http://www.w3.org/2000/svg">
<path fill-rule="evenodd" clip-rule="evenodd" d="M13.3333 7.00008C13.3333 10.2217 10.7217 12.8334 7.49999 12.8334C4.27833 12.8334 1.66666 10.2217 1.66666 7.00008C1.66666 3.77842 4.27833 1.16675 7.49999 1.16675C10.7217 1.16675 13.3333 3.77842 13.3333 7.00008ZM4.41666 7.00008C4.41666 6.58587 4.75244 6.25008 5.16666 6.25008H6.74999V4.66675C6.74999 4.25253 7.08578 3.91675 7.49999 3.91675C7.9142 3.91675 8.24999 4.25253 8.24999 4.66675V6.25008H9.83332C10.2475 6.25008 10.5833 6.58587 10.5833 7.00008C10.5833 7.4143 10.2475 7.75008 9.83332 7.75008H8.24999V9.33341C8.24999 9.74763 7.9142 10.0834 7.49999 10.0834C7.08578 10.0834 6.74999 9.74763 6.74999 9.33341V7.75008H5.16666C4.75244 7.75008 4.41666 7.4143 4.41666 7.00008Z" fill="white"/>
</svg>
