<svg width="24" height="24" viewBox="0 0 24 24" fill="none" xmlns="http://www.w3.org/2000/svg">
<path d="M7.12012 19.24V4.6H8.75012V17.6H17.8901C18.047 17.6044 18.2 17.551 18.3201 17.45C18.377 17.4045 18.4228 17.3466 18.4539 17.2808C18.4851 17.2149 18.5009 17.1428 18.5001 17.07C18.4996 16.9494 18.4572 16.8328 18.3801 16.74C18.3085 16.6383 18.2015 16.567 18.0801 16.54L10.3701 15V2L18.3701 3.59C18.8693 3.67893 19.3161 3.95415 19.6201 4.36C19.9363 4.74986 20.1061 5.23807 20.1001 5.74V17.08C20.108 17.3692 20.0531 17.6566 19.9392 17.9224C19.8252 18.1883 19.6549 18.4263 19.4401 18.62C19.0146 19.025 18.4475 19.2475 17.8601 19.24H7.12012ZM16.1201 4.78L12.0001 4V13.72L16.0701 14.51L16.1201 4.78ZM18.1201 14.91L18.3301 14.96L18.5401 15.03V5.74C18.5456 5.5998 18.4952 5.46314 18.4001 5.36C18.2926 5.25249 18.1514 5.18538 18.0001 5.17L17.6901 5.11V14.83L18.1201 14.91Z" fill="#0DB2B2"/>
<path d="M5.50012 22C5.06862 21.9974 4.65555 21.8248 4.35043 21.5197C4.04531 21.2146 3.87274 20.8015 3.87012 20.37V9H5.50012V20.37H16.8801V22H5.50012Z" fill="#0DB2B2"/>
</svg>
