<svg width="32" height="32" viewBox="0 0 32 32" fill="none" xmlns="http://www.w3.org/2000/svg">
<path d="M2.66663 15.9999V5.83989C2.62673 5.46416 2.67139 5.08426 2.79732 4.72803C2.92326 4.37179 3.12729 4.04823 3.39446 3.78106C3.66164 3.51388 3.98519 3.30986 4.34143 3.18392C4.69767 3.05798 5.07756 3.01333 5.45329 3.05322H20.12C20.486 3.02762 20.8532 3.0827 21.1957 3.21457C21.5381 3.34644 21.8474 3.55188 22.1017 3.81639C22.3561 4.0809 22.5492 4.39802 22.6676 4.74536C22.7859 5.0927 22.8266 5.46179 22.7866 5.82656C22.7866 6.63989 22.7866 7.45323 22.7866 8.27989C22.7565 8.45053 22.7901 8.6263 22.881 8.7738C22.972 8.92129 23.1139 9.03022 23.28 9.07989C24.9333 9.70656 26.5733 10.4132 28.24 10.9332C29.1333 11.2399 29.2933 11.3066 29.2 12.2666C29.0911 14.3995 28.4919 16.4787 27.449 18.3425C26.4061 20.2064 24.9475 21.8046 23.1866 23.0132C23.0793 23.1021 22.991 23.2117 22.9269 23.3353C22.8628 23.459 22.8241 23.5943 22.8133 23.7332C22.8133 24.6399 22.8133 25.5466 22.8133 26.3999C22.8222 26.7224 22.7664 27.0434 22.6491 27.3439C22.5318 27.6445 22.3554 27.9184 22.1305 28.1496C21.9055 28.3808 21.6364 28.5646 21.3392 28.69C21.0419 28.8155 20.7226 28.88 20.4 28.8799C15.28 28.8799 10.16 28.8799 5.03996 28.8799C4.39628 28.859 3.78664 28.5858 3.34261 28.1193C2.89858 27.6529 2.65579 27.0305 2.66663 26.3866V15.9999ZM3.99996 15.9999V26.1066C3.99996 27.1999 4.35996 27.5599 5.47996 27.5599H20.1333C21.12 27.5599 21.4666 27.1866 21.4666 26.2266C21.4666 25.2666 21.4666 24.5466 21.4666 23.7066C21.4408 23.4481 21.3167 23.2095 21.12 23.0399C19.3405 21.8336 17.8685 20.2271 16.8219 18.3492C15.7753 16.4714 15.1833 14.3745 15.0933 12.2266C15.0266 11.3866 15.1866 11.2799 15.9866 10.9999C17.68 10.4132 19.3466 9.77323 21.0133 9.10656C21.137 9.02516 21.2407 8.91699 21.3169 8.79004C21.393 8.6631 21.4397 8.52064 21.4533 8.37323C21.4533 7.58656 21.4533 6.78656 21.4533 5.98656C21.4533 4.85322 21.12 4.51989 20 4.51989C15.1644 4.51989 10.3244 4.51989 5.47996 4.51989C4.37329 4.51989 4.02663 4.87989 4.02663 5.99989L3.99996 15.9999ZM16.48 12.5199C16.6168 14.3426 17.1567 16.1121 18.0606 17.7008C18.9644 19.2895 20.2097 20.6576 21.7066 21.7066C21.8356 21.82 22.0015 21.8826 22.1733 21.8826C22.3451 21.8826 22.511 21.82 22.64 21.7066C24.8995 20.1203 26.543 17.8034 27.2933 15.1466C27.5733 14.2532 27.7066 13.3066 27.8666 12.5466L22.4 10.2132C22.2146 10.1471 22.012 10.1471 21.8266 10.2132L16.48 12.5199Z" fill="black"/>
<path d="M12.7599 24.9866H7.42661C6.90661 24.9866 6.43994 24.9066 6.43994 24.2799C6.43994 23.6532 6.93327 23.5732 7.43994 23.5732C10.9955 23.5732 14.5511 23.5732 18.1066 23.5732C18.6266 23.5732 19.0666 23.6932 19.0399 24.3199C19.0133 24.9466 18.6399 24.9866 18.1599 24.9866H12.7599Z" fill="black"/>
<path d="M12.8 7.01318H18.1333C18.64 7.01318 19.12 7.01318 19.1066 7.71985C19.0933 8.42652 18.64 8.42652 18.1333 8.42652C14.5778 8.42652 11.0222 8.42652 7.46664 8.42652C6.93331 8.42652 6.49331 8.30652 6.50664 7.67985C6.51998 7.05318 6.97331 7.01318 7.46664 7.01318H12.8Z" fill="black"/>
<path d="M11.0934 19.4399H14.88C15.3867 19.4399 15.8667 19.5466 15.84 20.1733C15.8134 20.7999 15.36 20.8399 14.88 20.8399H7.3867C6.89337 20.8399 6.45337 20.7333 6.45337 20.1466C6.45337 19.5599 6.88004 19.4399 7.37337 19.4399H11.0934Z" fill="black"/>
<path d="M10.16 16.7068H7.36004C6.85337 16.7068 6.45337 16.5735 6.45337 15.9868C6.45337 15.4001 6.89337 15.2935 7.3867 15.2935H12.9734C13.4667 15.2935 13.9067 15.3868 13.9067 15.9735C13.9067 16.5601 13.4667 16.7068 12.9467 16.7068H10.16Z" fill="black"/>
<path d="M9.94668 12.5602H7.28002C6.81335 12.5602 6.44002 12.3868 6.45335 11.8402C6.46668 11.2935 6.81335 11.1602 7.26668 11.1602H12.6C13.08 11.1602 13.4533 11.3602 13.4267 11.8802C13.4 12.4002 13.0267 12.5602 12.5467 12.5602H9.94668Z" fill="black"/>
<path d="M21.96 17.3334C22.6933 16.0001 23.4133 14.6667 24.12 13.4134C24.2133 13.2267 24.28 12.9601 24.4267 12.8801C24.6805 12.6691 25.0036 12.5599 25.3333 12.5734C25.5067 12.5734 25.6933 13.2267 25.5867 13.4267C24.6711 15.2578 23.6978 17.0623 22.6667 18.8401C22.6216 18.9461 22.5487 19.038 22.4557 19.106C22.3627 19.1741 22.2531 19.2157 22.1384 19.2267C22.0237 19.2376 21.9082 19.2173 21.804 19.1681C21.6999 19.1188 21.611 19.0423 21.5467 18.9467C20.8667 18.2001 20.2133 17.4534 19.5867 16.6534C19.44 16.4667 19.48 15.8534 19.5867 15.7734C19.7352 15.6973 19.8998 15.6577 20.0667 15.6577C20.2336 15.6577 20.3981 15.6973 20.5467 15.7734C21.0582 16.2553 21.5307 16.777 21.96 17.3334Z" fill="black"/>
</svg>
