<svg width="48" height="48" viewBox="0 0 48 48" fill="none" xmlns="http://www.w3.org/2000/svg">
<path d="M10.96 22.1599C11.14 22.5399 11.26 23.1599 11.56 23.2799C12.769 23.7775 14.0673 24.0218 15.3745 23.9977C16.6817 23.9736 17.9701 23.6817 19.16 23.1399C18.96 21.8399 18.3 21.7599 17.62 21.8799C16.3067 22.1661 14.9374 22.0458 13.6941 21.5349C12.4509 21.024 11.3926 20.1468 10.66 19.0199C10.12 18.2599 9.41999 17.4999 8.35999 17.8799C7.81694 18.0391 7.34536 18.3806 7.02476 18.8469C6.70416 19.3132 6.55414 19.8758 6.59999 20.4399C6.59999 23.1066 6.59999 25.7732 6.59999 28.4399C6.54711 28.7556 6.57077 29.0793 6.66899 29.384C6.76721 29.6886 6.93712 29.9653 7.16443 30.1906C7.39175 30.416 7.66983 30.5835 7.97532 30.6791C8.28081 30.7746 8.60477 30.7955 8.91999 30.7399H13.3C13.2273 32.2965 13.3959 33.8549 13.8 35.3599C14.04 36.3199 14.36 36.9199 15.3 36.7399C16.24 36.5599 17.04 35.8399 16.72 34.7399C16.463 33.9921 16.2755 33.2221 16.16 32.4399C15.38 26.5399 16.02 27.6199 10.96 27.5599C10.4999 26.3557 10.4999 25.0241 10.96 23.8199" fill="black"/>
<path d="M37.04 23.88C37.68 25.04 37.14 26.18 37.22 27.32C37.22 27.62 37.04 27.62 36.76 27.62C32.32 27.62 32.6 26.52 31.82 32.2C31.8403 32.9725 31.7321 33.7429 31.5 34.48C30.68 35.96 31.84 36.48 32.72 36.72C33.6 36.96 33.94 36.04 34.22 35.1C34.6105 33.6879 34.7792 32.2238 34.72 30.76H39.08C39.3952 30.8156 39.7192 30.7947 40.0247 30.6992C40.3302 30.6036 40.6082 30.4361 40.8356 30.2107C41.0629 29.9854 41.2328 29.7087 41.331 29.4041C41.4292 29.0994 41.4529 28.7757 41.4 28.46C41.4 25.78 41.4 23.1 41.4 20.46C41.4132 19.9772 41.2886 19.5006 41.0406 19.0862C40.7927 18.6717 40.4317 18.3366 40 18.12C39.6434 17.8966 39.218 17.81 38.8025 17.8762C38.387 17.9423 38.0095 18.1569 37.74 18.48C37.005 19.7065 35.902 20.6702 34.5878 21.2339C33.2737 21.7976 31.8153 21.9327 30.42 21.62C30.0835 21.5892 29.7475 21.6848 29.4776 21.8881C29.2077 22.0915 29.0232 22.388 28.96 22.72C31.5 24.72 35.64 24.36 37.08 22.16" fill="black"/>
<path d="M17.04 26.18C21.68 25.58 26.32 26.08 31.04 25.9L24.36 26.46V37.08" stroke="black" stroke-linecap="round" stroke-linejoin="round"/>
<path d="M8.34 37.0801V33.3601L11.82 32.5001C10.86 32.6401 9.82 32.5001 8.92 32.7001C8.0166 32.9159 7.06475 32.7742 6.2634 32.3045C5.46205 31.8349 4.87323 31.0737 4.62 30.1801C4.29054 28.6726 4.08321 27.1409 4 25.6001" stroke="black" stroke-linecap="round" stroke-linejoin="round"/>
<path d="M39.66 37.0799V33.3599L36.18 32.4999C37.14 32.6399 38.18 32.4999 39.08 32.6999C39.9828 32.9056 40.9301 32.7595 41.7289 32.2913C42.5278 31.8231 43.1182 31.0681 43.38 30.1799C43.6998 28.8666 43.9072 27.5284 44 26.1799" stroke="black" stroke-linecap="round" stroke-linejoin="round"/>
<path d="M7.75999 10.96C7.40923 11.0941 7.09113 11.3016 6.82692 11.5685C6.56272 11.8353 6.35849 12.1555 6.22787 12.5076C6.09726 12.8597 6.04327 13.2356 6.0695 13.6102C6.09573 13.9848 6.20158 14.3495 6.37999 14.68C6.62788 15.2564 7.08828 15.7151 7.66557 15.961C8.24286 16.2068 8.89266 16.2207 9.47999 16C10.0926 15.8417 10.6295 15.4717 10.9955 14.9556C11.3615 14.4395 11.5332 13.8105 11.48 13.18C11.4804 12.8585 11.4116 12.5408 11.2784 12.2482C11.1451 11.9557 10.9504 11.6953 10.7075 11.4847C10.4647 11.2741 10.1793 11.1182 9.8709 11.0277C9.56246 10.9372 9.23814 10.9141 8.91999 10.96H7.99999" fill="black"/>
<path d="M38.2 10.9601C37.8776 11.0464 37.5763 11.198 37.3147 11.4054C37.0532 11.6128 36.837 11.8717 36.6795 12.166C36.5221 12.4603 36.4267 12.7838 36.3992 13.1165C36.3718 13.4492 36.4129 13.7839 36.52 14.1001C36.6641 14.6157 36.9541 15.0787 37.355 15.4334C37.7559 15.7882 38.2507 16.0197 38.78 16.1001C39.2802 16.2001 39.7991 16.1422 40.2649 15.9344C40.7307 15.7266 41.1204 15.3791 41.38 14.9401C41.638 14.5176 41.7923 14.04 41.8306 13.5465C41.8688 13.0529 41.7898 12.5573 41.6 12.1001C41.14 10.7601 39.74 10.8201 38.5 10.9201" fill="black"/>
</svg>
