<svg width="32" height="32" viewBox="0 0 32 32" fill="none" xmlns="http://www.w3.org/2000/svg">
<path d="M12.6933 17.5731C11.3393 16.92 10.2054 15.8856 9.43086 14.5971C8.65634 13.3086 8.27488 11.822 8.33331 10.3198C8.34556 8.43203 9.04554 6.61347 10.3022 5.20468C11.5588 3.79589 13.2859 2.89348 15.16 2.66647C16.9889 2.49023 18.8207 2.97209 20.3262 4.02544C21.8317 5.07879 22.9121 6.63456 23.3733 8.41313C23.7076 9.56009 23.7648 10.77 23.5402 11.9434C23.3157 13.1168 22.8157 14.2201 22.0815 15.1626C21.3474 16.105 20.3999 16.8597 19.3171 17.3646C18.2344 17.8694 17.0472 18.11 15.8533 18.0665C14.0594 17.9862 12.2771 18.3923 10.6952 19.242C9.11319 20.0917 7.79035 21.3532 6.86665 22.8931C5.86303 24.4514 5.3306 26.2663 5.33331 28.1198C5.33331 28.3198 5.33331 28.5331 5.33331 28.6931C5.2114 28.9257 5.05893 29.141 4.87998 29.3331C4.74665 29.1331 4.47998 28.9065 4.47998 28.7198C4.51539 27.8245 4.6179 26.9331 4.78665 26.0531C5.2018 24.0935 6.13434 22.2808 7.4873 20.8035C8.84025 19.3263 10.5642 18.2385 12.48 17.6531L12.6933 17.5731ZM15.8133 17.3331C17.6192 17.2397 19.3284 16.4882 20.6181 15.2207C21.9078 13.9531 22.6887 12.2571 22.8133 10.4531C22.7347 8.65868 21.9954 6.95666 20.7377 5.67432C19.48 4.39199 17.7926 3.61988 16 3.50647C14.2153 3.61929 12.5349 4.38621 11.2803 5.66049C10.0257 6.93477 9.28501 8.62691 9.19998 10.4131C9.2362 12.185 9.93561 13.8788 11.1601 15.16C12.3845 16.4413 14.0449 17.2167 15.8133 17.3331Z" fill="black"/>
<path d="M27.5066 28.2531C27.5093 28.4823 27.4824 28.7108 27.4266 28.9331C27.4266 29.0798 27.2 29.1998 27.08 29.3198C26.9466 29.1864 26.7333 29.0531 26.7066 28.8931C26.6 28.1331 26.5866 27.3598 26.4533 26.5998C26.1054 24.5174 25.1064 22.5989 23.6 21.1198C23.4627 20.9171 23.3634 20.6912 23.3066 20.4531C23.5866 20.4531 23.9466 20.3598 24.1333 20.4531C25.1467 21.2843 25.9544 22.3383 26.4933 23.5331C27.1354 25.0254 27.4796 26.6288 27.5066 28.2531Z" fill="black"/>
</svg>
