<svg width="32" height="32" viewBox="0 0 32 32" fill="none" xmlns="http://www.w3.org/2000/svg">
<path d="M15.3333 19.3332L24.6666 13.3332L15.3333 7.33317V19.3332ZM10.6666 23.9998C9.93329 23.9998 9.30551 23.7387 8.78329 23.2165C8.26107 22.6943 7.99996 22.0665 7.99996 21.3332V5.33317C7.99996 4.59984 8.26107 3.97206 8.78329 3.44984C9.30551 2.92761 9.93329 2.6665 10.6666 2.6665H26.6666C27.4 2.6665 28.0277 2.92761 28.55 3.44984C29.0722 3.97206 29.3333 4.59984 29.3333 5.33317V21.3332C29.3333 22.0665 29.0722 22.6943 28.55 23.2165C28.0277 23.7387 27.4 23.9998 26.6666 23.9998H10.6666ZM10.6666 21.3332H26.6666V5.33317H10.6666V21.3332ZM5.33329 29.3332C4.59996 29.3332 3.97218 29.0721 3.44996 28.5498C2.92774 28.0276 2.66663 27.3998 2.66663 26.6665V7.99984H5.33329V26.6665H24V29.3332H5.33329Z" fill="black"/>
</svg>
