<svg width="32" height="32" viewBox="0 0 32 32" fill="none" xmlns="http://www.w3.org/2000/svg">
<path d="M28.3467 16.1469C28.2983 15.8386 28.1761 15.5466 27.9903 15.2958C27.8046 15.0451 27.5609 14.843 27.2801 14.7069C26.3769 14.5192 25.4494 14.4786 24.5334 14.5869C24.3467 14.5869 24.1867 15.0536 23.8267 15.5602C24.8801 15.5602 25.5067 15.5602 26.1334 15.5602C27.1201 15.4536 27.4001 15.8536 27.3867 16.8269C27.3867 20.1602 27.3867 23.4936 27.3867 26.8269C27.3867 27.6002 27.2667 28.3202 26.3201 28.3202C25.3734 28.3202 25.3334 27.5602 25.3334 26.7869C25.3334 24.2402 25.3334 21.6802 25.3334 19.1202C25.3334 17.7869 24.8267 17.3202 23.5067 17.3202C21.4505 17.2019 19.3891 17.2064 17.3334 17.3336C14.8667 17.6269 13.3334 16.8669 12.7334 14.4002C12.4801 13.4002 11.6801 13.0669 10.6667 13.0669C8.96006 13.0669 7.26673 13.0669 5.56006 13.0669C3.85339 13.0669 3.57339 13.5469 3.56006 15.0669V27.1736C3.58673 28.8402 4.00006 29.3336 5.65339 29.3336H21.9867H22.9467C23.3201 28.2936 22.6801 28.3469 22.0534 28.3469H5.72006C5.14673 28.3469 4.60006 28.3469 4.61339 27.5336C4.61339 23.3825 4.61339 19.2358 4.61339 15.0936C4.61339 14.4669 4.86673 14.2269 5.48006 14.2536C6.47344 14.3467 7.47335 14.3467 8.46673 14.2536C10.7867 13.8936 12.2667 14.6402 12.8401 17.0136C13.1067 18.1336 13.9334 18.4402 15.0401 18.4269C17.7067 18.4269 20.3734 18.4269 23.0401 18.4269C24.0134 18.4269 24.3734 18.7202 24.2934 19.6936C24.2934 22.2536 24.2934 24.8002 24.2934 27.3602C24.3003 27.8814 24.5104 28.3794 24.879 28.7479C25.2476 29.1165 25.7455 29.3267 26.2667 29.3336C26.5366 29.3558 26.8082 29.3215 27.0641 29.2329C27.32 29.1442 27.5546 29.0032 27.7528 28.8187C27.9511 28.6342 28.1087 28.4104 28.2155 28.1616C28.3224 27.9128 28.3762 27.6444 28.3734 27.3736C28.4267 23.6269 28.4401 19.8936 28.3467 16.1469Z" fill="black"/>
<path d="M7.2533 11.6665C7.2533 11.9198 7.55997 12.1598 7.71997 12.4132C7.87997 12.1732 8.14664 11.9465 8.19997 11.6932C8.24004 11.214 8.24004 10.7323 8.19997 10.2532V3.75984H22.0266V4.9065C22.0266 8.57317 22.0266 12.2398 22.0266 15.9065C22.0266 16.2398 22.32 16.5598 22.48 16.8798C22.6666 16.5465 23.0133 16.2132 23.0133 15.8798C23.0133 11.9998 23.0133 8.1065 23.0133 4.21317C23.0533 3.0665 22.6666 2.6665 21.52 2.6665H8.74664C7.58664 2.6665 7.2533 3.01317 7.22664 4.21317C7.22664 5.77317 7.22664 7.31984 7.22664 8.87984C7.22664 9.81317 7.19997 10.7465 7.2533 11.6665Z" fill="black"/>
<path d="M12.96 12.2132C12.96 12.9999 13.4933 13.2799 14.1866 12.8399C15.3333 12.0932 16.4533 11.2932 17.5733 10.5199C18.1733 10.0932 18.2133 9.6132 17.5733 9.18653C16.4533 8.38653 15.3333 7.59986 14.1733 6.86653C13.4666 6.4132 12.96 6.6932 12.9066 7.54653C12.8533 8.39986 12.9066 9.10653 12.9066 9.87986C12.9466 10.6665 12.9066 11.4399 12.96 12.2132ZM14.08 7.99986L16.7466 9.86653C15.8 10.5065 15 11.0799 14.08 11.7332V7.99986Z" fill="black"/>
</svg>
