<svg width="30" height="30" viewBox="0 0 30 30" fill="none" xmlns="http://www.w3.org/2000/svg">
<path d="M26.575 15.1375C26.5296 14.8485 26.415 14.5747 26.2409 14.3396C26.0667 14.1046 25.8383 13.9151 25.575 13.7875C24.7283 13.6115 23.8588 13.5735 23 13.675C22.825 13.675 22.675 14.1125 22.3375 14.5875C23.325 14.5875 23.9125 14.5875 24.5 14.5875C25.425 14.4875 25.6875 14.8625 25.675 15.775C25.675 18.9 25.675 22.025 25.675 25.15C25.675 25.875 25.5625 26.55 24.675 26.55C23.7875 26.55 23.75 25.8375 23.75 25.1125C23.75 22.725 23.75 20.325 23.75 17.925C23.75 16.675 23.275 16.2375 22.0375 16.2375C20.1098 16.1266 18.1772 16.1308 16.25 16.25C13.9375 16.525 12.5 15.8125 11.9375 13.5C11.7 12.5625 10.95 12.25 10 12.25C8.4 12.25 6.8125 12.25 5.2125 12.25C3.6125 12.25 3.35 12.7 3.3375 14.125V25.475C3.3625 27.0375 3.75 27.5 5.3 27.5H20.6125H21.5125C21.8625 26.525 21.2625 26.575 20.675 26.575H5.3625C4.825 26.575 4.3125 26.575 4.325 25.8125C4.325 21.9208 4.325 18.0333 4.325 14.15C4.325 13.5625 4.5625 13.3375 5.1375 13.3625C6.06879 13.4498 7.00621 13.4498 7.9375 13.3625C10.1125 13.025 11.5 13.725 12.0375 15.95C12.2875 17 13.0625 17.2875 14.1 17.275C16.6 17.275 19.1 17.275 21.6 17.275C22.5125 17.275 22.85 17.55 22.775 18.4625C22.775 20.8625 22.775 23.25 22.775 25.65C22.7815 26.1386 22.9785 26.6054 23.324 26.951C23.6696 27.2965 24.1364 27.4935 24.625 27.5C24.878 27.5209 25.1326 27.4887 25.3725 27.4056C25.6124 27.3225 25.8323 27.1903 26.0182 27.0173C26.2041 26.8444 26.3518 26.6346 26.452 26.4013C26.5522 26.168 26.6026 25.9164 26.6 25.6625C26.65 22.15 26.6625 18.65 26.575 15.1375Z" fill="#0DB2B2"/>
<path d="M6.8 10.9375C6.8 11.175 7.0875 11.4 7.2375 11.6375C7.3875 11.4125 7.6375 11.2 7.6875 10.9625C7.72507 10.5133 7.72507 10.0617 7.6875 9.6125V3.525H20.65V4.6C20.65 8.0375 20.65 11.475 20.65 14.9125C20.65 15.225 20.925 15.525 21.075 15.825C21.25 15.5125 21.575 15.2 21.575 14.8875C21.575 11.25 21.575 7.6 21.575 3.95C21.6125 2.875 21.25 2.5 20.175 2.5H8.2C7.1125 2.5 6.8 2.825 6.775 3.95C6.775 5.4125 6.775 6.8625 6.775 8.325C6.775 9.2 6.75 10.075 6.8 10.9375Z" fill="#0DB2B2"/>
<path d="M12.15 11.4501C12.15 12.1876 12.65 12.4501 13.3 12.0376C14.375 11.3376 15.425 10.5876 16.475 9.86256C17.0375 9.46256 17.075 9.01255 16.475 8.61256C15.425 7.86255 14.375 7.12506 13.2875 6.43756C12.625 6.01256 12.15 6.27506 12.1 7.07506C12.05 7.87505 12.1 8.53755 12.1 9.26256C12.1375 10.0001 12.1 10.7251 12.15 11.4501ZM13.2 7.50006L15.7 9.25006C14.8125 9.85006 14.0625 10.3876 13.2 11.0001V7.50006Z" fill="#0DB2B2"/>
</svg>
