<svg width="32" height="32" viewBox="0 0 32 32" fill="none" xmlns="http://www.w3.org/2000/svg">
<path d="M28.8933 26.6665H28.4266V10.7598C28.4333 10.6532 28.4333 10.5464 28.4266 10.4398C28.4267 10.3949 28.4176 10.3504 28.4 10.3091C28.3825 10.2677 28.3567 10.2304 28.3243 10.1992C28.292 10.1681 28.2536 10.1438 28.2116 10.1279C28.1696 10.112 28.1248 10.1047 28.08 10.1065H24.7866C24.7385 10.1006 24.6896 10.1053 24.6435 10.1202C24.5973 10.1352 24.555 10.1601 24.5194 10.1931C24.4839 10.2261 24.456 10.2665 24.4376 10.3114C24.4193 10.3563 24.411 10.4047 24.4133 10.4531C24.4066 10.5508 24.4066 10.6488 24.4133 10.7465V26.6665H23.2266V12.8398C23.2333 12.7466 23.2333 12.653 23.2266 12.5598C23.2266 12.3198 23.08 12.1865 22.84 12.1865H19.5733C19.5249 12.1847 19.4767 12.1927 19.4314 12.2099C19.3862 12.2272 19.3449 12.2535 19.3101 12.2871C19.2752 12.3207 19.2475 12.361 19.2286 12.4055C19.2097 12.4501 19.1999 12.498 19.2 12.5465C19.1933 12.6397 19.1933 12.7332 19.2 12.8265V26.6665H18.0133V18.9598C18.0133 18.5331 17.9066 18.4398 17.4933 18.4265H14.5733C14.0666 18.4265 13.9866 18.5065 13.9866 19.0265V26.6665H12.8V14.6665C12.8 14.4265 12.6533 14.2931 12.4133 14.2931H9.18663C9.13377 14.287 9.08023 14.2927 9.02985 14.3098C8.97947 14.3269 8.9335 14.355 8.89525 14.3919C8.857 14.4289 8.82742 14.4739 8.80863 14.5237C8.78985 14.5734 8.78234 14.6268 8.78663 14.6798C8.77999 14.7641 8.77999 14.8488 8.78663 14.9331V26.6665H7.59996V23.0931C7.59996 22.7065 7.47996 22.5998 7.09329 22.5998H4.10663C3.66663 22.5998 3.57329 22.6931 3.57329 23.1331V26.6665C3.22663 26.6665 2.86663 26.5598 2.66663 26.9331V29.1731C2.7401 29.2494 2.82977 29.3081 2.92901 29.345C3.02825 29.382 3.13452 29.3961 3.23996 29.3865H28.92C28.9765 29.3907 29.0332 29.3824 29.0862 29.3623C29.1392 29.3422 29.1871 29.3106 29.2265 29.2699C29.266 29.2292 29.296 29.1803 29.3144 29.1267C29.3329 29.0731 29.3393 29.0161 29.3333 28.9598V27.0531C29.3333 26.7598 29.1866 26.6665 28.8933 26.6665ZM25.1466 10.8531H27.68V26.6665H25.1466V10.8531ZM20 12.9331H22.52V26.6665H20V12.9331ZM14.7866 19.1865H17.3333V26.6665H14.8L14.7866 19.1865ZM9.58663 15.0131H12V26.6665H9.53329L9.58663 15.0131ZM4.31996 23.3465H6.85329V26.6665H4.31996V23.3465ZM28.6 28.5865H3.41329V27.3731H28.6V28.5865Z" fill="black"/>
<path d="M6.49332 12.8132C6.88737 12.5539 7.16487 12.1512 7.26694 11.6907C7.369 11.2302 7.28759 10.748 7.03998 10.3465L9.45332 7.99984C9.4949 7.97976 9.54047 7.96933 9.58665 7.96933C9.63282 7.96933 9.6784 7.97976 9.71998 7.99984C9.96768 8.13404 10.2449 8.20432 10.5266 8.20432C10.8084 8.20432 11.0856 8.13404 11.3333 7.99984C11.357 7.97397 11.3859 7.95332 11.418 7.93919C11.4502 7.92507 11.4849 7.91777 11.52 7.91777C11.5551 7.91777 11.5898 7.92507 11.6219 7.93919C11.6541 7.95332 11.6829 7.97397 11.7066 7.99984C12.5733 8.87984 13.4533 9.75984 14.3733 10.6665C14.4386 10.7168 14.4839 10.7887 14.501 10.8693C14.5181 10.9499 14.5059 11.034 14.4667 11.1065C14.3737 11.325 14.3263 11.5602 14.3274 11.7976C14.3284 12.0351 14.3778 12.2698 14.4727 12.4875C14.5675 12.7052 14.7057 12.9013 14.8789 13.0638C15.052 13.2263 15.2565 13.3517 15.4798 13.4325C15.7031 13.5133 15.9405 13.5477 16.1775 13.5336C16.4146 13.5196 16.6462 13.4573 16.8584 13.3507C17.0706 13.244 17.2588 13.0953 17.4115 12.9134C17.5642 12.7316 17.6783 12.5206 17.7466 12.2932C17.7936 11.8945 17.7936 11.4918 17.7466 11.0932L25.28 5.75984L25.4 5.85317C25.6765 6.06928 26.0118 6.19705 26.3621 6.21983C26.7123 6.24261 27.0613 6.15934 27.3635 5.98088C27.6657 5.80242 27.9072 5.53705 28.0564 5.21935C28.2056 4.90166 28.2556 4.54638 28.2 4.19984C28.1475 3.85387 27.9924 3.53163 27.7547 3.27488C27.5169 3.01812 27.2076 2.83869 26.8666 2.75984L26.6666 2.6665H26.1866H26.0533C25.8167 2.71249 25.5923 2.8073 25.3945 2.9449C25.1966 3.08249 25.0296 3.25984 24.9041 3.46561C24.7786 3.67138 24.6975 3.90106 24.6658 4.13998C24.6341 4.37889 24.6525 4.62179 24.72 4.85317C24.7355 4.88545 24.7444 4.92054 24.7461 4.95633C24.7478 4.99213 24.7422 5.02789 24.7298 5.0615C24.7173 5.0951 24.6983 5.12585 24.6737 5.15191C24.6491 5.17797 24.6195 5.1988 24.5867 5.21317L20.4 8.25317L17.3333 10.4665C17.0449 10.1871 16.6703 10.0139 16.2706 9.97515C15.871 9.9364 15.47 10.0344 15.1333 10.2532L12.0666 7.25317C12.2459 6.93886 12.324 6.57692 12.2902 6.21665C12.2563 5.85639 12.1123 5.5153 11.8777 5.23984C11.643 4.96439 11.3292 4.76795 10.9789 4.67728C10.6285 4.58662 10.2588 4.60613 9.91998 4.73317C9.69299 4.81567 9.48575 4.94469 9.31154 5.11197C9.13733 5.27925 9 5.48109 8.90836 5.70455C8.81672 5.928 8.77278 6.16814 8.77938 6.40957C8.78597 6.651 8.84295 6.88838 8.94665 7.1065C8.9871 7.16845 9.0014 7.24389 8.98641 7.31634C8.97142 7.38879 8.92836 7.45236 8.86665 7.49317L7.35998 8.99984L6.51998 9.83984C6.13964 9.60386 5.68547 9.51688 5.24486 9.59565C4.80425 9.67442 4.40834 9.91337 4.13332 10.2665C3.89105 10.5986 3.77071 11.004 3.79257 11.4145C3.81443 11.825 3.97716 12.2154 4.25332 12.5198C4.53436 12.8215 4.91175 13.0158 5.32056 13.0694C5.72937 13.1229 6.14407 13.0323 6.49332 12.8132ZM26.4933 3.39984C26.6293 3.39807 26.7642 3.42332 26.8903 3.47413C27.0164 3.52493 27.1312 3.60027 27.2279 3.69579C27.3247 3.7913 27.4015 3.90507 27.4539 4.03051C27.5063 4.15595 27.5333 4.29055 27.5333 4.4265C27.5333 4.69879 27.4251 4.95993 27.2326 5.15247C27.0401 5.345 26.7789 5.45317 26.5066 5.45317C26.2344 5.45317 25.9732 5.345 25.7807 5.15247C25.5881 4.95993 25.48 4.69879 25.48 4.4265C25.4794 4.16538 25.5784 3.91386 25.7567 3.72313C25.9351 3.5324 26.1794 3.41679 26.44 3.39984H26.4933ZM16 10.6665C16.2723 10.6665 16.5334 10.7747 16.7259 10.9672C16.9185 11.1597 17.0266 11.4209 17.0266 11.6932C17.0266 11.969 16.9171 12.2335 16.722 12.4286C16.527 12.6236 16.2625 12.7332 15.9866 12.7332C15.7165 12.7264 15.4593 12.6161 15.2682 12.425C15.0771 12.2339 14.9667 11.9767 14.96 11.7065C14.9582 11.5694 14.9839 11.4334 15.0355 11.3064C15.0871 11.1794 15.1637 11.0641 15.2606 10.9671C15.3575 10.8702 15.4729 10.7936 15.5999 10.742C15.7269 10.6904 15.8629 10.6647 16 10.6665ZM10.5333 5.33317C10.8056 5.33317 11.0667 5.44134 11.2593 5.63387C11.4518 5.82641 11.56 6.08755 11.56 6.35984C11.56 6.63213 11.4518 6.89326 11.2593 7.0858C11.0667 7.27834 10.8056 7.3865 10.5333 7.3865C10.261 7.3865 9.99989 7.27834 9.80735 7.0858C9.61482 6.89326 9.50665 6.63213 9.50665 6.35984C9.50665 6.08755 9.61482 5.82641 9.80735 5.63387C9.99989 5.44134 10.261 5.33317 10.5333 5.33317ZM5.53332 10.2932C5.74006 10.2879 5.94369 10.3443 6.11819 10.4553C6.29269 10.5663 6.43013 10.7268 6.51295 10.9164C6.59577 11.1059 6.62021 11.3158 6.58314 11.5192C6.54608 11.7227 6.44919 11.9105 6.30486 12.0586C6.16053 12.2067 5.97532 12.3085 5.77288 12.3508C5.57045 12.3931 5.35999 12.3742 5.1684 12.2963C4.9768 12.2184 4.81278 12.0852 4.69728 11.9136C4.58178 11.7421 4.52005 11.54 4.51998 11.3332C4.51642 11.1979 4.54 11.0632 4.58933 10.9372C4.63865 10.8112 4.71273 10.6963 4.80719 10.5993C4.90164 10.5024 5.01456 10.4254 5.13927 10.3728C5.26398 10.3202 5.39797 10.2931 5.53332 10.2932Z" fill="black"/>
</svg>
