<svg width="32" height="32" viewBox="0 0 32 32" fill="none" xmlns="http://www.w3.org/2000/svg">
<path d="M5.47998 5.33344C5.60991 4.935 5.77038 4.54718 5.95998 4.17344C6.205 3.71251 6.57232 3.32803 7.02159 3.06224C7.47086 2.79644 7.98469 2.65961 8.50665 2.66677H20.7066C21.3348 2.66319 21.948 2.85867 22.4582 3.22516C22.9684 3.59165 23.3495 4.11032 23.5466 4.70677C23.5707 4.80905 23.6285 4.90023 23.7107 4.96556C23.793 5.03089 23.8949 5.06655 24 5.06677C24.6952 5.18731 25.3268 5.5459 25.7865 6.08108C26.2463 6.61626 26.5056 7.2947 26.52 8.0001V26.2668C26.5235 26.6694 26.4471 27.0686 26.295 27.4414C26.143 27.8142 25.9184 28.1531 25.6344 28.4384C25.3503 28.7237 25.0124 28.9497 24.6403 29.1034C24.2682 29.257 23.8692 29.3352 23.4666 29.3334C19.3778 29.3334 15.3244 29.3334 11.3066 29.3334C10.6779 29.3335 10.0646 29.1387 9.55119 28.7757C9.03779 28.4128 8.64956 27.8996 8.43998 27.3068C8.43998 27.1734 8.23998 27.0001 8.11998 26.9868C7.48913 26.8928 6.90248 26.607 6.43972 26.1681C5.97695 25.7292 5.66049 25.1584 5.53331 24.5334C5.53331 24.5334 5.53331 24.4401 5.53331 24.4001L5.47998 5.33344ZM25.92 17.2268C25.92 14.2401 25.92 11.2534 25.92 8.2801C25.9481 7.92277 25.8983 7.56359 25.7743 7.22731C25.6502 6.89103 25.4547 6.58565 25.2012 6.33219C24.9478 6.07874 24.6424 5.88323 24.3061 5.75915C23.9698 5.63507 23.6107 5.58536 23.2533 5.61344H11.44C11.0891 5.59731 10.7388 5.65588 10.4123 5.78529C10.0858 5.9147 9.7905 6.11199 9.54596 6.3641C9.30141 6.61621 9.11321 6.91739 8.9938 7.24769C8.87439 7.578 8.82651 7.9299 8.85331 8.2801C8.85331 14.2712 8.85331 20.2579 8.85331 26.2401C8.83696 26.5904 8.8955 26.9402 9.02502 27.2661C9.15455 27.592 9.35208 27.8866 9.60444 28.1301C9.8568 28.3736 10.1582 28.5605 10.4885 28.6784C10.8188 28.7962 11.1705 28.8423 11.52 28.8134H23.3466C23.704 28.8415 24.0632 28.7918 24.3994 28.6677C24.7357 28.5436 25.0411 28.3481 25.2946 28.0947C25.548 27.8412 25.7435 27.5358 25.8676 27.1996C25.9917 26.8633 26.0414 26.5041 26.0133 26.1468C25.9333 23.1201 25.92 20.1468 25.92 17.1868V17.2268ZM8.25331 26.3334V8.30677C8.22382 7.86491 8.28914 7.42185 8.44488 7.00729C8.60063 6.59274 8.8432 6.21627 9.15634 5.90313C9.46948 5.58999 9.84595 5.34742 10.2605 5.19167C10.6751 5.03593 11.1181 4.97061 11.56 5.0001H23C22.8493 4.48567 22.5316 4.03606 22.097 3.7222C21.6624 3.40835 21.1357 3.24811 20.6 3.26677H8.59998C8.24912 3.25064 7.89884 3.30922 7.57232 3.43863C7.24581 3.56804 6.9505 3.76533 6.70596 4.01743C6.46141 4.26954 6.27321 4.57072 6.1538 4.90103C6.03439 5.23133 5.98651 5.58323 6.01331 5.93344C6.01331 11.9245 6.01331 17.9112 6.01331 23.8934C6.01143 24.1541 6.04279 24.414 6.10665 24.6668C6.24731 25.133 6.52952 25.5439 6.91416 25.8425C7.29879 26.1411 7.7668 26.3127 8.25331 26.3334Z" fill="black"/>
<path d="M17.4134 20.72H23.3734C23.4801 20.72 23.6134 20.72 23.6934 20.72C23.7497 20.7502 23.799 20.7919 23.8381 20.8425C23.8771 20.893 23.9051 20.9513 23.9201 21.0134C23.9201 21.0934 23.8134 21.2267 23.7201 21.2667C23.6106 21.2938 23.4962 21.2938 23.3867 21.2667H11.3867C11.2801 21.2667 11.1467 21.2667 11.0667 21.2667C10.9867 21.2667 10.8667 21.08 10.8801 20.9867C10.8914 20.9302 10.9152 20.8769 10.9498 20.8307C10.9844 20.7846 11.0289 20.7468 11.0801 20.72C11.1902 20.6994 11.3032 20.6994 11.4134 20.72H17.4134Z" fill="black"/>
<path d="M17.3334 15.3867H23.3067C23.4267 15.3867 23.5601 15.3867 23.6401 15.3867C23.695 15.4154 23.7434 15.455 23.7824 15.5032C23.8214 15.5514 23.8501 15.607 23.8667 15.6667C23.8667 15.76 23.7601 15.88 23.6667 15.9334C23.5734 15.9867 23.4667 15.9334 23.3734 15.9334H11.3734C11.2667 15.9334 11.1334 15.9334 11.0534 15.9334C11.0019 15.9038 10.9574 15.8635 10.9229 15.8152C10.8884 15.7668 10.8647 15.7117 10.8534 15.6534C10.8883 15.5407 10.9645 15.4454 11.0667 15.3867C11.1859 15.3665 11.3076 15.3665 11.4267 15.3867H17.3334Z" fill="black"/>
<path d="M17.3334 26.04H23.3334C23.4134 26.04 23.52 26.04 23.5867 26.04C23.7143 26.1277 23.8307 26.2307 23.9334 26.3466C23.8284 26.4471 23.7171 26.5406 23.6 26.6266C23.6 26.6266 23.4534 26.6266 23.3867 26.6266H11.3867C11.32 26.6266 11.2134 26.6266 11.1734 26.6266C11.0474 26.5316 10.9272 26.4292 10.8134 26.3199C10.9334 26.2266 11.0267 26.12 11.1467 26.04C11.2667 25.96 11.32 26.04 11.4134 26.04H17.3334Z" fill="black"/>
<path d="M17.3334 13.3335H11.44C11.3299 13.3541 11.2169 13.3541 11.1067 13.3335C11 13.3335 10.8667 13.1602 10.8667 13.0669C10.8667 12.9735 10.9867 12.8402 11.08 12.7735C11.1902 12.7532 11.3032 12.7532 11.4134 12.7735H23.5334C23.7334 12.7735 23.92 12.7735 23.9334 13.0535C23.9467 13.3335 23.7334 13.3602 23.52 13.3602H17.3334V13.3335Z" fill="black"/>
<path d="M17.4266 18.0532H23.3733C23.4918 18.0263 23.6148 18.0263 23.7333 18.0532C23.785 18.0791 23.83 18.1167 23.8647 18.163C23.8994 18.2092 23.9229 18.263 23.9333 18.3199C23.9173 18.3766 23.8886 18.4289 23.8493 18.4728C23.81 18.5167 23.7612 18.551 23.7066 18.5732C23.6266 18.5732 23.4933 18.5732 23.3866 18.5732H11.3866C11.2772 18.6003 11.1628 18.6003 11.0533 18.5732C10.9993 18.5451 10.9522 18.5054 10.9153 18.457C10.8785 18.4086 10.8527 18.3527 10.84 18.2932C10.84 18.2132 10.9466 18.0799 11.04 18.0399C11.1494 18.0128 11.2638 18.0128 11.3733 18.0399L17.4266 18.0532Z" fill="black"/>
<path d="M17.3334 23.9998H11.4801C11.3436 24.0271 11.2032 24.0271 11.0667 23.9998C10.9734 23.9998 10.8534 23.8398 10.8534 23.7465C10.8648 23.6917 10.8873 23.6398 10.9194 23.594C10.9515 23.5481 10.9925 23.5093 11.0401 23.4798C11.1495 23.4527 11.2639 23.4527 11.3734 23.4798H23.3734C23.4701 23.4589 23.5701 23.4589 23.6667 23.4798C23.7601 23.4798 23.8934 23.6531 23.8801 23.7331C23.865 23.7935 23.8369 23.8499 23.7977 23.8982C23.7586 23.9466 23.7093 23.9858 23.6534 24.0131C23.535 24.0405 23.4118 24.0405 23.2934 24.0131L17.3334 23.9998Z" fill="black"/>
<path d="M17.9067 10.48C17.0134 11.12 16.2267 11.12 15.76 10.48C15.2934 9.83996 15.5067 9.34663 16.3334 8.70663C16.2153 8.3417 16.1306 7.96684 16.0801 7.58663C16.0801 7.42663 16.2934 7.19996 16.4667 7.07996C16.669 6.92996 16.9222 6.86547 17.1716 6.90039C17.421 6.93531 17.6467 7.06684 17.8001 7.26663C18.1334 7.70663 17.9867 8.11996 17.2534 8.7333L17.92 9.59996L18.1467 9.06663L18.6 9.1733C18.5774 9.32997 18.5325 9.48262 18.4667 9.62663C18.2001 9.98663 18.3867 10.2133 18.6534 10.4266C18.92 10.64 18.7734 10.5466 18.8667 10.6133L18.5467 11L17.9067 10.48ZM16.7334 8.99996C16.2534 9.23996 16.0134 9.54663 16.0667 9.86663C16.0803 10.0259 16.1446 10.1767 16.2502 10.2967C16.3558 10.4167 16.4971 10.4996 16.6534 10.5333C16.8406 10.5568 17.0304 10.5205 17.1957 10.4294C17.361 10.3384 17.4932 10.1974 17.5734 10.0266L16.7334 8.99996ZM16.9334 8.38663C17.2267 8.22663 17.4801 8.03996 17.4001 7.6933C17.3719 7.61106 17.3246 7.53671 17.262 7.47642C17.1994 7.41613 17.1233 7.37163 17.04 7.34663C16.9512 7.34128 16.8626 7.35941 16.783 7.3992C16.7034 7.43899 16.6357 7.49904 16.5867 7.5733C16.4134 7.91996 16.7067 8.1333 16.9334 8.38663Z" fill="black"/>
<path d="M22.5867 8.00002C22.2933 8.16002 22.1067 8.18668 21.9467 7.84002C21.86 7.66326 21.7181 7.51953 21.5425 7.43053C21.3669 7.34153 21.1671 7.31209 20.9733 7.34668C20.7654 7.35032 20.563 7.4139 20.3903 7.5298C20.2177 7.64569 20.0821 7.80897 20 8.00002C19.862 8.29417 19.7905 8.6151 19.7905 8.94002C19.7905 9.26493 19.862 9.58586 20 9.88002C20.0923 10.0906 20.2494 10.2662 20.4485 10.3813C20.6475 10.4965 20.8781 10.545 21.1067 10.52C21.3215 10.5241 21.5324 10.4625 21.7111 10.3433C21.8898 10.2241 22.0279 10.0532 22.1067 9.85335C22.1067 9.77335 22.1733 9.68002 22.2267 9.54668L22.8 9.68002C22.6291 10.0068 22.4187 10.3113 22.1733 10.5867C21.9643 10.7492 21.721 10.862 21.4619 10.9167C21.2028 10.9713 20.9347 10.9663 20.6778 10.9021C20.4209 10.8379 20.182 10.7161 19.9791 10.546C19.7762 10.3758 19.6147 10.1618 19.5067 9.92002C19.2764 9.34591 19.2528 8.70959 19.44 8.12002C19.551 7.77311 19.77 7.4708 20.0651 7.25729C20.3602 7.04377 20.7158 6.93026 21.08 6.93335C21.4047 6.89635 21.7325 6.96784 22.0123 7.13667C22.292 7.30551 22.5081 7.56219 22.6267 7.86668C22.6162 7.91192 22.6028 7.95645 22.5867 8.00002Z" fill="black"/>
<path d="M12.12 7.46652V7.01318H15.1867V7.43985H13.8533V10.8798H13.3333V7.46652H12.12Z" fill="black"/>
</svg>
