<svg width="32" height="32" viewBox="0 0 32 32" fill="none" xmlns="http://www.w3.org/2000/svg">
<path d="M7.78667 6.74652C7.5856 7.41699 7.12896 7.98152 6.51532 8.31828C5.90167 8.65504 5.18023 8.73701 4.50667 8.54652C3.96796 8.41013 3.49195 8.09394 3.15737 7.65025C2.82278 7.20656 2.64967 6.66196 2.66667 6.10652C2.71493 5.55716 2.94396 5.0393 3.31791 4.63399C3.69186 4.22867 4.18964 3.95877 4.73334 3.86652C5.28945 3.74135 5.87138 3.80437 6.3878 4.04569C6.90422 4.28701 7.32591 4.69297 7.58667 5.19985C7.63045 5.35319 7.72991 5.48467 7.86555 5.56852C8.0012 5.65237 8.16326 5.68257 8.32 5.65318C8.83521 5.62651 9.35146 5.62651 9.86667 5.65318C9.9617 5.67103 10.06 5.65386 10.1433 5.60483C10.2267 5.55581 10.2894 5.47825 10.32 5.38652C10.4871 4.97709 10.7767 4.62927 11.149 4.39062C11.5213 4.15196 11.9582 4.03411 12.4 4.05318C12.8426 4.03894 13.2792 4.15859 13.6526 4.39648C14.0261 4.63436 14.3191 4.97942 14.4933 5.38652C14.529 5.45294 14.5783 5.51105 14.6381 5.55702C14.6978 5.60298 14.7667 5.63576 14.84 5.65318C15.64 5.65318 16.44 5.65318 17.2533 5.65318C17.4027 5.22187 17.6759 4.84418 18.0388 4.5674C18.4018 4.29063 18.8383 4.12705 19.2937 4.09717C19.7492 4.06728 20.2033 4.1724 20.5993 4.39937C20.9953 4.62634 21.3156 4.96508 21.52 5.37318C21.5527 5.46792 21.6168 5.54864 21.7017 5.60198C21.7866 5.65532 21.8871 5.67809 21.9867 5.66652C22.8169 5.61294 23.6498 5.61294 24.48 5.66652C25.1718 5.71703 25.8468 5.90406 26.4659 6.21679C27.0851 6.52953 27.6361 6.96179 28.0874 7.48862C28.5386 8.01545 28.881 8.62643 29.0948 9.28629C29.3087 9.94615 29.3898 10.6418 29.3333 11.3332C29.3107 12.5759 28.846 13.7699 28.0225 14.7009C27.199 15.6319 26.0707 16.239 24.84 16.4132C23.897 16.5155 22.948 16.5511 22 16.5198C21.9147 16.5118 21.8291 16.5323 21.7567 16.5781C21.6843 16.624 21.6292 16.6926 21.6 16.7732C21.4314 17.1871 21.1377 17.538 20.7601 17.777C20.3824 18.016 19.9396 18.1312 19.4933 18.1065C19.0504 18.1226 18.613 18.0037 18.2392 17.7656C17.8653 17.5275 17.5727 17.1814 17.4 16.7732L17.3067 16.5598H14.7733C14.723 16.5692 14.6754 16.5896 14.6339 16.6196C14.5924 16.6496 14.5581 16.6884 14.5333 16.7332C14.3553 17.1571 14.0482 17.5141 13.6556 17.7535C13.2631 17.9928 12.805 18.1024 12.3467 18.0665C11.8528 18.0705 11.3714 17.9122 10.9763 17.6159C10.5812 17.3196 10.2944 16.9017 10.16 16.4265C9.09125 16.4309 8.02494 16.5291 6.97334 16.7198C5.97864 16.9674 5.11246 17.5779 4.54501 18.4316C3.97756 19.2852 3.74987 20.3202 3.90667 21.3332C3.94743 22.2668 4.31379 23.1567 4.94216 23.8484C5.57053 24.5401 6.42125 24.9899 7.34667 25.1199C8.23193 25.2188 9.12277 25.2589 10.0133 25.2399C10.0933 25.2399 10.2133 25.1199 10.2533 25.0265C10.4297 24.6014 10.7364 24.2432 11.1294 24.0035C11.5224 23.7639 11.9813 23.6552 12.44 23.6932C12.8766 23.6834 13.306 23.8054 13.6723 24.0432C14.0385 24.281 14.3247 24.6237 14.4933 25.0265C14.5214 25.0805 14.5611 25.1276 14.6095 25.1645C14.6579 25.2014 14.7138 25.2271 14.7733 25.2399H17.2267C17.3428 24.8545 17.5619 24.508 17.8602 24.2378C18.1586 23.9677 18.525 23.784 18.92 23.7065C19.4231 23.5768 19.9558 23.627 20.4257 23.8486C20.8957 24.0702 21.2733 24.4491 21.4933 24.9198C21.5247 25.0311 21.5973 25.1263 21.6965 25.1857C21.7956 25.2452 21.9137 25.2646 22.0267 25.2399C22.7333 25.2399 23.4533 25.2399 24.16 25.2399C24.3503 24.5886 24.7817 24.0344 25.3663 23.69C25.9509 23.3457 26.6448 23.2372 27.3067 23.3865C27.8841 23.4787 28.4081 23.7786 28.7801 24.2299C29.152 24.6811 29.3465 25.2526 29.3268 25.8371C29.3072 26.4216 29.0748 26.9788 28.6734 27.404C28.2719 27.8292 27.729 28.0933 27.1467 28.1465C26.5129 28.2452 25.8647 28.1122 25.3211 27.7718C24.7774 27.4314 24.3747 26.9065 24.1867 26.2932H21.8267C21.7772 26.3002 21.73 26.3182 21.6885 26.3459C21.6469 26.3736 21.6121 26.4102 21.5867 26.4532C21.4178 26.8883 21.115 27.2585 20.7219 27.5102C20.3288 27.7618 19.8659 27.882 19.4 27.8532C18.9205 27.8571 18.4525 27.706 18.0657 27.4225C17.679 27.1391 17.394 26.7383 17.2533 26.2799H14.7733C14.7204 26.2915 14.6705 26.3141 14.6268 26.3462C14.5832 26.3784 14.5468 26.4194 14.52 26.4665C14.3434 26.8802 14.0442 27.2298 13.6627 27.4682C13.2813 27.7066 12.8359 27.8224 12.3867 27.7999C11.9437 27.8249 11.5042 27.7095 11.1307 27.4701C10.7572 27.2307 10.4688 26.8795 10.3067 26.4665C10.2133 26.2532 10.0667 26.2532 9.88 26.2532C8.86723 26.257 7.85556 26.1857 6.85334 26.0399C5.85045 25.848 4.93004 25.3546 4.21522 24.6255C3.5004 23.8963 3.02525 22.9663 2.85334 21.9598C2.60743 20.88 2.70382 19.7503 3.12911 18.7277C3.55441 17.7051 4.28751 16.8402 5.22667 16.2532C6.06992 15.7645 7.02542 15.5026 8 15.4932C8.73334 15.4932 9.46667 15.4932 10.1867 15.4932C10.3044 15.105 10.5254 14.7561 10.826 14.4837C11.1266 14.2113 11.4955 14.0256 11.8933 13.9465C12.3946 13.8175 12.9252 13.8683 13.3929 14.09C13.8606 14.3116 14.2358 14.6902 14.4533 15.1598C14.4901 15.2705 14.5658 15.3639 14.6664 15.4228C14.767 15.4817 14.8856 15.502 15 15.4798C15.6533 15.4798 16.3333 15.4798 16.9733 15.4798C17.0473 15.4744 17.1188 15.4509 17.1816 15.4114C17.2443 15.3718 17.2964 15.3175 17.3333 15.2532C17.5099 14.845 17.8053 14.4995 18.1811 14.2617C18.5568 14.0238 18.9955 13.9047 19.44 13.9198C19.8874 13.8982 20.3306 14.0145 20.7098 14.253C21.0889 14.4914 21.3857 14.8406 21.56 15.2532C21.56 15.3598 21.7333 15.5065 21.8267 15.5065C22.7839 15.5334 23.7417 15.4933 24.6933 15.3865C25.5766 15.2638 26.3936 14.8495 27.0145 14.2093C27.6353 13.5691 28.0244 12.7398 28.12 11.8532C28.2647 11.0685 28.1865 10.2591 27.8942 9.51665C27.602 8.77424 27.1074 8.12865 26.4667 7.65318C25.792 7.14322 24.9783 6.85029 24.1333 6.81318C23.4 6.81318 22.64 6.81318 21.9067 6.81318C21.8374 6.8227 21.7712 6.84811 21.7134 6.88743C21.6556 6.92675 21.6077 6.97892 21.5733 7.03985C21.3936 7.45125 21.0937 7.79872 20.713 8.03666C20.3323 8.27461 19.8886 8.39191 19.44 8.37318C18.9967 8.39118 18.5585 8.27306 18.1843 8.03471C17.8101 7.79636 17.5178 7.44919 17.3467 7.03985C17.3096 6.97446 17.2578 6.91867 17.1952 6.87699C17.1327 6.8353 17.0613 6.80888 16.9867 6.79985C16.28 6.79985 15.5867 6.79985 14.88 6.79985C14.8072 6.80928 14.7372 6.83443 14.6751 6.87357C14.6129 6.91271 14.56 6.9649 14.52 7.02652C14.345 7.43579 14.0499 7.78235 13.6738 8.02041C13.2976 8.25846 12.8581 8.37682 12.4133 8.35985C11.9637 8.38429 11.5175 8.26934 11.1357 8.0307C10.7539 7.79205 10.4551 7.44136 10.28 7.02652C10.2487 6.9659 10.2033 6.91368 10.1476 6.87424C10.0919 6.8348 10.0276 6.80929 9.96 6.79985L7.78667 6.74652ZM20.68 16.0798C20.6765 15.7674 20.5499 15.469 20.3278 15.2494C20.1056 15.0297 19.8058 14.9065 19.4933 14.9065C19.2657 14.9118 19.0446 14.9839 18.8577 15.1139C18.6708 15.244 18.5262 15.4261 18.4421 15.6377C18.358 15.8493 18.338 16.081 18.3847 16.3039C18.4313 16.5268 18.5426 16.731 18.7045 16.8911C18.8664 17.0512 19.0719 17.1601 19.2953 17.2042C19.5186 17.2483 19.7501 17.2258 19.9607 17.1393C20.1714 17.0528 20.3519 16.9062 20.4798 16.7178C20.6077 16.5294 20.6773 16.3075 20.68 16.0798ZM11.1733 15.9998C11.1733 16.3252 11.3026 16.6372 11.5326 16.8672C11.7627 17.0973 12.0747 17.2265 12.4 17.2265C12.7253 17.2265 13.0373 17.0973 13.2674 16.8672C13.4974 16.6372 13.6267 16.3252 13.6267 15.9998C13.6267 15.6745 13.4974 15.3625 13.2674 15.1325C13.0373 14.9024 12.7253 14.7732 12.4 14.7732C12.0747 14.7732 11.7627 14.9024 11.5326 15.1325C11.3026 15.3625 11.1733 15.6745 11.1733 15.9998ZM12.3867 5.09318C12.0729 5.08952 11.7702 5.2089 11.5434 5.42572C11.3166 5.64255 11.1838 5.93959 11.1733 6.25318C11.1733 6.57851 11.3026 6.89052 11.5326 7.12057C11.7627 7.35061 12.0747 7.47985 12.4 7.47985C12.7253 7.47985 13.0373 7.35061 13.2674 7.12057C13.4974 6.89052 13.6267 6.57851 13.6267 6.25318C13.625 6.09388 13.5914 5.93654 13.5276 5.79054C13.4639 5.64453 13.3714 5.51286 13.2557 5.40336C13.14 5.29387 13.0034 5.20879 12.8541 5.15321C12.7048 5.09763 12.5458 5.07268 12.3867 5.07985V5.09318ZM18.2267 6.26652C18.2439 6.58128 18.383 6.87698 18.6144 7.09101C18.8459 7.30504 19.1515 7.42058 19.4667 7.41318C19.7743 7.41318 20.0694 7.29097 20.2869 7.07343C20.5045 6.85588 20.6267 6.56083 20.6267 6.25318C20.6267 5.94553 20.5045 5.65048 20.2869 5.43294C20.0694 5.2154 19.7743 5.09318 19.4667 5.09318C19.1493 5.0859 18.8418 5.20328 18.6099 5.42013C18.3781 5.63699 18.2405 5.93605 18.2267 6.25318V6.26652ZM11.1733 25.7732C11.16 26.0188 11.2208 26.2627 11.3478 26.4733C11.4748 26.6839 11.6622 26.8515 11.8856 26.9542C12.109 27.057 12.3582 27.0902 12.6008 27.0496C12.8433 27.009 13.0681 26.8964 13.2459 26.7264C13.4236 26.5565 13.5462 26.337 13.5977 26.0965C13.6492 25.856 13.6272 25.6056 13.5345 25.3778C13.4419 25.15 13.2829 24.9552 13.0782 24.8189C12.8735 24.6825 12.6326 24.6109 12.3867 24.6132C12.2308 24.6096 12.0758 24.6368 11.9305 24.6932C11.7851 24.7496 11.6523 24.8341 11.5397 24.9418C11.427 25.0495 11.3366 25.1784 11.2738 25.321C11.2109 25.4637 11.1768 25.6173 11.1733 25.7732ZM20.68 25.7732C20.68 25.4479 20.5508 25.1358 20.3207 24.9058C20.0907 24.6758 19.7787 24.5465 19.4533 24.5465C19.128 24.5465 18.816 24.6758 18.586 24.9058C18.3559 25.1358 18.2267 25.4479 18.2267 25.7732C18.2473 26.088 18.3897 26.3823 18.6236 26.5939C18.8576 26.8055 19.1648 26.9176 19.48 26.9065C19.7892 26.9068 20.0866 26.7877 20.3102 26.5741C20.5338 26.3605 20.6663 26.0688 20.68 25.7598V25.7732Z" fill="black"/>
</svg>
