<svg width="20" height="20" viewBox="0 0 20 20" fill="none" xmlns="http://www.w3.org/2000/svg">
<path d="M1.66666 10V3.9917C1.6353 3.6779 1.67418 3.36105 1.78048 3.06414C1.88677 2.76723 2.05782 2.4977 2.28122 2.27511C2.50461 2.05251 2.77475 1.88243 3.07204 1.77719C3.36932 1.67196 3.68631 1.63422 3.99999 1.6667H15.9917C16.3057 1.63444 16.6229 1.67227 16.9206 1.77746C17.2182 1.88265 17.4887 2.05258 17.7128 2.27499C17.9368 2.4974 18.1086 2.76675 18.2159 3.06362C18.3232 3.36048 18.3633 3.67746 18.3333 3.9917V16.0334C18.3604 16.3436 18.3188 16.6561 18.2117 16.9485C18.1046 17.241 17.9345 17.5063 17.7135 17.7258C17.4925 17.9452 17.2259 18.1134 16.9327 18.2184C16.6395 18.3234 16.3267 18.3626 16.0167 18.3334H3.97499C3.66557 18.3613 3.35378 18.3211 3.06159 18.2155C2.7694 18.11 2.50391 17.9416 2.28383 17.7223C2.06375 17.503 1.89443 17.2381 1.78779 16.9463C1.68116 16.6545 1.63981 16.3429 1.66666 16.0334V10ZM10.05 3.0417H3.97499C3.29166 3.0417 3.04166 3.28336 3.04166 3.95003V16.0417C3.04166 16.7167 3.29166 16.9584 3.97499 16.9584H16.0167C16.725 16.9584 16.9583 16.7167 16.9583 16V4.00836C16.9583 3.27503 16.725 3.0417 15.975 3.0417H10.05Z" fill="#0DB2B2"/>
<path d="M12.0084 10.5334C12.6594 10.8915 13.2029 11.4173 13.5824 12.0561C13.9619 12.695 14.1636 13.4237 14.1667 14.1667H12.8417C12.5834 12.5 11.7 11.4584 9.94171 11.4334C8.50004 11.4334 7.71671 12.2667 7.14171 14.175H5.83337C5.83822 13.4418 6.03648 12.7228 6.40813 12.0907C6.77978 11.4586 7.31166 10.9358 7.95004 10.575C7.6333 10.2301 7.40669 9.81232 7.29038 9.35872C7.17408 8.90512 7.17167 8.4298 7.28337 7.97505C7.43194 7.34288 7.80885 6.78789 8.34171 6.41671C8.87367 6.02397 9.52807 5.83344 10.1877 5.87925C10.8474 5.92506 11.4691 6.20421 11.9417 6.66671C12.4442 7.18095 12.7311 7.86789 12.7435 8.5868C12.7559 9.3057 12.4929 10.0021 12.0084 10.5334ZM10 7.20838C9.72192 7.20352 9.44859 7.28113 9.21453 7.43142C8.98046 7.58171 8.79614 7.79794 8.68482 8.05286C8.57349 8.30777 8.54015 8.58994 8.58899 8.86378C8.63783 9.13762 8.76666 9.39086 8.95925 9.59157C9.15184 9.79228 9.39955 9.93146 9.67114 9.99156C9.94273 10.0517 10.226 10.03 10.4853 9.92929C10.7446 9.82858 10.9683 9.65335 11.1281 9.42568C11.2879 9.19802 11.3767 8.92813 11.3834 8.65005C11.3858 8.27697 11.2426 7.91766 10.9843 7.64846C10.726 7.37926 10.3729 7.22139 10 7.20838Z" fill="#0DB2B2"/>
</svg>
