<svg width="19" height="19" viewBox="0 0 19 19" fill="none" xmlns="http://www.w3.org/2000/svg">
<path d="M6.33315 12.3659L2.73107 14.163C2.61055 14.2237 2.47651 14.2526 2.34168 14.247C2.20685 14.2413 2.0757 14.2013 1.96068 14.1307C1.84567 14.0601 1.75061 13.9613 1.68453 13.8436C1.61846 13.726 1.58356 13.5934 1.58315 13.4584V5.54177C1.5822 5.40615 1.61611 5.27257 1.68163 5.15382C1.74715 5.03507 1.84207 4.93513 1.9573 4.86361C2.07253 4.79208 2.20421 4.75136 2.3397 4.74535C2.47519 4.73934 2.60995 4.76823 2.73107 4.82927L6.33315 6.64218V5.54177C6.33315 5.12185 6.49997 4.71912 6.7969 4.42219C7.09383 4.12526 7.49656 3.95844 7.91648 3.95844H15.8332C16.2531 3.95844 16.6558 4.12526 16.9528 4.42219C17.2497 4.71912 17.4165 5.12185 17.4165 5.54177V13.4584C17.4165 14.3292 16.704 15.0417 15.8332 15.0417H7.91648C7.49656 15.0417 7.09383 14.8749 6.7969 14.578C6.49997 14.2811 6.33315 13.8783 6.33315 13.4584V12.3659ZM6.33315 10.5926V8.40761L3.16648 6.82428V12.1759L6.33315 10.5926ZM7.91648 5.54177V13.4584H15.8332V5.54177H7.91648Z" fill="#0DB2B2"/>
</svg>
