<svg width="24" height="34" viewBox="0 0 24 34" fill="none" xmlns="http://www.w3.org/2000/svg">
<path d="M23.1669 31.68C21.9669 32.2667 20.5269 32.7333 18.8469 33.08C17.1669 33.4533 15.3669 33.64 13.4469 33.64C10.7535 33.64 8.40688 33.28 6.40688 32.56C4.40688 31.84 2.86021 30.7867 1.76688 29.4C0.673542 28.0133 0.126875 26.36 0.126875 24.44C0.126875 21.08 2.06021 18.16 5.92688 15.68C4.64688 14.64 3.64688 13.4667 2.92688 12.16C2.20688 10.8267 1.84688 9.48 1.84688 8.12C1.84688 6.52 2.22021 5.13333 2.96688 3.96C3.71354 2.78667 4.72688 1.90667 6.00688 1.32C7.28688 0.706666 8.71354 0.399999 10.2869 0.399999C11.2735 0.399999 12.2869 0.519999 13.3269 0.759999C14.3935 0.973332 15.3002 1.25333 16.0469 1.6L15.4869 5.8L15.3269 5.92C13.5935 5.41333 12.2335 5.16 11.2469 5.16C9.99354 5.16 9.06021 5.46667 8.44688 6.08C7.83354 6.69333 7.52688 7.49333 7.52688 8.48C7.52688 9.25333 7.76688 10.0933 8.24688 11C8.75354 11.88 9.44688 12.6533 10.3269 13.32C12.3002 12.4667 14.5402 11.6667 17.0469 10.92L17.2869 11L16.9269 16.28C12.9269 17.1333 9.94021 18.1467 7.96688 19.32C6.02021 20.52 5.04688 21.92 5.04688 23.52C5.04688 24.5867 5.42021 25.5067 6.16688 26.28C6.94021 27.08 8.03354 27.6933 9.44688 28.12C10.8869 28.5467 12.5935 28.76 14.5669 28.76C15.8735 28.76 17.1935 28.6667 18.5269 28.48C19.8869 28.32 21.0602 28.0933 22.0469 27.8L22.4069 28L23.1669 31.68Z" fill="black"/>
</svg>
